SplineFontDB: 3.2
FontName: FanSemitic
FullName: FanSemitic
FamilyName: FanSemitic
Weight: Book
Copyright: 
Version: 1
ItalicAngle: 0
UnderlinePosition: -400
UnderlineWidth: 200
Ascent: 1638
Descent: 410
InvalidEm: 0
sfntRevision: 0x00010000
LayerCount: 2
Layer: 0 1 "Back" 1
Layer: 1 1 "Fore" 0
XUID: [1021 991 -1287261736 27607]
StyleMap: 0x0000
FSType: 14
OS2Version: 0
OS2_WeightWidthSlopeOnly: 0
OS2_UseTypoMetrics: 0
CreationTime: 1054224800
ModificationTime: 1624732421
PfmFamily: 81
TTFWeight: 400
TTFWidth: 5
LineGap: 0
VLineGap: 0
Panose: 0 0 4 0 0 0 0 0 0 0
OS2TypoAscent: 1692
OS2TypoAOffset: 0
OS2TypoDescent: -672
OS2TypoDOffset: 0
OS2TypoLinegap: 0
OS2WinAscent: 1692
OS2WinAOffset: 0
OS2WinDescent: 672
OS2WinDOffset: 0
HheadAscent: 1692
HheadAOffset: 0
HheadDescent: -672
HheadDOffset: 0
OS2SubXSize: 1434
OS2SubYSize: 1331
OS2SubXOff: 0
OS2SubYOff: 293
OS2SupXSize: 1434
OS2SupYSize: 1331
OS2SupXOff: 0
OS2SupYOff: 928
OS2StrikeYSize: 102
OS2StrikeYPos: 530
OS2Vendor: 'NONE'
OS2UnicodeRanges: 00000003.00000000.00000000.00000000
MarkAttachClasses: 1
DEI: 91125
TtTable: prep
PUSHW_4
 0
 5
 2
 0
CALL
CALL
PUSHW_6
 3
 73
 57
 41
 24
 8
CALL
PUSHW_6
 4
 73
 57
 41
 24
 8
CALL
PUSHW_6
 0
 205
 160
 114
 69
 8
CALL
PUSHW_6
 1
 150
 117
 74
 44
 8
CALL
PUSHW_6
 2
 113
 88
 74
 44
 8
CALL
PUSHW_3
 5
 4
 7
CALL
EndTTInstrs
TtTable: fpgm
PUSHW_1
 0
FDEF
MPPEM
PUSHW_1
 9
LT
IF
PUSHB_2
 1
 1
INSTCTRL
EIF
PUSHW_1
 511
SCANCTRL
PUSHW_1
 132
SCVTCI
PUSHW_2
 9
 3
SDS
SDB
ENDF
PUSHW_1
 1
FDEF
DUP
DUP
RCVT
ROUND[Black]
WCVTP
PUSHB_1
 1
ADD
ENDF
PUSHW_1
 2
FDEF
PUSHW_1
 1
LOOPCALL
POP
ENDF
PUSHW_1
 3
FDEF
DUP
GC[cur]
PUSHB_1
 3
CINDEX
GC[cur]
GT
IF
SWAP
EIF
DUP
ROLL
DUP
ROLL
MD[grid]
ABS
ROLL
DUP
GC[cur]
DUP
ROUND[Grey]
SUB
ABS
PUSHB_1
 4
CINDEX
GC[cur]
DUP
ROUND[Grey]
SUB
ABS
GT
IF
SWAP
NEG
ROLL
EIF
MDAP[rnd]
DUP
PUSHB_1
 0
GTEQ
IF
ROUND[Black]
DUP
PUSHB_1
 0
EQ
IF
POP
PUSHB_1
 64
EIF
ELSE
ROUND[Black]
DUP
PUSHB_1
 0
EQ
IF
POP
PUSHB_1
 64
NEG
EIF
EIF
MSIRP[no-rp0]
ENDF
PUSHW_1
 4

StartChar: exclam
Encoding: 33 33 1
Width: 518
Flags: W
LayerCount: 2
Fore
SplineSet
403 1155 m 0,0,1
 403 1141 403 1141 396 1119.5 c 128,-1,2
 389 1098 389 1098 389 1085 c 2,3,-1
 328 436 l 1,4,5
 328 348 328 348 285 348 c 0,6,7
 279 348 279 348 272 350 c 0,8,9
 249 360 249 360 250 387 c 0,10,11
 252 412 252 412 254 436 c 2,12,-1
 238 956 l 2,13,14
 240 968 240 968 240 1004 c 0,15,16
 240 1024 240 1024 215 1052.5 c 128,-1,17
 190 1081 190 1081 190 1104 c 0,18,19
 190 1118 190 1118 225 1128 c 0,20,21
 280 1142 280 1142 285.5 1144.5 c 128,-1,22
 291 1147 291 1147 324 1180 c 0,23,24
 347 1203 347 1203 367 1196 c 0,25,26
 403 1186 403 1186 403 1155 c 0,0,1
391 72 m 0,27,28
 391 56 391 56 368.5 41.5 c 128,-1,29
 346 27 346 27 324 14 c 0,30,31
 312 6 312 6 295 -37 c 0,32,33
 279 -70 279 -70 260 -70 c 0,34,35
 248 -70 248 -70 236 -43 c 0,36,37
 218 -6 218 -6 213 0 c 0,38,39
 203 10 203 10 162 29 c 0,40,41
 129 43 129 43 129 61 c 0,42,43
 129 81 129 81 162 98 c 0,44,45
 205 118 205 118 212 126.5 c 128,-1,46
 219 135 219 135 236 180 c 0,47,48
 248 213 248 213 266 213 c 0,49,50
 282 213 282 213 295 180 c 0,51,52
 311 135 311 135 318.5 126 c 128,-1,53
 326 117 326 117 362 100 c 0,54,55
 391 86 391 86 391 72 c 0,27,28
EndSplineSet
EndChar

StartChar: quotedbl
Encoding: 34 34 2
Width: 706
Flags: W
LayerCount: 2
Fore
SplineSet
526 1133 m 256,0,1
 526 1127 526 1127 499.5 1107 c 128,-1,2
 473 1087 473 1087 467 1073 c 0,3,4
 465 1067 465 1067 457 938 c 0,5,6
 451 825 451 825 428 825 c 0,7,8
 410 825 410 825 399 938 c 0,9,10
 387 1065 387 1065 385 1071 c 0,11,12
 377 1083 377 1083 350.5 1101.5 c 128,-1,13
 324 1120 324 1120 324 1126 c 256,14,15
 324 1132 324 1132 349.5 1148.5 c 128,-1,16
 375 1165 375 1165 387 1180 c 0,17,18
 393 1188 393 1188 403 1229 c 0,19,20
 411 1258 411 1258 424 1257 c 0,21,22
 434 1257 434 1257 444 1225 c 0,23,24
 454 1186 454 1186 462.5 1180 c 128,-1,25
 471 1174 471 1174 504 1153 c 0,26,27
 526 1139 526 1139 526 1133 c 256,0,1
276 1133 m 256,28,29
 276 1127 276 1127 250.5 1108.5 c 128,-1,30
 225 1090 225 1090 217 1073 c 0,31,32
 215 1069 215 1069 205 936 c 0,33,34
 197 819 197 819 172 819 c 0,35,36
 154 819 154 819 147 936 c 0,37,38
 139 1063 139 1063 133 1073 c 128,-1,39
 127 1083 127 1083 101.5 1101.5 c 128,-1,40
 76 1120 76 1120 76 1126 c 0,41,42
 76 1130 76 1130 100.5 1147.5 c 128,-1,43
 125 1165 125 1165 135 1177.5 c 128,-1,44
 145 1190 145 1190 156 1227 c 0,45,46
 164 1258 164 1258 176 1257 c 0,47,48
 186 1257 186 1257 197 1225 c 0,49,50
 207 1186 207 1186 214 1180 c 128,-1,51
 221 1174 221 1174 254 1153 c 0,52,53
 276 1139 276 1139 276 1133 c 256,28,29
EndSplineSet
EndChar

StartChar: numbersign
Encoding: 35 35 3
Width: 860
Flags: W
LayerCount: 2
Fore
SplineSet
389 555 m 1,0,-1
 381 422 l 1,1,-1
 500 422 l 1,2,-1
 508 555 l 1,3,-1
 389 555 l 1,0,-1
414 883 m 1,4,-1
 395 641 l 1,5,-1
 516 641 l 1,6,-1
 532 883 l 1,7,-1
 612 883 l 1,8,-1
 596 641 l 1,9,-1
 793 641 l 1,10,-1
 786 555 l 1,11,-1
 588 555 l 1,12,-1
 580 422 l 1,13,-1
 776 422 l 1,14,-1
 768 332 l 1,15,-1
 571 332 l 1,16,-1
 553 68 l 1,17,-1
 475 68 l 1,18,-1
 494 332 l 1,19,-1
 373 332 l 1,20,-1
 356 66 l 1,21,-1
 276 66 l 1,22,-1
 295 332 l 1,23,-1
 117 332 l 1,24,-1
 123 422 l 1,25,-1
 301 422 l 1,26,-1
 311 555 l 1,27,-1
 131 555 l 1,28,-1
 139 641 l 1,29,-1
 317 641 l 1,30,-1
 334 883 l 1,31,-1
 414 883 l 1,4,-1
EndSplineSet
EndChar

StartChar: dollar
Encoding: 36 36 4
Width: 786
Flags: W
LayerCount: 2
Fore
SplineSet
723 293 m 0,0,1
 723 -14 723 -14 379 -18 c 1,2,-1
 365 -174 l 1,3,-1
 303 -174 l 1,4,-1
 317 -18 l 1,5,6
 153 -18 153 -18 106 10 c 0,7,8
 86 22 86 22 86 117 c 0,9,10
 86 162 86 162 94 252 c 1,11,-1
 129 252 l 1,12,13
 131 66 131 66 322 41 c 1,14,-1
 356 428 l 1,15,16
 235 477 235 477 182 526 c 0,17,18
 100 598 100 598 100 705 c 0,19,20
 100 998 100 998 408 1014 c 1,21,-1
 418 1143 l 1,22,-1
 477 1143 l 1,23,-1
 467 1014 l 1,24,25
 557 1012 557 1012 670 983 c 1,26,-1
 672 776 l 1,27,-1
 637 776 l 1,28,29
 637 936 637 936 461 948 c 1,30,-1
 428 569 l 1,31,32
 575 501 575 501 618 471 c 0,33,34
 723 395 723 395 723 293 c 0,0,1
401 948 m 1,35,36
 225 928 225 928 225 758 c 0,37,38
 225 664 225 664 371 596 c 1,39,-1
 401 948 l 1,35,36
604 231 m 0,40,41
 604 294 604 294 535 344 c 0,42,43
 502 367 502 367 414 406 c 1,44,-1
 383 41 l 1,45,46
 604 45 604 45 604 231 c 0,40,41
EndSplineSet
EndChar

StartChar: percent
Encoding: 37 37 5
Width: 1071
Flags: W
LayerCount: 2
Fore
SplineSet
993 219 m 0,0,1
 993 -10 993 -10 793 -10 c 0,2,3
 625 -10 625 -10 625 223 c 0,4,5
 625 440 625 440 821 440 c 0,6,7
 993 440 993 440 993 219 c 0,0,1
778 920 m 1,8,-1
 356 -98 l 1,9,-1
 272 -98 l 1,10,-1
 700 920 l 1,11,-1
 778 920 l 1,8,-1
465 741 m 0,12,13
 465 512 465 512 264 512 c 0,14,15
 96 512 96 512 96 745 c 0,16,17
 96 962 96 962 293 963 c 0,18,19
 465 962 465 962 465 741 c 0,12,13
920 199 m 0,20,21
 920 408 920 408 799 408 c 0,22,23
 695 408 695 408 694 244 c 0,24,25
 694 27 694 27 809 27 c 0,26,27
 920 27 920 27 920 199 c 0,20,21
391 721 m 0,28,29
 391 930 391 930 270 930 c 0,30,31
 166 930 166 930 166 766 c 0,32,33
 166 549 166 549 281 549 c 0,34,35
 391 549 391 549 391 721 c 0,28,29
EndSplineSet
EndChar

StartChar: ampersand
Encoding: 38 38 6
Width: 1609
Flags: W
LayerCount: 2
Fore
SplineSet
1491 1090 m 2,0,1
 1491 1084 1491 1084 1493 1030 c 0,2,3
 1495 997 1495 997 1491 977 c 0,4,5
 1487 948 1487 948 1475 926 c 0,6,7
 1438 860 1438 860 1348 860 c 0,8,9
 1321 860 1321 860 1298 868 c 0,10,11
 1267 874 1267 874 1208 874 c 0,12,13
 1200 874 1200 874 1192 840 c 0,14,15
 1188 815 1188 815 1182 791 c 0,16,17
 1159 629 1159 629 1145 594 c 0,18,19
 1096 477 1096 477 956 295 c 1,20,21
 1038 131 1038 131 1114 90 c 1,22,23
 1169 74 1169 74 1192 74 c 0,24,25
 1243 74 1243 74 1366 143 c 1,26,-1
 1405 131 l 2,27,28
 1405 127 1405 127 1407 111 c 0,29,30
 1409 99 1409 99 1407 92 c 256,31,32
 1405 86 1405 86 1395 86 c 0,33,34
 1332 53 1332 53 1268 18 c 0,35,36
 1190 -15 1190 -15 1114 -14 c 0,37,38
 1020 -14 1020 -14 962.5 40 c 128,-1,39
 905 94 905 94 856 190 c 1,40,41
 666 0 666 0 389 0 c 0,42,43
 37 0 37 0 37 319 c 0,44,45
 37 550 37 550 334 621 c 1,46,-1
 326 627 l 2,47,48
 197 723 197 723 197 825 c 0,49,50
 197 972 197 972 332 1053 c 0,51,52
 402 1094 402 1094 551 1094 c 0,53,54
 657 1094 657 1094 702 1059 c 1,55,56
 702 1045 702 1045 705.5 1027.5 c 128,-1,57
 709 1010 709 1010 709 997 c 0,58,59
 709 983 709 983 705.5 961.5 c 128,-1,60
 702 940 702 940 702 930 c 1,61,-1
 682 922 l 1,62,-1
 664 928 l 1,63,64
 648 981 648 981 599.5 1014 c 128,-1,65
 551 1047 551 1047 489 1047 c 0,66,67
 411 1047 411 1047 349 998.5 c 128,-1,68
 287 950 287 950 287 881 c 0,69,70
 287 772 287 772 434 707 c 1,71,72
 555 666 555 666 676 627 c 0,73,74
 768 594 768 594 836 512 c 0,75,76
 875 463 875 463 934 350 c 1,77,78
 1026 452 1026 452 1077 616 c 0,79,80
 1116 743 1116 743 1116 844 c 0,81,82
 1116 879 1116 879 1103 933 c 128,-1,83
 1090 987 1090 987 1090 1024 c 1,84,-1
 1284 967 l 2,85,86
 1331 953 1331 953 1356 952 c 0,87,88
 1419 952 1419 952 1419 1016 c 0,89,90
 1419 1030 1419 1030 1414 1056.5 c 128,-1,91
 1409 1083 1409 1083 1409 1094 c 1,92,-1
 1460 1108 l 1,93,-1
 1491 1090 l 2,0,1
825 266 m 1,94,95
 774 389 774 389 723 450.5 c 128,-1,96
 672 512 672 512 569 543 c 0,97,98
 481 568 481 568 391 592 c 1,99,100
 164 535 164 535 164 346 c 0,101,102
 164 237 164 237 268 174 c 0,103,104
 362 117 362 117 489 117 c 0,105,106
 661 116 661 116 825 266 c 1,94,95
EndSplineSet
EndChar

StartChar: quotesingle
Encoding: 39 39 7
Width: 391
Flags: W
LayerCount: 2
Fore
SplineSet
281 1133 m 256,0,1
 281 1127 281 1127 254 1107 c 128,-1,2
 227 1087 227 1087 221 1073 c 0,3,4
 219 1067 219 1067 211 950 c 0,5,6
 203 850 203 850 180 850 c 0,7,8
 162 850 162 850 152 950 c 0,9,10
 142 1065 142 1065 139 1071 c 0,11,12
 131 1083 131 1083 104.5 1101.5 c 128,-1,13
 78 1120 78 1120 78 1126 c 256,14,15
 78 1132 78 1132 103.5 1148.5 c 128,-1,16
 129 1165 129 1165 141 1180 c 0,17,18
 147 1188 147 1188 158 1229 c 0,19,20
 166 1258 166 1258 178 1257 c 0,21,22
 188 1257 188 1257 199 1225 c 0,23,24
 209 1186 209 1186 217 1180 c 128,-1,25
 225 1174 225 1174 258 1153 c 0,26,27
 281 1139 281 1139 281 1133 c 256,0,1
EndSplineSet
EndChar

StartChar: parenleft
Encoding: 40 40 8
Width: 627
VWidth: 1492
Flags: W
TeX: 94 0
VStem: 100 197<298.671 814.191>
LayerCount: 2
Fore
SplineSet
501 1243 m 1,0,1
 425 1147 425 1147 377 1020 c 0
 329 893 329 893 313 786 c 0
 297 679 297 679 297 572 c 0,2,3
 297 406 297 406 332 258.5 c 0
 367 111 367 111 410 30 c 0,4,5
 451 -53 451 -53 481 -88 c 2,6,-1
 528 -151 l 1,7,-1
 504 -180 l 1,8,9
 486 -177 486 -177 469 -167 c 0
 452 -157 452 -157 436 -144 c 0
 420 -131 420 -131 415 -128 c 0,10,11
 354 -66 354 -66 302 3 c 0
 250 72 250 72 202.5 159 c 0
 155 246 155 246 127.5 349 c 0
 100 452 100 452 100 558 c 2,12,13
 100 566 l 2,14,15
 100 821 100 821 276 1059 c 0,16,17
 351 1166 351 1166 465 1269 c 1,18,-1
 501 1243 l 1,0,1
EndSplineSet
Validated: 1
EndChar

StartChar: parenright
Encoding: 41 41 9
Width: 610
VWidth: 1497
Flags: W
TeX: 94 0
VStem: 318 193<273.539 800.883>
LayerCount: 2
Fore
SplineSet
511 515 m 0,0,1
 511 431 511 431 490.5 352 c 0
 470 273 470 273 422 162 c 1,2,3
 306 -51 306 -51 139 -169 c 1,4,-1
 100 -155 l 1,5,6
 105 -132 105 -132 137 -83 c 2,7,-1
 204 33 l 2,8,9
 241 105 241 105 279.5 259 c 0
 318 413 318 413 318 578 c 0,10,11
 318 833 318 833 224 1029 c 1,12,13
 208 1079 208 1079 168 1143 c 2,14,-1
 108 1240 l 1,15,-1
 117 1272 l 2,16,17
 123 1286 123 1286 131 1286 c 0,18,19
 145 1286 145 1286 184 1247 c 2,20,-1
 294 1127 l 2,21,22
 320 1096 320 1096 350.5 1049 c 0
 381 1002 381 1002 420.5 923 c 0
 460 844 460 844 485.5 736 c 0
 511 628 511 628 511 515 c 0,0,1
EndSplineSet
Validated: 1
EndChar

StartChar: asterisk
Encoding: 42 42 10
Width: 616
Flags: W
LayerCount: 2
Fore
SplineSet
373 1055 m 1,0,1
 523 996 523 996 522 940 c 0,2,3
 522 893 522 893 477 893 c 0,4,5
 448 893 448 893 346 1004 c 1,6,7
 348 994 348 994 362 936 c 0,8,9
 372 895 372 895 373 868 c 0,10,11
 373 821 373 821 324 821 c 0,12,13
 267 821 267 821 266 868 c 0,14,15
 266 872 266 872 295 1014 c 1,16,17
 197 905 197 905 152 905 c 0,18,19
 132 905 132 905 116 920.5 c 128,-1,20
 100 936 100 936 100 956 c 0,21,22
 100 1007 100 1007 274 1057 c 1,23,24
 223 1073 223 1073 172 1090 c 0,25,26
 94 1121 94 1121 94 1147 c 0,27,28
 94 1202 94 1202 139 1202 c 0,29,30
 207 1202 207 1202 297 1112 c 1,31,32
 295 1120 295 1120 279 1167 c 0,33,34
 267 1200 267 1200 266 1223 c 0,35,36
 266 1299 266 1299 319 1298 c 0,37,38
 368 1298 368 1298 369 1225 c 0,39,40
 369 1188 369 1188 348 1108 c 1,41,42
 446 1200 446 1200 489 1200 c 0,43,44
 530 1200 530 1200 530 1143 c 0,45,46
 531 1094 531 1094 373 1055 c 1,0,1
EndSplineSet
EndChar

StartChar: plus
Encoding: 43 43 11
Width: 770
Flags: W
LayerCount: 2
Fore
SplineSet
674 360 m 1,0,-1
 424 360 l 1,1,-1
 424 84 l 1,2,-1
 338 84 l 1,3,-1
 338 360 l 1,4,-1
 92 360 l 1,5,-1
 92 449 l 1,6,-1
 338 449 l 1,7,-1
 338 709 l 1,8,-1
 424 709 l 1,9,-1
 424 449 l 1,10,-1
 674 449 l 1,11,-1
 674 360 l 1,0,-1
EndSplineSet
EndChar

StartChar: comma
Encoding: 44 44 12
Width: 501
Flags: W
LayerCount: 2
Fore
SplineSet
141 -309 m 0,0,1
 129 -309 129 -309 113.5 -307 c 128,-1,2
 98 -305 98 -305 94 -295 c 0,3,4
 88 -277 88 -277 94 -270 c 256,5,6
 100 -264 100 -264 104 -260 c 0,7,8
 221 -207 221 -207 221 -80 c 0,9,10
 221 -17 221 -17 188 14 c 0,11,12
 184 18 184 18 150 33 c 0,13,14
 123 45 123 45 123 57 c 0,15,16
 123 73 123 73 162 82 c 0,17,18
 211 92 211 92 217 96 c 128,-1,19
 223 100 223 100 238 137 c 0,20,21
 250 168 250 168 264 168 c 0,22,23
 270 168 270 168 283.5 135 c 128,-1,24
 297 102 297 102 303 98 c 0,25,26
 319 86 319 86 377 84 c 1,27,-1
 391 57 l 1,28,-1
 375 41 l 1,29,30
 332 31 332 31 315 -49 c 0,31,32
 290 -172 290 -172 279 -197 c 0,33,34
 239 -282 239 -282 141 -309 c 0,0,1
EndSplineSet
EndChar

StartChar: hyphen
Encoding: 45 45 13
Width: 806
Flags: W
LayerCount: 2
Fore
SplineSet
627 506 m 0,0,1
 627 496 627 496 616 465 c 1,2,-1
 147 360 l 1,3,4
 129 372 129 372 129 395 c 0,5,6
 129 438 129 438 152 449 c 2,7,-1
 604 549 l 1,8,9
 621 531 621 531 627 506 c 0,0,1
EndSplineSet
EndChar

StartChar: period
Encoding: 46 46 14
Width: 509
Flags: W
LayerCount: 2
Fore
SplineSet
358 -2 m 0,0,1
 346 -27 346 -27 336 -51 c 0,2,3
 320 -82 320 -82 295 -82 c 0,4,5
 268 -82 268 -82 252 -49 c 0,6,7
 240 -24 240 -24 227 2 c 0,8,9
 223 6 223 6 178 31 c 0,10,11
 143 51 143 51 145 74 c 0,12,13
 145 92 145 92 187 115.5 c 128,-1,14
 229 139 229 139 240 160 c 0,15,16
 271 226 271 226 299 225 c 0,17,18
 330 225 330 225 344 193 c 0,19,20
 362 150 362 150 367 147 c 0,21,22
 390 135 390 135 416 119.5 c 128,-1,23
 442 104 442 104 442 82 c 0,24,25
 442 55 442 55 403 32.5 c 128,-1,26
 364 10 364 10 358 -2 c 0,0,1
EndSplineSet
EndChar

StartChar: slash
Encoding: 47 47 15
Width: 976
Flags: W
LayerCount: 2
Fore
SplineSet
135 -197 m 1,0,-1
 55 -158 l 1,1,-1
 827 1311 l 1,2,-1
 907 1266 l 1,3,-1
 135 -197 l 1,0,-1
EndSplineSet
EndChar

StartChar: zero
Encoding: 48 48 16
Width: 829
Flags: W
LayerCount: 2
Fore
SplineSet
778 371 m 0,0,1
 778 213 778 213 672.5 99.5 c 128,-1,2
 567 -14 567 -14 412 -14 c 0,3,4
 262 -14 262 -14 155.5 87 c 128,-1,5
 49 188 49 188 49 336 c 0,6,7
 49 547 49 547 164 662 c 0,8,9
 270 771 270 771 449 770 c 0,10,11
 605 770 605 770 691.5 663.5 c 128,-1,12
 778 557 778 557 778 371 c 0,0,1
664 403 m 0,13,14
 664 518 664 518 604 606 c 0,15,16
 541 702 541 702 438 702 c 0,17,18
 315 702 315 702 244.5 615 c 128,-1,19
 174 528 174 528 174 377 c 0,20,21
 174 92 174 92 362 70 c 0,22,23
 382 68 382 68 401 68 c 0,24,25
 528 68 528 68 600 172 c 0,26,27
 664 266 664 266 664 403 c 0,13,14
EndSplineSet
EndChar

StartChar: one
Encoding: 49 49 17
Width: 714
Flags: W
LayerCount: 2
Fore
SplineSet
664 8 m 0,0,1
 664 -17 664 -17 635 -14 c 0,2,3
 424 0 424 0 369 0 c 0,4,5
 306 0 306 0 227 -14 c 0,6,7
 172 -24 172 -24 119 -35 c 0,8,9
 107 -33 107 -33 90 -14 c 1,10,11
 80 27 80 27 109 27 c 1,12,13
 148 41 148 41 299 55 c 1,14,-1
 299 668 l 1,15,16
 231 658 231 658 109 670 c 0,17,18
 84 670 84 670 84 709 c 0,19,20
 84 744 84 744 109 743 c 0,21,22
 273 723 273 723 328 723 c 0,23,24
 420 723 420 723 547 770 c 1,25,26
 576 770 576 770 582 745 c 0,27,28
 582 741 582 741 585 735 c 128,-1,29
 588 729 588 729 588 723 c 0,30,31
 559 698 559 698 526 692 c 0,32,33
 463 669 463 669 424 670 c 1,34,-1
 424 61 l 1,35,-1
 559 55 l 2,36,37
 608 47 608 47 653 35 c 0,38,39
 664 35 664 35 664 8 c 0,0,1
EndSplineSet
EndChar

StartChar: two
Encoding: 50 50 18
Width: 921
Flags: W
LayerCount: 2
Fore
SplineSet
858 49 m 0,0,1
 858 -14 858 -14 799 -14 c 2,2,-1
 145 -6 l 2,3,4
 143 -4 143 -4 137 0 c 128,-1,5
 131 4 131 4 131 8 c 0,6,7
 131 33 131 33 145 33 c 0,8,9
 327 107 327 107 416 178 c 0,10,11
 539 280 539 280 539 424 c 0,12,13
 539 518 539 518 475.5 594 c 128,-1,14
 412 670 412 670 319 670 c 0,15,16
 239 670 239 670 182 627 c 1,17,18
 147 615 147 615 141 635 c 0,19,20
 137 647 137 647 137 662 c 1,21,22
 233 748 233 748 381 743 c 0,23,24
 504 741 504 741 590 680 c 0,25,26
 684 614 684 614 684 510 c 0,27,28
 684 379 684 379 565 254 c 0,29,30
 512 197 512 197 354 82 c 1,31,32
 430 82 430 82 608 86 c 0,33,34
 727 88 727 88 827 102 c 0,35,36
 858 102 858 102 858 49 c 0,0,1
EndSplineSet
EndChar

StartChar: three
Encoding: 51 51 19
Width: 710
Flags: W
LayerCount: 2
Fore
SplineSet
653 -68 m 0,0,1
 653 -250 653 -250 475 -393 c 0,2,3
 311 -524 311 -524 143 -524 c 0,4,5
 125 -524 125 -524 97.5 -517 c 128,-1,6
 70 -510 70 -510 57 -510 c 0,7,8
 55 -506 55 -506 45 -494.5 c 128,-1,9
 35 -483 35 -483 35 -477 c 0,10,11
 35 -411 35 -411 43 -412 c 0,12,13
 61 -412 61 -412 99 -436.5 c 128,-1,14
 137 -461 137 -461 154 -461 c 0,15,16
 297 -461 297 -461 397 -383 c 0,17,18
 516 -289 516 -289 516 -117 c 0,19,20
 516 -8 516 -8 426 63 c 0,21,22
 340 129 340 129 231 123 c 1,23,24
 217 141 217 141 217 150 c 0,25,26
 217 173 217 173 231 172 c 0,27,28
 450 223 450 223 451 469 c 0,29,30
 451 551 451 551 395.5 610.5 c 128,-1,31
 340 670 340 670 260 670 c 0,32,33
 168 670 168 670 68 606 c 1,34,35
 48 606 48 606 41 610 c 0,36,37
 33 635 33 635 41 641 c 0,38,39
 129 737 129 737 328 737 c 0,40,41
 428 737 428 737 507 680 c 128,-1,42
 586 623 586 623 586 535 c 0,43,44
 586 437 586 437 522 348 c 0,45,46
 481 293 481 293 389 213 c 1,47,48
 516 150 516 150 569 102 c 0,49,50
 653 28 653 28 653 -68 c 0,0,1
EndSplineSet
EndChar

StartChar: four
Encoding: 52 52 20
Width: 970
Flags: W
LayerCount: 2
Fore
SplineSet
862 0 m 1,0,-1
 739 0 l 1,1,2
 739 -92 739 -92 732 -247.5 c 128,-1,3
 725 -403 725 -403 725 -459 c 1,4,5
 682 -471 682 -471 592 -518 c 1,6,7
 592 -446 592 -446 607.5 -271 c 128,-1,8
 623 -96 623 -96 623 0 c 1,9,-1
 150 0 l 2,10,11
 123 0 123 0 109 33 c 0,12,13
 105 41 105 41 106 61 c 256,14,15
 108 81 108 81 119 92 c 0,16,17
 168 139 168 139 385 387 c 128,-1,18
 602 635 602 635 664 692 c 0,19,20
 709 743 709 743 717 743 c 0,21,22
 740 743 740 743 739 696 c 2,23,-1
 739 82 l 1,24,-1
 862 82 l 1,25,-1
 862 0 l 1,0,-1
623 82 m 1,26,-1
 623 551 l 1,27,28
 547 471 547 471 193 82 c 1,29,-1
 623 82 l 1,26,-1
EndSplineSet
EndChar

StartChar: five
Encoding: 53 53 21
Width: 759
Flags: W
LayerCount: 2
Fore
SplineSet
711 -33 m 0,0,1
 711 -240 711 -240 596 -371 c 0,2,3
 473 -514 473 -514 258 -514 c 0,4,5
 98 -514 98 -514 18 -436 c 1,6,-1
 16 -362 l 1,7,8
 71 -362 71 -362 82 -367 c 0,9,10
 123 -392 123 -392 166 -416 c 128,-1,11
 209 -440 209 -440 258 -440 c 0,12,13
 391 -440 391 -440 496.5 -343 c 128,-1,14
 602 -246 602 -246 602 -109 c 0,15,16
 602 20 602 20 515 111.5 c 128,-1,17
 428 203 428 203 301 203 c 0,18,19
 205 203 205 203 150 190 c 0,20,21
 113 190 113 190 115 219 c 2,22,-1
 135 629 l 1,23,24
 227 635 227 635 397 670 c 0,25,26
 415 674 415 674 657 745 c 1,27,-1
 657 670 l 2,28,29
 653 660 653 660 635.5 643.5 c 128,-1,30
 618 627 618 627 602 627 c 2,31,-1
 178 512 l 1,32,-1
 164 266 l 1,33,34
 242 286 242 286 356 285 c 0,35,36
 510 283 510 283 610.5 186.5 c 128,-1,37
 711 90 711 90 711 -33 c 0,0,1
EndSplineSet
EndChar

StartChar: six
Encoding: 54 54 22
Width: 780
Flags: W
LayerCount: 2
Fore
SplineSet
715 387 m 0,0,1
 717 -14 717 -14 322 -14 c 0,2,3
 172 -14 172 -14 100 174 c 0,4,5
 53 297 53 297 53 428 c 0,6,7
 53 702 53 702 184 883 c 0,8,9
 321 1073 321 1073 575 1122 c 1,10,-1
 637 1112 l 1,11,-1
 616 1079 l 1,12,13
 434 1048 434 1048 317 907 c 0,14,15
 221 792 221 792 190 641 c 1,16,17
 303 698 303 698 379 700 c 0,18,19
 442 702 442 702 430 702 c 1,20,21
 555 702 555 702 635 611 c 128,-1,22
 715 520 715 520 715 387 c 0,0,1
612 276 m 0,23,24
 616 305 616 305 616 330 c 0,25,26
 616 463 616 463 528 545 c 0,27,28
 446 621 446 621 315 627 c 0,29,30
 237 631 237 631 172 569 c 1,31,32
 156 501 156 501 156 401 c 0,33,34
 156 290 156 290 201 199 c 0,35,36
 262 76 262 76 375 86 c 0,37,38
 463 94 463 94 532.5 149 c 128,-1,39
 602 204 602 204 612 276 c 0,23,24
EndSplineSet
EndChar

StartChar: seven
Encoding: 55 55 23
Width: 915
Flags: W
LayerCount: 2
Fore
SplineSet
864 737 m 1,0,1
 704 479 704 479 172 -178 c 1,2,-1
 137 -172 l 1,3,-1
 129 -98 l 1,4,5
 266 66 266 66 375 201 c 0,6,7
 637 525 637 525 713 649 c 1,8,-1
 346 651 l 2,9,10
 326 651 326 651 291 643 c 128,-1,11
 256 635 256 635 240.5 635 c 128,-1,12
 225 635 225 635 202.5 617.5 c 128,-1,13
 180 600 180 600 168 600 c 2,14,-1
 137 594 l 1,15,-1
 123 616 l 1,16,17
 123 632 123 632 130 656 c 128,-1,18
 137 680 137 680 137 693.5 c 128,-1,19
 137 707 137 707 156.5 722 c 128,-1,20
 176 737 176 737 193 737 c 2,21,-1
 682 737 l 2,22,23
 696 737 696 737 717.5 741 c 128,-1,24
 739 745 739 745 748.5 745 c 128,-1,25
 758 745 758 745 776.5 759.5 c 128,-1,26
 795 774 795 774 805 774 c 0,27,28
 864 776 864 776 864 737 c 1,0,1
EndSplineSet
EndChar

StartChar: eight
Encoding: 56 56 24
Width: 776
Flags: W
LayerCount: 2
Fore
SplineSet
750 272 m 0,0,1
 750 137 750 137 616 59 c 0,2,3
 505 -4 505 -4 360 -4 c 0,4,5
 227 -4 227 -4 139 59 c 0,6,7
 41 131 41 131 41 258 c 0,8,9
 41 356 41 356 129 455 c 0,10,11
 205 541 205 541 305 586 c 1,12,13
 201 660 201 660 170 698 c 0,14,15
 113 766 113 766 113 862 c 0,16,17
 113 968 113 968 205 1020 c 0,18,19
 279 1059 279 1059 393 1059 c 0,20,21
 686 1059 686 1059 686 877 c 0,22,23
 686 797 686 797 610 711 c 0,24,25
 544 633 544 633 467 594 c 1,26,27
 563 547 563 547 647 463 c 0,28,29
 750 360 750 360 750 272 c 0,0,1
387 1016 m 0,30,31
 188 1016 188 1016 188 881 c 0,32,33
 188 758 188 758 406 629 c 1,34,35
 584 729 584 729 584 848 c 0,36,37
 584 918 584 918 521.5 967 c 128,-1,38
 459 1016 459 1016 387 1016 c 0,30,31
362 539 m 1,39,40
 137 437 137 437 137 289 c 0,41,42
 137 193 137 193 202.5 131.5 c 128,-1,43
 268 70 268 70 369 70 c 0,44,45
 617 70 617 70 616 254 c 0,46,47
 616 338 616 338 524 420 c 0,48,49
 495 449 495 449 362 539 c 1,39,40
EndSplineSet
EndChar

StartChar: nine
Encoding: 57 57 25
Width: 841
Flags: W
LayerCount: 2
Fore
SplineSet
756 219 m 0,0,1
 756 -60 756 -60 596 -299 c 0,2,3
 432 -545 432 -545 231 -545 c 0,4,5
 217 -545 217 -545 192.5 -543 c 128,-1,6
 168 -541 168 -541 156 -541 c 0,7,8
 123 -527 123 -527 98 -473 c 0,9,10
 98 -459 98 -459 106.5 -454 c 128,-1,11
 115 -449 115 -449 121 -449 c 0,12,13
 213 -474 213 -474 281 -469 c 0,14,15
 441 -461 441 -461 549 -248 c 0,16,17
 649 -49 649 -49 649 197 c 1,18,19
 620 131 620 131 543 78 c 0,20,21
 457 21 457 21 369 20 c 0,22,23
 217 20 217 20 139 131 c 0,24,25
 73 227 73 227 74 377 c 0,26,27
 74 533 74 533 164 647 c 0,28,29
 260 770 260 770 403 770 c 0,30,31
 553 770 553 770 654.5 614.5 c 128,-1,32
 756 459 756 459 756 219 c 0,0,1
643 250 m 0,33,34
 623 424 623 424 543 547 c 0,35,36
 451 688 451 688 322 688 c 0,37,38
 242 688 242 688 199 594 c 0,39,40
 162 514 162 514 162 408 c 0,41,42
 162 297 162 297 252 201 c 0,43,44
 336 109 336 109 422 109 c 0,45,46
 490 109 490 109 571 166 c 0,47,48
 647 219 647 219 643 250 c 0,33,34
EndSplineSet
EndChar

StartChar: colon
Encoding: 58 58 26
Width: 679
Flags: W
LayerCount: 2
Fore
SplineSet
502 621 m 256,0,1
 502 611 502 611 469 598 c 0,2,3
 428 584 428 584 417 577.5 c 128,-1,4
 406 571 406 571 389.5 536.5 c 128,-1,5
 373 502 373 502 360 502 c 0,6,7
 350 502 350 502 336 532 c 0,8,9
 318 571 318 571 313.5 576.5 c 128,-1,10
 309 582 309 582 272.5 598 c 128,-1,11
 236 614 236 614 236 627 c 0,12,13
 236 637 236 637 273.5 651.5 c 128,-1,14
 311 666 311 666 319 676 c 0,15,16
 329 699 329 699 341.5 724.5 c 128,-1,17
 354 750 354 750 365 750 c 0,18,19
 377 750 377 750 393 719 c 0,20,21
 416 680 416 680 421 675 c 128,-1,22
 426 670 426 670 467 647 c 0,23,24
 502 631 502 631 502 621 c 256,0,1
498 80 m 0,25,26
 498 70 498 70 459 50.5 c 128,-1,27
 420 31 420 31 407.5 19.5 c 128,-1,28
 395 8 395 8 375.5 -27.5 c 128,-1,29
 356 -63 356 -63 346 -63 c 0,30,31
 334 -63 334 -63 320.5 -35.5 c 128,-1,32
 307 -8 307 -8 293 16 c 0,33,34
 287 24 287 24 253 42.5 c 128,-1,35
 219 61 219 61 219 74 c 0,36,37
 219 84 219 84 254 102.5 c 128,-1,38
 289 121 289 121 295 128 c 128,-1,39
 301 135 301 135 322 178 c 0,40,41
 338 209 338 209 350 209 c 0,42,43
 364 209 364 209 381 176 c 0,44,45
 401 135 401 135 408 131 c 0,46,47
 420 121 420 121 463 106 c 0,48,49
 498 94 498 94 498 80 c 0,25,26
EndSplineSet
EndChar

StartChar: semicolon
Encoding: 59 59 27
Width: 630
Flags: W
LayerCount: 2
Fore
SplineSet
479 653 m 256,0,1
 479 639 479 639 453 621 c 0,2,3
 420 601 420 601 412 590 c 0,4,5
 410 588 410 588 383 537 c 0,6,7
 367 504 367 504 346 504 c 0,8,9
 330 504 330 504 317 535 c 0,10,11
 301 576 301 576 294 585 c 128,-1,12
 287 594 287 594 249 613.5 c 128,-1,13
 211 633 211 633 211 651 c 0,14,15
 211 663 211 663 242 676 c 0,16,17
 283 690 283 690 293 700.5 c 128,-1,18
 303 711 303 711 319 752 c 0,19,20
 333 783 333 783 352 782 c 0,21,22
 372 782 372 782 380.5 745.5 c 128,-1,23
 389 709 389 709 395 703.5 c 128,-1,24
 401 698 401 698 446 682 c 0,25,26
 479 667 479 667 479 653 c 256,0,1
477 131 m 1,27,28
 487 143 487 143 494 123 c 0,29,30
 498 103 498 103 483 92 c 0,31,32
 432 55 432 55 418 -49 c 0,33,34
 402 -176 402 -176 375 -217 c 0,35,36
 293 -354 293 -354 180 -403 c 0,37,38
 170 -401 170 -401 161 -396 c 128,-1,39
 152 -391 152 -391 154 -381 c 0,40,41
 154 -369 154 -369 162 -365 c 0,42,43
 236 -295 236 -295 262 -258 c 0,44,45
 307 -197 307 -197 313 -125 c 0,46,47
 321 -12 321 -12 274 55 c 0,48,49
 266 65 266 65 231 78 c 0,50,51
 204 88 204 88 205 106 c 0,52,53
 207 124 207 124 234.5 130.5 c 128,-1,54
 262 137 262 137 291 143 c 0,55,56
 301 147 301 147 320.5 184 c 128,-1,57
 340 221 340 221 356 221 c 0,58,59
 368 219 368 219 385 193 c 0,60,61
 408 156 408 156 416 147 c 0,62,63
 434 137 434 137 477 131 c 1,27,28
EndSplineSet
EndChar

StartChar: less
Encoding: 60 60 28
Width: 688
Flags: W
LayerCount: 2
Fore
SplineSet
526 1133 m 256,0,1
 526 1127 526 1127 499.5 1107 c 128,-1,2
 473 1087 473 1087 467 1073 c 0,3,4
 465 1067 465 1067 457 938 c 0,5,6
 451 825 451 825 428 825 c 0,7,8
 410 825 410 825 399 938 c 0,9,10
 387 1065 387 1065 385 1071 c 0,11,12
 377 1083 377 1083 350.5 1101.5 c 128,-1,13
 324 1120 324 1120 324 1126 c 256,14,15
 324 1132 324 1132 349.5 1148.5 c 128,-1,16
 375 1165 375 1165 387 1180 c 0,17,18
 393 1188 393 1188 403 1229 c 0,19,20
 411 1258 411 1258 424 1257 c 0,21,22
 434 1257 434 1257 444 1225 c 0,23,24
 454 1186 454 1186 462.5 1180 c 128,-1,25
 471 1174 471 1174 504 1153 c 0,26,27
 526 1139 526 1139 526 1133 c 256,0,1
276 1133 m 256,28,29
 276 1127 276 1127 250.5 1108.5 c 128,-1,30
 225 1090 225 1090 217 1073 c 0,31,32
 215 1069 215 1069 205 936 c 0,33,34
 197 819 197 819 172 819 c 0,35,36
 154 819 154 819 147 936 c 0,37,38
 139 1063 139 1063 133 1073 c 128,-1,39
 127 1083 127 1083 101.5 1101.5 c 128,-1,40
 76 1120 76 1120 76 1126 c 0,41,42
 76 1130 76 1130 100.5 1147.5 c 128,-1,43
 125 1165 125 1165 135 1177.5 c 128,-1,44
 145 1190 145 1190 156 1227 c 0,45,46
 164 1258 164 1258 176 1257 c 0,47,48
 186 1257 186 1257 197 1225 c 0,49,50
 207 1186 207 1186 214 1180 c 128,-1,51
 221 1174 221 1174 254 1153 c 0,52,53
 276 1139 276 1139 276 1133 c 256,28,29
EndSplineSet
EndChar

StartChar: equal
Encoding: 61 61 29
Width: 823
Flags: W
LayerCount: 2
Fore
SplineSet
659 440 m 1,0,-1
 109 440 l 1,1,-1
 109 522 l 1,2,3
 316 524 316 524 659 522 c 1,4,-1
 659 440 l 1,0,-1
659 233 m 1,5,-1
 109 233 l 1,6,-1
 109 313 l 1,7,8
 275 317 275 317 659 313 c 1,9,-1
 659 233 l 1,5,-1
EndSplineSet
EndChar

StartChar: greater
Encoding: 62 62 30
Width: 397
Flags: W
LayerCount: 2
Fore
SplineSet
281 1133 m 256,0,1
 281 1127 281 1127 254 1107 c 128,-1,2
 227 1087 227 1087 221 1073 c 0,3,4
 219 1067 219 1067 211 950 c 0,5,6
 203 850 203 850 180 850 c 0,7,8
 162 850 162 850 152 950 c 0,9,10
 142 1065 142 1065 139 1071 c 0,11,12
 131 1083 131 1083 104.5 1101.5 c 128,-1,13
 78 1120 78 1120 78 1126 c 256,14,15
 78 1132 78 1132 103.5 1148.5 c 128,-1,16
 129 1165 129 1165 141 1180 c 0,17,18
 147 1188 147 1188 158 1229 c 0,19,20
 166 1258 166 1258 178 1257 c 0,21,22
 188 1257 188 1257 199 1225 c 0,23,24
 209 1186 209 1186 217 1180 c 128,-1,25
 225 1174 225 1174 258 1153 c 0,26,27
 281 1139 281 1139 281 1133 c 256,0,1
EndSplineSet
EndChar

StartChar: question
Encoding: 63 63 31
Width: 813
Flags: W
LayerCount: 2
Fore
SplineSet
678 909 m 0,0,1
 678 805 678 805 571 674 c 0,2,3
 483 563 483 563 354 469 c 1,4,5
 385 416 385 416 459 305 c 1,6,7
 398 276 398 276 346 236 c 1,8,9
 319 295 319 295 225 438 c 1,10,11
 418 588 418 588 451 625 c 0,12,13
 545 727 545 727 545 860 c 0,14,15
 545 934 545 934 483.5 992.5 c 128,-1,16
 422 1051 422 1051 342 1051 c 0,17,18
 250 1051 250 1051 195 1018 c 1,19,20
 175 1018 175 1018 174 1038 c 0,21,22
 174 1044 174 1044 176 1054.5 c 128,-1,23
 178 1065 178 1065 178 1069 c 0,24,25
 295 1132 295 1132 393 1133 c 0,26,27
 506 1133 506 1133 592 1068 c 128,-1,28
 678 1003 678 1003 678 909 c 0,0,1
465 -12 m 0,29,30
 442 -26 442 -26 437 -30.5 c 128,-1,31
 432 -35 432 -35 424 -55 c 0,32,33
 397 -125 397 -125 371 -125 c 0,34,35
 353 -125 353 -125 336 -85 c 128,-1,36
 319 -45 319 -45 318 -45 c 128,-1,37
 317 -45 317 -45 270 -20 c 0,38,39
 235 -2 235 -2 236 14 c 256,40,41
 236 30 236 30 270 49 c 0,42,43
 290 59 290 59 309 70 c 0,44,45
 311 72 311 72 334 113 c 0,46,47
 350 144 350 144 367 143 c 0,48,49
 385 143 385 143 405.5 109.5 c 128,-1,50
 426 76 426 76 427 75 c 128,-1,51
 428 74 428 74 469 55 c 0,52,53
 500 45 500 45 500 27 c 256,54,55
 500 8 500 8 465 -12 c 0,29,30
EndSplineSet
EndChar

StartChar: at
Encoding: 64 64 32
Width: 942
Flags: W
LayerCount: 2
Fore
SplineSet
623 313 m 0,0,1
 566 313 566 313 524 381 c 1,2,3
 491 330 491 330 430 330 c 0,4,5
 297 330 297 330 297 475 c 0,6,7
 297 569 297 569 342 645 c 0,8,9
 395 733 395 733 485 741 c 0,10,11
 526 743 526 743 604 694 c 1,12,13
 588 563 588 563 588 424 c 2,14,-1
 588 397 l 1,15,-1
 625 383 l 1,16,17
 770 403 770 403 770 584 c 0,18,19
 770 690 770 690 688 767 c 128,-1,20
 606 844 606 844 496 844 c 0,21,22
 355 844 355 844 266.5 742.5 c 128,-1,23
 178 641 178 641 178 498 c 0,24,25
 178 357 178 357 269 263.5 c 128,-1,26
 360 170 360 170 500 170 c 0,27,28
 676 170 676 170 809 281 c 1,29,-1
 809 184 l 1,30,31
 707 84 707 84 496 84 c 0,32,33
 287 84 287 84 176.5 205 c 128,-1,34
 66 326 66 326 66 535 c 0,35,36
 66 703 66 703 197 819 c 0,37,38
 322 932 322 932 492 932 c 0,39,40
 652 932 652 932 758 846 c 0,41,42
 871 754 871 754 870 596 c 0,43,44
 871 313 871 313 623 313 c 0,0,1
508 686 m 0,45,46
 445 686 445 686 406 610 c 0,47,48
 375 547 375 547 375 477 c 0,49,50
 375 399 375 399 438 399 c 0,51,52
 497 399 497 399 518 512 c 0,53,54
 520 522 520 522 532 672 c 1,55,56
 518 686 518 686 508 686 c 0,45,46
EndSplineSet
EndChar

StartChar: A
Encoding: 65 65 33
Width: 1384
Flags: W
HStem: 0 254<1077.5 1254.5> 25 210<203.186 425.636>
VStem: 541 138<1040.57 1244>
LayerCount: 2
Fore
SplineSet
541 1420 m 1,0,1
 502 1420 502 1420 431 1362 c 1,2,3
 456 1423 456 1423 544.5 1530.5 c 0
 633 1638 633 1638 674 1638 c 0,4,5
 731 1638 731 1638 774 1590.5 c 0
 817 1543 817 1543 846.5 1457 c 0
 876 1371 876 1371 900 1263.5 c 0
 924 1156 924 1156 952 1024 c 0
 980 892 980 892 1011.5 764.5 c 0
 1043 637 1043 637 1094.5 499.5 c 0
 1146 362 1146 362 1211 255 c 1,6,7
 1217 254 1217 254 1227 254 c 0,8,9
 1252 254 1252 254 1273 264.5 c 0
 1294 275 1294 275 1325.5 301.5 c 0
 1357 328 1357 328 1364 333 c 1,10,11
 1336 250 1336 250 1239.5 125 c 0
 1143 0 1143 0 1103 0 c 0,12,13
 1067 0 1067 0 1052 13 c 0
 1037 26 1037 26 995 87 c 1,14,15
 902 310 902 310 808.5 653 c 0
 715 996 715 996 679 1244 c 1,16,17
 679 1077 679 1077 548.5 799.5 c 0
 418 522 418 522 199 244 c 1,18,19
 218 235 218 235 259 235 c 0,20,21
 290 235 290 235 362.5 243.5 c 0
 435 252 435 252 466 252 c 0,22,23
 531 252 531 252 547 224 c 1,24,-1
 427 0 l 1,25,26
 389 25 389 25 321 25 c 0,27,28
 287 25 287 25 178.5 12.5 c 0
 70 0 70 0 -5 0 c 1,29,30
 -5 57 -5 57 18.5 117 c 0
 42 177 42 177 80.5 230 c 0
 119 283 119 283 168 350.5 c 0
 217 418 217 418 268 487.5 c 0
 319 557 319 557 368 653.5 c 0
 417 750 417 750 455.5 856.5 c 0
 494 963 494 963 517.5 1109 c 0
 541 1255 541 1255 541 1420 c 1,0,1
EndSplineSet
Validated: 1
EndChar

StartChar: B
Encoding: 66 66 34
Width: 1313
Flags: W
HStem: 0 188<508.952 828.677> 1506 198<552.265 791.812>
VStem: 327 123<1052.91 1447> 341 164<468.601 804.415 873 1308.56> 765 192<1280.5 1575> 1095 195<411.167 677.035>
LayerCount: 2
Fore
SplineSet
510 774 m 1,0,1
 510 677 510 677 507.5 493.5 c 0
 505 310 505 310 505 209 c 1,2,3
 551 209 551 209 644 198.5 c 0
 737 188 737 188 787 188 c 0,4,5
 912 188 912 188 1029 240 c 1,6,7
 1095 376 1095 376 1095 495 c 0,8,9
 1095 546 1095 546 1082 593.5 c 0
 1069 641 1069 641 1050 679 c 0
 1031 717 1031 717 998 756.5 c 0
 965 796 965 796 936 823.5 c 0
 907 851 907 851 862 884.5 c 0
 817 918 817 918 786.5 938.5 c 0
 756 959 756 959 709 989 c 1,10,11
 693 971 693 971 652 920.5 c 0
 611 870 611 870 577 833.5 c 0
 543 797 543 797 510 774 c 1,0,1
438 1596 m 1,12,13
 521 1647 521 1647 586.5 1675.5 c 0
 652 1704 652 1704 711 1704 c 0,14,15
 823 1704 823 1704 890 1652 c 0
 957 1600 957 1600 957 1536 c 0,16,17
 957 1400 957 1400 830 1225 c 1,18,19
 916 1191 916 1191 995.5 1134 c 0
 1075 1077 1075 1077 1142 1000 c 0
 1209 923 1209 923 1249.5 820 c 0
 1290 717 1290 717 1290 606 c 0,20,21
 1290 485 1290 485 1224 370.5 c 0
 1158 256 1158 256 1058 176.5 c 0
 958 97 958 97 839.5 48.5 c 0
 721 0 721 0 615 0 c 0,22,23
 555 0 555 0 447 9.5 c 0
 339 19 339 19 284 19 c 0,24,25
 167 19 167 19 60 -12 c 1,26,-1
 195 162 l 1,27,28
 249 188 249 188 293 200 c 1,29,30
 341 544 341 544 341 962 c 0,31,32
 341 1036 341 1036 334 1201.5 c 0
 327 1367 327 1367 327 1447 c 1,33,34
 183 1391 183 1391 112 1328 c 1,35,36
 131 1357 131 1357 161 1383.5 c 0
 191 1410 191 1410 249.5 1453.5 c 0
 308 1497 308 1497 330 1515 c 1,37,-1
 330 1581 l 1,38,-1
 459 1709 l 1,39,-1
 438 1596 l 1,12,13
450 1479 m 1,40,41
 450 1378 450 1378 478.5 1176 c 0
 507 974 507 974 507 873 c 1,42,43
 524 897 524 897 570 961 c 0
 616 1025 616 1025 633.5 1050 c 0
 651 1075 651 1075 683.5 1126.5 c 0
 716 1178 716 1178 729 1208 c 0
 742 1238 742 1238 753.5 1277 c 0
 765 1316 765 1316 765 1350 c 0,44,45
 765 1417 765 1417 714 1461.5 c 0
 663 1506 663 1506 591 1506 c 0,46,47
 558 1505 558 1505 511.5 1493 c 0
 465 1481 465 1481 450 1479 c 1,40,41
EndSplineSet
Validated: 1
EndChar

StartChar: C
Encoding: 67 67 35
Width: 1246
Flags: W
HStem: 0 189<415.859 749.189> 1479 168<680.805 849.349>
VStem: 85 198<515.098 863.698>
LayerCount: 2
Fore
SplineSet
976 1149 m 17,0,1
 972 1479 972 1479 670 1479 c 0,2,3
 581 1479 581 1479 505.5 1412 c 0
 430 1345 430 1345 382.5 1239 c 0
 335 1133 335 1133 309 1008.5 c 0
 283 884 283 884 283 762 c 0,4,5
 283 676 283 676 302.5 592.5 c 0
 322 509 322 509 361.5 436.5 c 0
 401 364 401 364 455 308.5 c 0
 509 253 509 253 582.5 221 c 0
 656 189 656 189 739 189 c 0,6,7
 801 189 801 189 852.5 205 c 0
 904 221 904 221 950 256.5 c 0
 996 292 996 292 1030 328 c 0
 1064 364 1064 364 1114 426 c 1,8,-1
 1171 462 l 1,9,10
 1138 387 1138 387 1073.5 306 c 0
 1009 225 1009 225 928.5 156.5 c 0
 848 88 848 88 750.5 44 c 0
 653 0 653 0 565 0 c 0,11,12
 480 0 480 0 403.5 31 c 0
 327 62 327 62 270 117 c 0
 213 172 213 172 170.5 243.5 c 0
 128 315 128 315 106.5 399 c 0
 85 483 85 483 85 570 c 0,13,14
 85 694 85 694 118 826.5 c 0
 151 959 151 959 206.5 1076.5 c 0
 262 1194 262 1194 338 1299.5 c 0
 414 1405 414 1405 496.5 1481.5 c 0
 579 1558 579 1558 670 1602.5 c 0
 761 1647 761 1647 843 1647 c 2,15,16
 856 1647 l 2,17,18
 910 1646 910 1646 949.5 1640 c 0
 989 1634 989 1634 1029.5 1615.5 c 0
 1070 1597 1070 1597 1096 1565.5 c 0
 1122 1534 1122 1534 1139 1481.5 c 0
 1156 1429 1156 1429 1159 1356 c 1,19,-1
 976 1149 l 17,0,1
EndSplineSet
Validated: 1
EndChar

StartChar: D
Encoding: 68 68 36
Width: 1403
Flags: W
HStem: -19 193<499.474 804.782> 1460 160<443.285 698.767>
VStem: 331 109<1028.72 1428> 1126 195<534.057 974.243>
LayerCount: 2
Fore
SplineSet
554 -19 m 0,0,1
 494 -19 494 -19 411.5 -9.5 c 0
 329 0 329 0 274 0 c 0,2,3
 157 0 157 0 50 -31 c 1,4,-1
 185 143 l 1,5,6
 239 169 239 169 283 181 c 1,7,8
 331 525 331 525 331 943 c 0,9,10
 331 1017 331 1017 324 1182.5 c 0
 317 1348 317 1348 317 1428 c 1,11,12
 173 1372 173 1372 102 1309 c 1,13,14
 121 1338 121 1338 151 1364.5 c 0
 181 1391 181 1391 239.5 1434.5 c 0
 298 1478 298 1478 320 1496 c 1,15,-1
 320 1562 l 1,16,-1
 449 1690 l 1,17,-1
 428 1577 l 1,18,19
 480 1597 480 1597 580 1608.5 c 0
 680 1620 680 1620 757 1620 c 0,20,21
 833 1620 833 1620 914.5 1574.5 c 0
 996 1529 996 1529 1067.5 1447.5 c 0
 1139 1366 1139 1366 1196.5 1261.5 c 0
 1254 1157 1254 1157 1287.5 1028 c 0
 1321 899 1321 899 1321 771 c 0,22,23
 1321 712 1321 712 1307 643 c 0
 1293 574 1293 574 1263 497.5 c 0
 1233 421 1233 421 1189.5 348 c 0
 1146 275 1146 275 1082 208 c 0
 1018 141 1018 141 942 91 c 0
 866 41 866 41 766 11 c 0
 666 -19 666 -19 554 -19 c 0,0,1
440 1460 m 1,24,25
 440 1359 440 1359 468 834.5 c 0
 496 310 496 310 496 210 c 1,26,27
 591 174 591 174 730 174 c 0,28,29
 775 174 775 174 856 178.5 c 0
 937 183 937 183 970 183 c 1,30,31
 1031 257 1031 257 1078.5 379 c 0
 1126 501 1126 501 1126 624 c 0,32,33
 1126 807 1126 807 1085.5 956.5 c 0
 1045 1106 1045 1106 963.5 1220 c 0
 882 1334 882 1334 748.5 1397 c 0
 615 1460 615 1460 440 1460 c 1,24,25
EndSplineSet
Validated: 1
EndChar

StartChar: E
Encoding: 69 69 37
Width: 1208
Flags: W
HStem: 5 169<497.087 990.612> 790 167<472.594 750.699> 1410 170<557.504 942.221> 1468 174<446 647.885>
VStem: 317 153<336.304 815 982.967 1453.16> 334 112<1004.99 1454>
LayerCount: 2
Fore
SplineSet
444 1642 m 1,0,1
 496 1642 496 1642 602 1611 c 0
 708 1580 708 1580 788 1580 c 0,2,3
 909 1580 909 1580 1063 1635 c 1,4,-1
 943 1449 l 1,5,6
 857 1410 857 1410 772 1410 c 0,7,8
 710 1410 710 1410 604.5 1438.5 c 0
 499 1467 499 1467 446 1468 c 1,9,10
 452 1170 452 1170 460 996 c 1,11,12
 488 992 488 992 536 974.5 c 0
 584 957 584 957 629 957 c 0,13,14
 709 957 709 957 868 1001 c 1,15,-1
 748 815 l 1,16,17
 645 790 645 790 597 790 c 0,18,19
 568 790 568 790 529.5 801 c 0
 491 812 491 812 470 815 c 1,20,21
 495 257 495 257 495 213 c 1,22,23
 522 209 522 209 576 198.5 c 0
 630 188 630 188 681.5 181 c 0
 733 174 733 174 786 174 c 0,24,25
 938 174 938 174 1114 237 c 1,26,-1
 994 51 l 1,27,28
 894 5 894 5 774 5 c 0,29,30
 706 5 706 5 591 23.5 c 0
 476 42 476 42 431 43 c 0,31,32
 365 43 365 43 320.5 37.5 c 0
 276 32 276 32 255.5 26.5 c 0
 235 21 235 21 179 -0.5 c 0
 123 -22 123 -22 85 -35 c 1,33,-1
 191 153 l 1,34,35
 221 176 221 176 284 195 c 1,36,37
 288 222 288 222 291.5 255 c 0
 295 288 295 288 297.5 332 c 0
 300 376 300 376 302 411.5 c 0
 304 447 304 447 306.5 507.5 c 0
 309 568 309 568 310 604 c 0
 311 640 311 640 313.5 714.5 c 0
 316 789 316 789 317 826 c 1,38,39
 287 826 287 826 259 813 c 0
 231 800 231 800 168 757 c 1,40,41
 231 886 231 886 274 945 c 1,42,43
 312 973 312 973 329 981 c 1,44,45
 334 1186 334 1186 334 1343 c 2,46,47
 334 1419 l 1,48,49
 334 1454 l 1,50,51
 309 1449 309 1449 283.5 1440.5 c 0
 258 1432 258 1432 212 1415 c 0
 166 1398 166 1398 133 1387 c 1,52,-1
 239 1575 l 1,53,54
 272 1601 272 1601 327 1611 c 1,55,-1
 325 1620 l 1,56,-1
 454 1748 l 1,57,58
 446 1701 446 1701 444 1642 c 1,0,1
EndSplineSet
Validated: 1
EndChar

StartChar: F
Encoding: 70 70 38
Width: 1068
Flags: W
HStem: -68 171<433 605.5> 1218 150<743.242 888.872> 1294 146<513.949 670.084> 1723 182<469.491 950.613> 1766 192<401 692.723>
VStem: 326 131<1268.17 1290.78 1348 1645.37> 337 64<1479.97 1766> 357 14<2009.51 2057.39>
LayerCount: 2
Fore
SplineSet
724 158 m 1,0,1
 643 44 643 44 574 -31 c 1,2,3
 547 -68 547 -68 470 -68 c 0,4,5
 418 -68 418 -68 360.5 -52.5 c 0
 303 -37 303 -37 274 -19 c 0,6,7
 258 -9 258 -9 237.5 5.5 c 0
 217 20 217 20 206.5 27 c 0
 196 34 196 34 183 39.5 c 0
 170 45 170 45 158 45 c 0,8,9
 152 44 152 44 143 43 c 0
 134 42 134 42 132.5 42 c 0
 131 42 131 42 124 40 c 0
 117 38 117 38 116 37.5 c 0
 115 37 115 37 106.5 31.5 c 0
 98 26 98 26 93 22 c 0
 88 18 88 18 73.5 7.5 c 0
 59 -3 59 -3 47 -12 c 1,10,-1
 247 206 l 2,11,12
 253 212 253 212 289 212 c 1,13,14
 297 270 297 270 304 452.5 c 0
 311 635 311 635 317.5 899 c 0
 324 1163 324 1163 326 1233 c 1,15,16
 309 1233 309 1233 292.5 1222.5 c 0
 276 1212 276 1212 243 1184.5 c 0
 210 1157 210 1157 179 1136 c 1,17,18
 210 1180 210 1180 247 1244 c 1,19,20
 312 1291 312 1291 334 1302 c 1,21,22
 337 1425 337 1425 337 1655 c 2,23,24
 337 1731 l 1,25,26
 337 1766 l 1,27,28
 312 1761 312 1761 286.5 1752.5 c 0
 261 1744 261 1744 215 1727 c 0
 169 1710 169 1710 136 1699 c 1,29,-1
 263 1900 l 2,30,31
 266 1903 266 1903 273 1908.5 c 0
 280 1914 280 1914 282.5 1916 c 0
 285 1918 285 1918 291 1921.5 c 0
 297 1925 297 1925 301 1926.5 c 0
 305 1928 305 1928 311.5 1930.5 c 0
 318 1933 318 1933 326 1934 c 1,32,-1
 323 1943 l 1,33,-1
 357 2058 l 1,34,35
 358 2055 358 2055 360 2032 c 0
 362 2009 362 2009 365 1987 c 0
 368 1965 368 1965 371 1958 c 1,36,37
 423 1958 423 1958 577.5 1931.5 c 0
 732 1905 732 1905 812 1905 c 2,38,39
 820 1905 l 2,40,41
 850 1905 850 1905 917 1919 c 0
 984 1933 984 1933 1034 1946 c 0
 1084 1959 1084 1959 1087 1960 c 1,42,-1
 967 1774 l 1,43,44
 926 1756 926 1756 905.5 1747 c 0
 885 1738 885 1738 856 1730.5 c 0
 827 1723 827 1723 803 1723 c 0,45,46
 740 1723 740 1723 596.5 1744 c 0
 453 1765 453 1765 401 1766 c 1,47,48
 402 1721 402 1721 420 1586 c 0
 438 1451 438 1451 443 1348 c 1,49,50
 456 1357 456 1357 481 1374.5 c 0
 506 1392 506 1392 515.5 1398 c 0
 525 1404 525 1404 544.5 1415 c 0
 564 1426 564 1426 578 1429.5 c 0
 592 1433 592 1433 612.5 1436.5 c 0
 633 1440 633 1440 657 1440 c 0,51,52
 702 1434 702 1434 764.5 1401 c 0
 827 1368 827 1368 873 1368 c 0,53,54
 901 1368 901 1368 922.5 1379 c 0
 944 1390 944 1390 970 1410 c 0
 996 1430 996 1430 1015 1440 c 1,55,-1
 913 1276 l 2,56,57
 910 1274 910 1274 897 1267 c 0
 884 1260 884 1260 881 1258.5 c 0
 878 1257 878 1257 866.5 1250.5 c 0
 855 1244 855 1244 851 1242.5 c 0
 847 1241 847 1241 837 1236 c 0
 827 1231 827 1231 821.5 1229.5 c 0
 816 1228 816 1228 807.5 1225 c 0
 799 1222 799 1222 792.5 1221 c 0
 786 1220 786 1220 778 1219 c 0
 770 1218 770 1218 763 1218 c 0,58,59
 717 1218 717 1218 671 1250 c 0,60,61
 655 1261 655 1261 613 1277.5 c 0
 571 1294 571 1294 531 1294 c 0,62,63
 484 1294 484 1294 457 1268 c 1,64,-1
 492 149 l 1,65,66
 513 128 513 128 541 115.5 c 0
 569 103 569 103 586 103 c 0,67,68
 645 103 645 103 724 158 c 1,0,1
EndSplineSet
Validated: 1
EndChar

StartChar: G
Encoding: 71 71 39
Width: 1429
Flags: W
HStem: 0 189<487 817.871> 714 202<866.605 1063.56> 1479 168<657.116 846.186>
VStem: 81 198<424.5 883.358> 1247 170<330 714>
LayerCount: 2
Fore
SplineSet
1247 436 m 0,0,1
 1247 505 1247 505 1193.5 570 c 0
 1140 635 1140 635 1055.5 674.5 c 0
 971 714 971 714 883 714 c 0,2,3
 839 714 839 714 805.5 694.5 c 0
 772 675 772 675 733.5 640 c 0
 695 605 695 605 665 588 c 1,4,-1
 849 866 l 1,5,6
 873 873 873 873 907 887 c 0
 941 901 941 901 968.5 908.5 c 0
 996 916 996 916 1029 916 c 0,7,8
 1103 916 1103 916 1171.5 896.5 c 0
 1240 877 1240 877 1295.5 840.5 c 0
 1351 804 1351 804 1384 745 c 0
 1417 686 1417 686 1417 614 c 0,9,10
 1417 508 1417 508 1356.5 409 c 0
 1296 310 1296 310 1200.5 237.5 c 0
 1105 165 1105 165 990.5 110 c 0
 876 55 876 55 763.5 27.5 c 0
 651 0 651 0 561 0 c 0,11,12
 517 0 517 0 454.5 30.5 c 0
 392 61 392 61 327.5 117.5 c 0
 263 174 263 174 207.5 243.5 c 0
 152 313 152 313 116.5 400 c 0
 81 487 81 487 81 570 c 0,13,14
 81 720 81 720 121 877 c 0
 161 1034 161 1034 234 1170 c 0
 307 1306 307 1306 400.5 1414 c 0
 494 1522 494 1522 608.5 1584.5 c 0
 723 1647 723 1647 839 1647 c 2,15,16
 852 1647 l 2,17,18
 920 1647 920 1647 969 1636 c 0
 1018 1625 1018 1625 1063 1595.5 c 0
 1108 1566 1108 1566 1131.5 1506 c 0
 1155 1446 1155 1446 1155 1356 c 1,19,-1
 972 1149 l 1,20,21
 972 1479 972 1479 666 1479 c 0,22,23
 577 1479 577 1479 501.5 1412 c 0
 426 1345 426 1345 378.5 1239 c 0
 331 1133 331 1133 305 1008.5 c 0
 279 884 279 884 279 762 c 0,24,25
 279 661 279 661 333 553 c 0
 387 445 387 445 461.5 367.5 c 0
 536 290 536 290 612 239.5 c 0
 688 189 688 189 735 189 c 0,26,27
 784 189 784 189 833.5 193 c 0
 883 197 883 197 943.5 206 c 0
 1004 215 1004 215 1056 233.5 c 0
 1108 252 1108 252 1152 277.5 c 0
 1196 303 1196 303 1221.5 344 c 0
 1247 385 1247 385 1247 436 c 0,0,1
EndSplineSet
Validated: 1
EndChar

StartChar: H
Encoding: 72 72 40
Width: 1801
Flags: W
HStem: -20 202<1270 1541.5> 933 217<814.943 1201> 956 205<525 730.898> 984 204<529.262 1111.74>
VStem: 293 223<279 786.024> 350 166<446.235 912> 379 147<1164.1 1502.07> 1190 187<262.872 933>
LayerCount: 2
Fore
SplineSet
518 212 m 1,0,1
 524 209 524 209 538 202 c 0
 552 195 552 195 559.5 191.5 c 0
 567 188 567 188 578.5 184 c 0
 590 180 590 180 601 178 c 0
 612 176 612 176 624 176 c 0,2,3
 681 176 681 176 754 214 c 1,4,-1
 550 -44 l 1,5,6
 442 -43 442 -43 358 0 c 0,7,8
 348 5 348 5 281 46 c 0,9,10
 224 80 224 80 185 80 c 0,11,12
 134 80 134 80 64 31 c 1,13,-1
 274 280 l 1,14,15
 284 280 284 280 293 279 c 1,16,17
 303 430 303 430 350 912 c 1,18,19
 239 878 239 878 188 860 c 1,20,-1
 286 1084 l 1,21,22
 307 1100 307 1100 368 1120 c 1,23,24
 379 1255 379 1255 379 1358 c 0,25,26
 379 1442 379 1442 370 1504 c 1,27,28
 355 1516 355 1516 338 1516 c 0,29,30
 304 1516 304 1516 235.5 1453 c 0
 167 1390 167 1390 150 1380 c 1,31,32
 169 1404 169 1404 207.5 1457.5 c 0
 246 1511 246 1511 275.5 1549.5 c 0
 305 1588 305 1588 342.5 1631 c 0
 380 1674 380 1674 416.5 1701 c 0
 453 1728 453 1728 486 1736 c 1,33,34
 526 1736 526 1736 526 1340 c 0,35,36
 526 1222 526 1222 525 1161 c 1,37,38
 670 1188 670 1188 716 1188 c 2,39,40
 718 1188 l 1,41,42
 749 1188 l 2,43,44
 839 1188 839 1188 996 1169 c 0
 1153 1150 1153 1150 1231 1150 c 1,45,46
 1250.5 1253.5 1250.5 1253.5 1282 1360 c 1,47,-1
 1570 1664 l 1,48,49
 1600 1677 1600 1677 1640 1677 c 0,50,51
 1695 1677 1695 1677 1814 1630 c 1,52,-1
 1618 1432 l 1,53,54
 1575 1471 1575 1471 1526 1471 c 0,55,56
 1493 1471 1493 1471 1462 1452 c 1,57,58
 1422 1310 1422 1310 1400 1156 c 1,59,60
 1446 1165 1446 1165 1558 1204 c 1,61,-1
 1434 956 l 1,62,63
 1382 936 1382 936 1380 936 c 0,64,65
 1377 868 1377 868 1377 802 c 0,66,67
 1377 561 1377 561 1422 244 c 1,68,69
 1459 182 1459 182 1500 182 c 0,70,71
 1530 182 1530 182 1565 212 c 0
 1600 242 1600 242 1640.5 287.5 c 0
 1681 333 1681 333 1706 352 c 1,72,73
 1690 320 1690 320 1679.5 301.5 c 0
 1669 283 1669 283 1642 239 c 0
 1615 195 1615 195 1592.5 166 c 0
 1570 137 1570 137 1534 98.5 c 0
 1498 60 1498 60 1463.5 36.5 c 0
 1429 13 1429 13 1384 -3.5 c 0
 1339 -20 1339 -20 1294 -20 c 0,74,75
 1251 -20 1251 -20 1218.62513159 161.969375073 c 0
 1216 180 1216 180 1214 188 c 0,76,77
 1190 504 1190 504 1190 674 c 0,78,79
 1190 812 1190 812 1201 933 c 1,80,81
 1112 937 1112 937 948 960 c 0
 784 983 784 983 734 984 c 0,82,83
 651 984 651 984 522 956 c 1,84,85
 516 614 516 614 516 434 c 0,86,87
 516 354 516 354 518 212 c 1,0,1
EndSplineSet
Validated: 1
EndChar

StartChar: I
Encoding: 73 73 41
Width: 788
Flags: W
VStem: 287 183<264 779.75> 345 119<779.75 1384.07>
LayerCount: 2
Fore
SplineSet
470 185 m 1,0,1
 528 156 528 156 560 156 c 0,2,3
 617 156 617 156 690 194 c 1,4,-1
 486 -64 l 1,5,6
 427 -63 427 -63 382.5 -51.5 c 128,-1,7
 338 -40 338 -40 312 -23 c 128,-1,8
 286 -6 286 -6 265.5 10.5 c 128,-1,9
 245 27 245 27 222.5 38.5 c 128,-1,10
 200 50 200 50 173 50 c 0,11,12
 123 50 123 50 52 0 c 1,13,-1
 287 264 l 1,14,15
 293 392 293 392 319 735.5 c 128,-1,16
 345 1079 345 1079 345 1240 c 0,17,18
 345 1324 345 1324 336 1386 c 1,19,20
 321 1398 321 1398 304 1398 c 0,21,22
 270 1398 270 1398 201.5 1335 c 128,-1,23
 133 1272 133 1272 116 1262 c 1,24,25
 150 1300 150 1300 207.5 1393.5 c 128,-1,26
 265 1487 265 1487 316.5 1546.5 c 128,-1,27
 368 1606 368 1606 424 1614 c 1,28,29
 464 1614 464 1614 464 1218 c 0,30,31
 464 1096 464 1096 465 866 c 128,-1,32
 466 636 466 636 466 476 c 0,33,34
 466 306 466 306 470 185 c 1,0,1
EndSplineSet
Validated: 1
EndChar

StartChar: J
Encoding: 74 74 42
Width: 1155
Flags: W
HStem: -174 216<329.871 443.952> 1320 220<801.876 953> 1422 200<565 652.499>
VStem: 47 200<118.741 293.823> 590 200<128.255 181.999 182 561.364> 674 99<935.738 1343>
LayerCount: 2
Fore
SplineSet
773 1343 m 1,0,1
 773 1224 773 1224 779 926.5 c 0
 785 629 785 629 785 473 c 0,2,3
 785 421 785 421 787 323.5 c 0
 789 226 789 226 789 182 c 1,4,5
 790 182 790 182 790 180 c 0,6,7
 790 152.054995944 790 152.054995944 460.131557599 -131.867847721 c 0
 446 -144 446 -144 446 -144 c 1,8,9
 431 -148 431 -148 409.5 -156.5 c 0
 388 -165 388 -165 370.5 -169.5 c 0
 353 -174 353 -174 332 -174 c 0,10,11
 273 -174 273 -174 224.5 -161.5 c 0
 176 -149 176 -149 135 -121 c 0
 94 -93 94 -93 70.5 -42 c 0
 47 9 47 9 47 80 c 2,12,13
 47 93 l 2,14,15
 47 138 47 138 54 179.5 c 0
 61 221 61 221 71 252.5 c 0
 81 284 81 284 100.5 317.5 c 0
 120 351 120 351 135.5 373 c 0
 151 395 151 395 179.5 425 c 0
 208 455 208 455 225 471 c 0
 242 487 242 487 276 518 c 0
 310 549 310 549 326 564 c 1,16,17
 247 372 247 372 247 254 c 0,18,19
 247 188 247 188 271 144 c 0
 295 100 295 100 342 78.5 c 0
 389 57 389 57 439.5 49.5 c 0
 490 42 490 42 562 42 c 2,20,21
 590 42 l 1,22,23
 590 223 590 223 632 727 c 0
 674 1231 674 1231 674 1371 c 1,24,25
 664 1374 664 1374 629 1385.5 c 0
 594 1397 594 1397 582 1400.5 c 0
 570 1404 570 1404 546 1411 c 0
 522 1418 522 1418 506 1420 c 0
 490 1422 490 1422 476 1422 c 0,26,27
 425 1422 425 1422 355 1373 c 1,28,-1
 565 1622 l 1,29,30
 656 1622 656 1622 816 1581 c 0
 976 1540 976 1540 1027 1540 c 0,31,32
 1084 1540 1084 1540 1157 1578 c 1,33,-1
 953 1320 l 1,34,35
 870 1320 870 1320 773 1343 c 1,0,1
EndSplineSet
Validated: 1
EndChar

StartChar: K
Encoding: 75 75 43
Width: 1594
Flags: W
HStem: 0 241<1110 1343>
VStem: 289 183<264 773.411> 353 114<889.095 1438.07>
LayerCount: 2
Fore
SplineSet
467 784 m 1,0,1
 468 693 468 693 468 476 c 0,2,3
 468 306 468 306 472 185 c 1,4,5
 530 156 530 156 562 156 c 0,6,7
 619 156 619 156 692 194 c 1,8,-1
 488 -64 l 1,9,10
 429 -63 429 -63 384.5 -51.5 c 0
 340 -40 340 -40 314 -23 c 0
 288 -6 288 -6 267.5 10.5 c 0
 247 27 247 27 224.5 38.5 c 0
 202 50 202 50 175 50 c 0,11,12
 125 50 125 50 54 0 c 1,13,-1
 289 264 l 1,14,15
 295 398 295 398 324 766 c 0
 353 1134 353 1134 353 1294 c 0,16,17
 353 1378 353 1378 344 1440 c 1,18,19
 329 1452 329 1452 312 1452 c 0,20,21
 278 1452 278 1452 209.5 1389 c 0
 141 1326 141 1326 124 1316 c 1,22,23
 158 1354 158 1354 215.5 1447.5 c 0
 273 1541 273 1541 324.5 1600.5 c 0
 376 1660 376 1660 432 1668 c 1,24,25
 472 1668 472 1668 472 1272 c 0,26,27
 472 1216 472 1216 469.5 1091 c 0
 467 966 467 966 467 914 c 2,28,29
 467 888 l 1,30,31
 517 922 517 922 567.5 959.5 c 0
 618 997 618 997 654.5 1024 c 0
 691 1051 691 1051 744.5 1094.5 c 0
 798 1138 798 1138 821 1156 c 0
 844 1174 844 1174 903 1225 c 0
 962 1276 962 1276 973.5 1285.5 c 0
 985 1295 985 1295 1051.5 1353 c 0
 1118 1411 1118 1411 1122 1415 c 1,32,33
 1052 1460 1052 1460 1009 1460 c 0,34,35
 958 1460 958 1460 888 1411 c 1,36,-1
 1098 1660 l 1,37,38
 1155 1660 1155 1660 1207.5 1644 c 0
 1260 1628 1260 1628 1293 1608 c 0
 1326 1588 1326 1588 1368 1572 c 0
 1410 1556 1410 1556 1448 1556 c 0,39,40
 1505 1556 1505 1556 1578 1594 c 1,41,-1
 1374 1336 l 1,42,43
 1260 1337 1260 1337 1168 1388 c 1,44,45
 972 1147 972 1147 774 998 c 1,46,47
 870 784 870 784 1022 547 c 0
 1174 310 1174 310 1254 258 c 0,48,49
 1274 241 1274 241 1300 241 c 0,50,51
 1330 241 1330 241 1368 265.5 c 0
 1406 290 1406 290 1434.5 319 c 0
 1463 348 1463 348 1498 386.5 c 0
 1533 425 1533 425 1548 438 c 1,52,-1
 1562 422 l 1,53,54
 1524 380 1524 380 1464 298.5 c 0
 1404 217 1404 217 1360 156.5 c 0
 1316 96 1316 96 1264.5 48 c 0
 1213 0 1213 0 1176 0 c 0,55,56
 1139 0 1139 0 1081.5 56 c 0
 1024 112 1024 112 953.5 212.5 c 0
 883 313 883 313 819 412 c 0
 755 511 755 511 675 638 c 0
 595 765 595 765 548 834 c 1,57,-1
 467 784 l 1,0,1
EndSplineSet
Validated: 1
EndChar

StartChar: L
Encoding: 76 76 44
Width: 1172
Flags: W
HStem: 16 200<607.91 1038.25> 69 215<472 684.896>
VStem: 343 119<1293.99 1720.07>
LayerCount: 2
Fore
SplineSet
472 284 m 1,0,1
 519 284 519 284 647.5 250 c 0
 776 216 776 216 872 216 c 0,2,3
 1008 216 1008 216 1155 269 c 1,4,-1
 1037 48 l 1,5,6
 956 16 956 16 857 16 c 0,7,8
 781 16 781 16 650 42 c 0
 519 68 519 68 467 69 c 0,9,10
 429 69 429 69 398.5 68 c 0
 368 67 368 67 336 62 c 0
 304 57 304 57 288 55 c 0
 272 53 272 53 235.5 42 c 0
 199 31 199 31 189 27.5 c 0
 179 24 179 24 130.5 7.5 c 0
 82 -9 82 -9 68 -14 c 1,11,-1
 172 209 l 1,12,13
 217 244 217 244 276 258 c 1,14,-1
 343 1576 l 1,15,16
 343 1660 343 1660 334 1722 c 1,17,18
 319 1734 319 1734 302 1734 c 0,19,20
 268 1734 268 1734 199.5 1671 c 0
 131 1608 131 1608 114 1598 c 1,21,22
 148 1636 148 1636 205.5 1729.5 c 0
 263 1823 263 1823 314.5 1882.5 c 0
 366 1942 366 1942 422 1950 c 1,23,24
 462 1950 462 1950 462 1554 c 0,25,26
 462 1432 462 1432 463 1202 c 0
 464 972 464 972 464 812 c 0,27,28
 464 527 464 527 472 284 c 1,0,1
EndSplineSet
Validated: 1
EndChar

StartChar: M
Encoding: 77 77 45
Width: 2133
Flags: W
HStem: -18 254<1820.5 1997.5> 0 254<1077.5 1254.5> 25 210<203.186 425.636>
VStem: 541 138<1040.57 1244> 1284 138<1004.97 1226>
LayerCount: 2
Fore
SplineSet
1112 454 m 1,0,1
 1160 339 1160 339 1211 255 c 1,2,3
 1217 254 1217 254 1227 254 c 0,4,5
 1252 254 1252 254 1273 264.5 c 0
 1294 275 1294 275 1325.5 301.5 c 0
 1357 328 1357 328 1364 333 c 1,6,7
 1336 250 1336 250 1239.5 125 c 0
 1143 0 1143 0 1103 0 c 0,8,9
 1067 0 1067 0 1052 13 c 0
 1037 26 1037 26 995 87 c 1,10,11
 902 310 902 310 808.5 653 c 0
 715 996 715 996 679 1244 c 1,12,13
 679 1077 679 1077 548.5 799.5 c 0
 418 522 418 522 199 244 c 1,14,15
 218 235 218 235 259 235 c 0,16,17
 290 235 290 235 362.5 243.5 c 0
 435 252 435 252 466 252 c 0,18,19
 531 252 531 252 547 224 c 1,20,-1
 427 0 l 1,21,22
 389 25 389 25 321 25 c 0,23,24
 287 25 287 25 178.5 12.5 c 0
 70 0 70 0 -5 0 c 1,25,26
 -5 57 -5 57 18.5 117 c 0
 42 177 42 177 80.5 230 c 0
 119 283 119 283 168 350.5 c 0
 217 418 217 418 268 487.5 c 0
 319 557 319 557 368 653.5 c 0
 417 750 417 750 455.5 856.5 c 0
 494 963 494 963 517.5 1109 c 0
 541 1255 541 1255 541 1420 c 1,27,28
 502 1420 502 1420 431 1362 c 1,29,30
 456 1423 456 1423 544.5 1530.5 c 0
 633 1638 633 1638 674 1638 c 0,31,32
 739 1638 739 1638 786 1577 c 0
 833 1516 833 1516 865 1400.5 c 0
 897 1285 897 1285 922.5 1160.5 c 0
 948 1036 948 1036 987.5 864 c 0
 1027 692 1027 692 1072 562 c 1,33,34
 1284 930 1284 930 1284 1402 c 1,35,36
 1245 1402 1245 1402 1174 1344 c 1,37,38
 1198 1405 1198 1405 1287 1511.5 c 0
 1376 1618 1376 1618 1417 1618 c 0,39,40
 1474 1618 1474 1618 1517 1570.5 c 0
 1560 1523 1560 1523 1589.5 1437.5 c 0
 1619 1352 1619 1352 1643 1244.5 c 0
 1667 1137 1667 1137 1695 1005.5 c 0
 1723 874 1723 874 1754.5 746.5 c 0
 1786 619 1786 619 1837.5 481.5 c 0
 1889 344 1889 344 1954 237 c 1,41,42
 1960 236 1960 236 1970 236 c 0,43,44
 1995 236 1995 236 2016 246.5 c 0
 2037 257 2037 257 2068.5 283.5 c 0
 2100 310 2100 310 2107 315 c 1,45,46
 2079 232 2079 232 1982.5 107 c 0
 1886 -18 1886 -18 1846 -18 c 0,47,48
 1810 -18 1810 -18 1795 -5 c 0
 1780 8 1780 8 1738 69 c 1,49,50
 1645 292 1645 292 1551.5 635 c 0
 1458 978 1458 978 1422 1226 c 1,51,52
 1422 1096 1422 1096 1338.5 885 c 0
 1255 674 1255 674 1112 454 c 1,0,1
EndSplineSet
Validated: 1
EndChar

StartChar: N
Encoding: 78 78 46
Width: 1590
Flags: W
HStem: 0 254<1223.5 1400.5>
VStem: 280 103<843.32 1396.73> 314 182<256 672.697> 1300 92<1092.73 1610.83>
LayerCount: 2
Fore
SplineSet
1175 458 m 1,0,1
 1186 458 1186 458 1215.5 618.5 c 0
 1245 779 1245 779 1272.5 1017.5 c 0
 1300 1256 1300 1256 1300 1425 c 0,2,3
 1300 1445 1300 1445 1287 1445 c 0,4,5
 1273 1445 1273 1445 1223 1410.5 c 0
 1173 1376 1173 1376 1153 1368 c 1,6,7
 1180 1399 1180 1399 1233 1473 c 0
 1286 1547 1286 1547 1324.5 1594 c 0
 1363 1641 1363 1641 1379 1641 c 0,8,9
 1392 1641 1392 1641 1392 1605 c 0,10,11
 1392 1126.22194418 1392 1126.22194418 1321.93869664 330.747963476 c 0
 1320 309 1320 309 1320 309 c 1,12,13
 1326 296 1326 296 1331 286.5 c 0
 1336 277 1336 277 1340 271.5 c 0
 1344 266 1344 266 1346 264 c 0
 1348 262 1348 262 1352 259 c 0
 1356 256 1356 256 1357 255 c 0,14,15
 1363 254 1363 254 1373 254 c 0,16,17
 1398 254 1398 254 1419 264.5 c 0
 1440 275 1440 275 1471.5 301.5 c 0
 1503 328 1503 328 1510 333 c 1,18,19
 1482 250 1482 250 1385.5 125 c 0
 1289 0 1289 0 1249 0 c 0,20,21
 1201 0 1201 0 1161.5 16.5 c 0
 1122 33 1122 33 1087 84 c 0,22,23
 1022 180 1022 180 940 356 c 0
 858 532 858 532 786.5 704 c 0
 715 876 715 876 643.5 1037.5 c 0
 572 1199 572 1199 506 1299.5 c 0
 440 1400 440 1400 390 1400 c 1,24,25
 383 1347 383 1347 383 1279 c 0,26,27
 383 1177 383 1177 400.5 1032 c 0
 418 887 418 887 439.5 761.5 c 0
 461 636 461 636 478.5 474 c 0
 496 312 496 312 496 181 c 1,28,29
 551 156 551 156 577 156 c 0,30,31
 638 156 638 156 712 207 c 1,32,33
 712 202 712 202 682 155.5 c 0
 652 109 652 109 604.5 45 c 0
 557 -19 557 -19 520 -59 c 1,34,35
 466 -59 466 -59 378 -36.5 c 0
 290 -14 290 -14 249 12 c 0,36,37
 233 22 233 22 212.5 36.5 c 0
 192 51 192 51 181.5 58 c 0
 171 65 171 65 158 70.5 c 0
 145 76 145 76 133 76 c 0,38,39
 127 75 127 75 118 74 c 0
 109 73 109 73 107.5 73 c 0
 106 73 106 73 99 71 c 0
 92 69 92 69 91 68.5 c 0
 90 68 90 68 81.5 62.5 c 0
 73 57 73 57 68 53 c 0
 63 49 63 49 48.5 38.5 c 0
 34 28 34 28 22 19 c 1,40,-1
 238 259 l 2,41,42
 248 269 248 269 273 269 c 0,43,44
 281 269 281 269 294 263 c 0
 307 257 307 257 314 256 c 1,45,46
 314 402 314 402 297 675.5 c 0
 280 949 280 949 280 1061 c 0,47,48
 280 1314 280 1314 340 1437 c 1,49,50
 331 1440 331 1440 323 1440 c 0,51,52
 297 1440 297 1440 271 1414 c 1,53,54
 257 1414 257 1414 243.5 1400.5 c 0
 230 1387 230 1387 214.5 1365.5 c 0
 199 1344 199 1344 187 1334 c 1,55,56
 196 1379 196 1379 234 1449 c 0
 272 1519 272 1519 320.5 1574.5 c 0
 369 1630 369 1630 400 1630 c 2,57,58
 404 1630 l 2,59,60
 474 1630 474 1630 538.5 1593.5 c 0
 603 1557 603 1557 660 1486.5 c 0
 717 1416 717 1416 767 1332.5 c 0
 817 1249 817 1249 869.5 1134.5 c 0
 922 1020 922 1020 966.5 917 c 0
 1011 814 1011 814 1069 683.5 c 0
 1127 553 1127 553 1175 458 c 1,0,1
EndSplineSet
Validated: 1
EndChar

StartChar: O
Encoding: 79 79 47
Width: 1351
Flags: W
HStem: -10 229<647.617 864.5> 1464 212<523.018 721.646>
VStem: 78 175<802.656 1143.35> 1079 175<707.029 991.628>
LayerCount: 2
Fore
SplineSet
1254 921 m 0,0,1
 1254 818 1254 818 1172 599 c 0,2,3
 1079 355 1079 355 960 192 c 0,4,5
 815 -10 815 -10 675 -10 c 0,6,7
 474 -10 474 -10 322 190 c 0,8,9
 206 342 206 342 135 589 c 0,10,11
 78 780 78 780 78 896 c 0,12,13
 78 1150 78 1150 262 1401 c 0,14,15
 463 1676 463 1676 708 1676 c 2,16,-1
 711 1676 l 2,17,18
 898 1676 898 1676 1036 1520 c 0,19,20
 1142 1399 1142 1399 1205 1196 c 0,21,22
 1254 1040 1254 1040 1254 921 c 0,0,1
1079 720 m 0,23,24
 1079 957 1079 957 945 1190 c 0,25,26
 787 1464 787 1464 547 1464 c 2,27,-1
 544 1464 l 2,28,29
 372 1464 372 1464 305 1344 c 0,30,31
 255 1253 255 1253 253 1071 c 0,32,33
 253 936 253 936 315 745 c 0,34,35
 386 524 386 524 501 387 c 0,36,37
 642 219 642 219 816 219 c 0,38,39
 962 219 962 219 1033 434 c 0,40,41
 1079 572 1079 572 1079 720 c 0,23,24
EndSplineSet
Validated: 1
EndChar

StartChar: P
Encoding: 80 80 48
Width: 1002
Flags: W
HStem: 1526 196<564 836>
VStem: 287 179<264 713.999 738 779.75> 345 121<779.75 1384.07> 752 198<1278.61 1546>
LayerCount: 2
Fore
SplineSet
459 1461 m 0,0,1
 464 1380 464 1380 464 1218 c 0,2,3
 464 1074 464 1074 466 738 c 0,4,5
 470 738 470 738 499.5 772 c 0
 529 806 529 806 571 865 c 0
 613 924 613 924 654 993 c 0
 695 1062 695 1062 723.5 1143.5 c 0
 752 1225 752 1225 752 1292 c 0,6,7
 752 1384 752 1384 711 1455 c 0
 670 1526 670 1526 593 1526 c 0,8,9
 567 1526 567 1526 534 1511.5 c 0
 501 1497 501 1497 480 1482 c 0
 459 1467 459 1467 459 1461 c 0,0,1
466 665 m 2,10,11
 466 476 l 2,12,13
 466 306 466 306 470 185 c 1,14,15
 528 156 528 156 560 156 c 0,16,17
 617 156 617 156 690 194 c 1,18,-1
 486 -64 l 1,19,20
 427 -63 427 -63 382.5 -51.5 c 0
 338 -40 338 -40 312 -23 c 0
 286 -6 286 -6 265.5 10.5 c 0
 245 27 245 27 222.5 38.5 c 0
 200 50 200 50 173 50 c 0,21,22
 123 50 123 50 52 0 c 1,23,-1
 287 264 l 1,24,25
 293 392 293 392 319 735.5 c 0
 345 1079 345 1079 345 1240 c 0,26,27
 345 1324 345 1324 336 1386 c 1,28,29
 321 1398 321 1398 304 1398 c 0,30,31
 270 1398 270 1398 201.5 1335 c 0
 133 1272 133 1272 116 1262 c 1,32,33
 150 1300 150 1300 207.5 1393.5 c 0
 265 1487 265 1487 316.5 1546.5 c 0
 368 1606 368 1606 424 1614 c 0,34,35
 446 1614 446 1614 455 1517 c 0,36,37
 457 1517 457 1517 477.5 1538 c 0
 498 1559 498 1559 531 1589.5 c 0
 564 1620 564 1620 603.5 1650 c 0
 643 1680 643 1680 691 1701 c 0
 739 1722 739 1722 780 1722 c 0,38,39
 859 1722 859 1722 904.5 1652 c 0
 950 1582 950 1582 950 1490 c 0,40,41
 950 1386 950 1386 900 1264 c 0
 850 1142 850 1142 779 1041 c 0
 708 940 708 940 637 855 c 0
 566 770 566 770 516 718.5 c 0
 466 667 466 667 466 665 c 2,10,11
EndSplineSet
Validated: 1
EndChar

StartChar: Q
Encoding: 81 81 49
Width: 1628
Flags: W
HStem: -64 202<1136.5 1413> -10 229<647.617 864.5> 1464 212<523.018 721.646>
VStem: 78 175<802.656 1143.35> 1079 175<707.029 991.628>
LayerCount: 2
Fore
SplineSet
899 116 m 1,0,1
 785 -10 785 -10 675 -10 c 0,2,3
 474 -10 474 -10 322 190 c 0,4,5
 206 342 206 342 135 589 c 0,6,7
 78 780 78 780 78 896 c 0,8,9
 78 1150 78 1150 262 1401 c 0,10,11
 463 1676 463 1676 708 1676 c 2,12,-1
 711 1676 l 2,13,14
 898 1676 898 1676 1036 1520 c 0,15,16
 1142 1399 1142 1399 1205 1196 c 0,17,18
 1254 1040 1254 1040 1254 921 c 0,19,20
 1254 818 1254 818 1172 599 c 0,21,22
 1115 449 1115 449 1051 336 c 0,23,24
 1048 332 1048 332 1048 325 c 0,25,26
 1048 296 1048 296 1101.5 251.5 c 0
 1155 207 1155 207 1236.5 172.5 c 0
 1318 138 1318 138 1385 138 c 0,27,28
 1401 138 1401 138 1419.5 147.5 c 0
 1438 157 1438 157 1461.5 178.5 c 0
 1485 200 1485 200 1502.5 218.5 c 0
 1520 237 1520 237 1552 271.5 c 0
 1584 306 1584 306 1601 324 c 1,29,30
 1574 268 1574 268 1528 202 c 0
 1482 136 1482 136 1428 76 c 0
 1374 16 1374 16 1315.5 -24 c 0
 1257 -64 1257 -64 1213 -64 c 0,31,32
 1175 -63 1175 -63 1143.5 -56 c 0
 1112 -49 1112 -49 1092 -42.5 c 0
 1072 -36 1072 -36 1042.5 -14 c 0
 1013 8 1013 8 1001 18.5 c 0
 989 29 989 29 952 65 c 0
 915 101 915 101 899 116 c 1,0,1
1079 720 m 0,33,34
 1079 957 1079 957 945 1190 c 0,35,36
 787 1464 787 1464 547 1464 c 2,37,-1
 544 1464 l 2,38,39
 372 1464 372 1464 305 1344 c 0,40,41
 255 1253 255 1253 253 1071 c 0,42,43
 253 936 253 936 315 745 c 0,44,45
 386 524 386 524 501 387 c 0,46,47
 642 219 642 219 816 219 c 0,48,49
 962 219 962 219 1033 434 c 0,50,51
 1079 572 1079 572 1079 720 c 0,33,34
EndSplineSet
Validated: 1
EndChar

StartChar: R
Encoding: 82 82 50
Width: 1546
Flags: W
HStem: -26 196<1051 1354.5> 669 69<466.141 495.394> 1526 196<564 836>
VStem: 287 179<264 668.999 738 779.75> 345 121<779.75 1384.07> 752 198<1281.33 1546>
LayerCount: 2
Fore
SplineSet
459 1461 m 0,0,1
 464 1380 464 1380 464 1218 c 0,2,3
 464 1074 464 1074 466 738 c 0,4,5
 470 738 470 738 499.5 772 c 0
 529 806 529 806 571 865 c 0
 613 924 613 924 654 993 c 0
 695 1062 695 1062 723.5 1143.5 c 0
 752 1225 752 1225 752 1292 c 0,6,7
 752 1384 752 1384 711 1455 c 0
 670 1526 670 1526 593 1526 c 0,8,9
 567 1526 567 1526 534 1511.5 c 0
 501 1497 501 1497 480 1482 c 0
 459 1467 459 1467 459 1461 c 0,0,1
466 665 m 1,10,11
 466 476 l 2,12,13
 466 306 466 306 470 185 c 1,14,15
 528 156 528 156 560 156 c 0,16,17
 617 156 617 156 690 194 c 1,18,-1
 486 -64 l 1,19,20
 427 -63 427 -63 382.5 -51.5 c 0
 338 -40 338 -40 312 -23 c 0
 286 -6 286 -6 265.5 10.5 c 0
 245 27 245 27 222.5 38.5 c 0
 200 50 200 50 173 50 c 0,21,22
 123 50 123 50 52 0 c 1,23,-1
 287 264 l 1,24,25
 293 392 293 392 319 735.5 c 0
 345 1079 345 1079 345 1240 c 0,26,27
 345 1324 345 1324 336 1386 c 1,28,29
 321 1398 321 1398 304 1398 c 0,30,31
 270 1398 270 1398 201.5 1335 c 0
 133 1272 133 1272 116 1262 c 1,32,33
 150 1300 150 1300 207.5 1393.5 c 0
 265 1487 265 1487 316.5 1546.5 c 0
 368 1606 368 1606 424 1614 c 0,34,35
 446 1614 446 1614 455 1517 c 0,36,37
 457 1517 457 1517 477.5 1538 c 0
 498 1559 498 1559 531 1589.5 c 0
 564 1620 564 1620 603.5 1650 c 0
 643 1680 643 1680 691 1701 c 0
 739 1722 739 1722 780 1722 c 0,38,39
 859 1722 859 1722 904.5 1652 c 0
 950 1582 950 1582 950 1490 c 0,40,41
 950 1231 950 1231 647 866 c 1,42,43
 707 811 707 811 773 732 c 0
 839 653 839 653 891 580.5 c 0
 943 508 943 508 1000.5 432.5 c 0
 1058 357 1058 357 1105.5 301.5 c 0
 1153 246 1153 246 1205 209.5 c 0
 1257 173 1257 173 1304 170 c 0,44,45
 1339 170 1339 170 1370.5 183 c 0
 1402 196 1402 196 1422 212.5 c 0
 1442 229 1442 229 1473.5 253 c 0
 1505 277 1505 277 1532 292 c 1,46,-1
 1538 284 l 1,47,48
 1525 272 1525 272 1491 229.5 c 0
 1457 187 1457 187 1421 148 c 0
 1385 109 1385 109 1338 67 c 0
 1291 25 1291 25 1234 -0.5 c 0
 1177 -26 1177 -26 1120 -26 c 0,49,50
 1082 -23 1082 -23 1009.5 49.5 c 0
 937 122 937 122 858 223.5 c 0
 779 325 779 325 702 426.5 c 0
 625 528 625 528 562 598.5 c 0
 499 669 499 669 475 669 c 0,51,52
 470 669 470 669 466 665 c 1,10,11
EndSplineSet
Validated: 1
EndChar

StartChar: S
Encoding: 83 83 51
Width: 977
Flags: W
HStem: -33 237<192.457 443.733>
VStem: 104 144<957 1261.01> 655 169<1261.5 1533> 776 162<229.5 592.5>
LayerCount: 2
Fore
SplineSet
644 96 m 1,0,1
 645 97 645 97 661 111 c 0
 677 125 677 125 688.5 135.5 c 0
 700 146 700 146 718 164 c 0
 736 182 736 182 747.5 196 c 0
 759 210 759 210 767.5 225.5 c 0
 776 241 776 241 776 252 c 0,2,3
 776 339 776 339 739 417.5 c 0
 702 496 702 496 642.5 555 c 0
 583 614 583 614 511.5 669.5 c 0
 440 725 440 725 368.5 776.5 c 0
 297 828 297 828 237.5 879.5 c 0
 178 931 178 931 141 994 c 0
 104 1057 104 1057 104 1125 c 0,4,5
 106 1202 106 1202 178 1309 c 0
 250 1416 250 1416 343 1504.5 c 0
 436 1593 436 1593 523.5 1657.5 c 0
 611 1722 611 1722 647 1725 c 0,6,7
 731 1725 731 1725 777.5 1649 c 0
 824 1573 824 1573 824 1473 c 0,8,9
 824 1421 824 1421 804 1375 c 0
 784 1329 784 1329 758 1299 c 0
 732 1269 732 1269 695 1223 c 0
 658 1177 658 1177 635 1137 c 1,10,-1
 620 1158 l 1,11,12
 655 1208 655 1208 655 1286 c 0,13,14
 655 1378 655 1378 608.5 1452 c 0
 562 1526 562 1526 485 1527 c 1,15,16
 405 1474 405 1474 337 1395 c 0
 269 1316 269 1316 248 1248 c 1,17,18
 249 1220 249 1220 288 1175.5 c 0
 327 1131 327 1131 388 1079.5 c 0
 449 1028 449 1028 522 968 c 0
 595 908 595 908 668.5 841.5 c 0
 742 775 742 775 802.5 709.5 c 0
 863 644 863 644 900.5 572.5 c 0
 938 501 938 501 938 438 c 0,19,20
 935 402 935 402 902.5 343.5 c 0
 870 285 870 285 801 195 c 0
 732 105 732 105 688 51 c 0
 644 -3 644 -3 554 -111 c 1,21,22
 378.142265294 -54.0090674565 378.142265294 -54.0090674565 299.94644786 -41.3168656793 c 0
 248.706787343 -33 248.706787343 -33 204 -33 c 0,23,24
 64 -33 64 -33 -31 -117 c 1,25,26
 4 -78 4 -78 69 15.5 c 0
 134 109 134 109 183.5 155 c 0
 233 201 233 201 290 204 c 1,27,28
 364 194 364 194 470.5 150 c 0
 577 106 577 106 644 96 c 1,0,1
EndSplineSet
Validated: 1
EndChar

StartChar: T
Encoding: 84 84 52
Width: 1155
Flags: W
HStem: 1418 206<516.855 1044.4> 1472 197<138.404 350.997 351 547.377>
VStem: 492 183<186 704.284> 551 84<1027.19 1423>
LayerCount: 2
Fore
SplineSet
635 1423 m 1,0,1
 635 1304 635 1304 653 931 c 0
 671 558 671 558 671 398 c 0,2,3
 671 228 671 228 675 107 c 1,4,5
 733 78 733 78 765 78 c 0,6,7
 822 78 822 78 895 116 c 1,8,-1
 691 -142 l 1,9,10
 632 -141 632 -141 587.5 -129.5 c 0
 543 -118 543 -118 517 -101 c 0
 491 -84 491 -84 470.5 -67.5 c 0
 450 -51 450 -51 427.5 -39.5 c 0
 405 -28 405 -28 378 -28 c 0,11,12
 328 -28 328 -28 257 -78 c 1,13,-1
 492 186 l 1,14,15
 497 293 497 293 513.5 579 c 0
 530 865 530 865 540.5 1085.5 c 0
 551 1306 551 1306 551 1434 c 1,16,17
 515 1438 515 1438 433.5 1454.5 c 0
 352 1471 352 1471 324 1472 c 2,18,19
 311 1472 l 2,20,21
 244 1472 244 1472 176 1448 c 0
 108 1424 108 1424 5 1374 c 1,22,-1
 103 1604 l 1,23,24
 149 1639 149 1639 220 1654 c 0
 291 1669 291 1669 339 1669 c 0,25,26
 351 1669 351 1669 351 1666 c 1,27,28
 391 1666 391 1666 535 1645 c 0
 679 1624 679 1624 781 1624 c 0,29,30
 862 1624 862 1624 987.5 1648.5 c 0
 1113 1673 1113 1673 1212 1708 c 1,31,-1
 1100 1480 l 1,32,33
 1041 1457 1041 1457 934.5 1437.5 c 0
 828 1418 828 1418 757 1418 c 0,34,35
 700 1418 700 1418 635 1423 c 1,0,1
EndSplineSet
Validated: 1
EndChar

StartChar: U
Encoding: 85 85 53
Width: 1689
Flags: W
HStem: -10 254<790.5 1115.5> 1464 190<150.669 256.743>
VStem: 323 190<1006.23 1395.02> 1233 153<984.486 1392>
LayerCount: 2
Fore
SplineSet
323 1233 m 0,0,1
 323 1298 323 1298 306 1345.5 c 0
 289 1393 289 1393 261 1417.5 c 0
 233 1442 233 1442 204.5 1453 c 0
 176 1464 176 1464 146 1464 c 0,2,3
 116 1464 116 1464 88 1436 c 1,4,5
 74 1436 74 1436 60.5 1422.5 c 0
 47 1409 47 1409 31.5 1387.5 c 0
 16 1366 16 1366 4 1356 c 1,6,7
 19 1429 19 1429 95 1541.5 c 0
 171 1654 171 1654 217 1654 c 2,8,9
 221 1654 l 2,10,11
 256 1654 256 1654 290.5 1648.5 c 0
 325 1643 325 1643 366.5 1626 c 0
 408 1609 408 1609 439.5 1581.5 c 0
 471 1554 471 1554 492 1505 c 0
 513 1456 513 1456 513 1392 c 0,12,13
 513 1236 513 1236 546.5 1051 c 0
 580 866 580 866 638.5 696.5 c 0
 697 527 697 527 789.5 413.5 c 0
 882 300 882 300 986 300 c 1,14,15
 1124 571 1124 571 1178.5 844 c 0
 1233 1117 1233 1117 1233 1464 c 1,16,17
 1184 1493 1184 1493 1146 1493 c 0,18,19
 1095 1493 1095 1493 1025 1444 c 1,20,-1
 1233 1693 l 1,21,22
 1290 1693 1290 1693 1343 1677 c 0
 1396 1661 1396 1661 1429 1642 c 0
 1462 1623 1462 1623 1504.5 1607 c 0
 1547 1591 1547 1591 1585 1591 c 0,23,24
 1646 1591 1646 1591 1715 1627 c 1,25,-1
 1511 1369 l 1,26,27
 1493 1369 1493 1369 1386 1392 c 1,28,29
 1386 1243 1386 1243 1362 1074.5 c 0
 1338 906 1338 906 1300.5 764.5 c 0
 1263 623 1263 623 1221.5 505.5 c 0
 1180 388 1180 388 1141.5 321 c 0
 1103 254 1103 254 1079 254 c 0,30,31
 1076 254 1076 254 1072 256 c 1,32,33
 1084 244 1084 244 1088 244 c 0,34,35
 1113 244 1113 244 1134 254.5 c 0
 1155 265 1155 265 1186.5 291.5 c 0
 1218 318 1218 318 1225 323 c 1,36,37
 1197 240 1197 240 1100.5 115 c 0
 1004 -10 1004 -10 964 -10 c 0,38,39
 881 -10 881 -10 796.5 54 c 0
 712 118 712 118 643 223 c 0
 574 328 574 328 513.5 461.5 c 0
 453 595 453 595 411.5 733 c 0
 370 871 370 871 346.5 1002 c 0
 323 1133 323 1133 323 1233 c 0,0,1
EndSplineSet
Validated: 1
EndChar

StartChar: V
Encoding: 86 86 54
Width: 1682
Flags: W
HStem: -10 254<931.5 1108.5> 1464 190<143.669 214.939>
LayerCount: 2
Fore
SplineSet
1065 256 m 1,0,1
 1077 244 1077 244 1081 244 c 0,2,3
 1106 244 1106 244 1127 254.5 c 0
 1148 265 1148 265 1179.5 291.5 c 0
 1211 318 1211 318 1218 323 c 1,4,5
 1190 240 1190 240 1093.5 115 c 0
 997 -10 997 -10 957 -10 c 0,6,7
 921 -10 921 -10 906 3 c 0
 891 16 891 16 849 77 c 1,8,9
 777 250 777 250 549 746.5 c 0
 321 1243 321 1243 305 1280 c 0,10,11
 213 1464 213 1464 139 1464 c 0,12,13
 109 1464 109 1464 81 1436 c 1,14,15
 67 1436 67 1436 53.5 1422.5 c 0
 40 1409 40 1409 24.5 1387.5 c 0
 9 1366 9 1366 -3 1356 c 1,16,17
 12 1429 12 1429 88 1541.5 c 0
 164 1654 164 1654 210 1654 c 2,18,19
 214 1654 l 2,20,21
 278 1654 278 1654 346 1591.5 c 0
 414 1529 414 1529 473.5 1431 c 0
 533 1333 533 1333 604 1189.5 c 0
 675 1046 675 1046 735 910 c 0
 795 774 795 774 874 608 c 0
 953 442 953 442 1019 324 c 1,22,23
 1067 503 1067 503 1076 538 c 0
 1085 573 1085 573 1119.5 707.5 c 0
 1154 842 1154 842 1160.5 879 c 0
 1167 916 1167 916 1187 1016 c 0
 1207 1116 1207 1116 1211 1170 c 0
 1215 1224 1215 1224 1220.5 1303.5 c 0
 1226 1383 1226 1383 1226 1464 c 1,24,25
 1177 1493 1177 1493 1139 1493 c 0,26,27
 1088 1493 1088 1493 1018 1444 c 1,28,-1
 1228 1693 l 1,29,30
 1285 1693 1285 1693 1337.5 1677 c 0
 1390 1661 1390 1661 1423 1642 c 0
 1456 1623 1456 1623 1498 1607 c 0
 1540 1591 1540 1591 1578 1591 c 0,31,32
 1639 1591 1639 1591 1708 1627 c 1,33,-1
 1504 1369 l 1,34,35
 1486 1369 1486 1369 1379 1392 c 1,36,37
 1199 653 1199 653 1072 254 c 0,38,39
 1069 254 1069 254 1065 256 c 1,0,1
EndSplineSet
Validated: 1
EndChar

StartChar: W
Encoding: 87 87 55
Width: 2582
Flags: W
HStem: -11 254<931.5 1108.5 1831.5 2008.5> 1463 190<143.669 214.939 1036.19 1120.15>
LayerCount: 2
Fore
SplineSet
1360 972 m 1,0,1
 1350 918 1350 918 1337.5 865.5 c 0
 1325 813 1325 813 1313.5 770.5 c 0
 1302 728 1302 728 1285 680.5 c 0
 1268 633 1268 633 1256 601.5 c 0
 1244 570 1244 570 1223.5 527.5 c 0
 1203 485 1203 485 1192.5 463 c 0
 1182 441 1182 441 1159.5 401.5 c 0
 1137 362 1137 362 1129.5 348.5 c 0
 1122 335 1122 335 1099 297.5 c 0
 1076 260 1076 260 1072 253 c 0,2,3
 1069 253 1069 253 1065 255 c 1,4,5
 1077 243 1077 243 1081 243 c 0,6,7
 1106 243 1106 243 1127 253.5 c 0
 1148 264 1148 264 1179.5 290.5 c 0
 1211 317 1211 317 1218 322 c 1,8,9
 1190 239 1190 239 1093.5 114 c 0
 997 -11 997 -11 957 -11 c 0,10,11
 921 -11 921 -11 906 2 c 0
 891 15 891 15 849 76 c 1,12,13
 777 249 777 249 549 745.5 c 0
 321 1242 321 1242 305 1279 c 0,14,15
 213 1463 213 1463 139 1463 c 0,16,17
 109 1463 109 1463 81 1435 c 1,18,19
 67 1435 67 1435 53.5 1421.5 c 0
 40 1408 40 1408 24.5 1386.5 c 0
 9 1365 9 1365 -3 1355 c 1,20,21
 12 1428 12 1428 88 1540.5 c 0
 164 1653 164 1653 210 1653 c 2,22,23
 214 1653 l 2,24,25
 278 1653 278 1653 346 1590.5 c 0
 414 1528 414 1528 473.5 1430 c 0
 533 1332 533 1332 604 1188.5 c 0
 675 1045 675 1045 735 909 c 0
 795 773 795 773 874 607 c 0
 953 441 953 441 1019 323 c 1,26,27
 1149 578 1149 578 1192.5 751.5 c 0
 1236 925 1236 925 1243 1200 c 1,28,-1
 1205 1285 l 1,29,30
 1113 1469 1113 1469 1039 1469 c 0,31,32
 1009 1469 1009 1469 981 1441 c 1,33,34
 967 1441 967 1441 953.5 1427.5 c 0
 940 1414 940 1414 924.5 1392.5 c 0
 909 1371 909 1371 897 1361 c 1,35,36
 912 1434 912 1434 988 1546.5 c 0
 1064 1659 1064 1659 1110 1659 c 2,37,38
 1114 1659 l 2,39,40
 1178 1659 1178 1659 1246 1596.5 c 0
 1314 1534 1314 1534 1373.5 1436 c 0
 1433 1338 1433 1338 1504 1194.5 c 0
 1575 1051 1575 1051 1635 915 c 0
 1695 779 1695 779 1774 613 c 0
 1853 447 1853 447 1919 329 c 1,41,42
 1966 421 1966 421 2000.5 511 c 0
 2035 601 2035 601 2057 697.5 c 0
 2079 794 2079 794 2092.5 873.5 c 0
 2106 953 2106 953 2112.5 1065.5 c 0
 2119 1178 2119 1178 2121.5 1256 c 0
 2124 1334 2124 1334 2126 1469 c 1,43,44
 2077 1498 2077 1498 2039 1498 c 0,45,46
 1988 1498 1988 1498 1918 1449 c 1,47,-1
 2128 1698 l 1,48,49
 2185 1698 2185 1698 2237.5 1682 c 0
 2290 1666 2290 1666 2323 1646 c 0
 2356 1626 2356 1626 2398 1610 c 0
 2440 1594 2440 1594 2478 1594 c 0,50,51
 2535 1594 2535 1594 2608 1632 c 1,52,-1
 2404 1374 l 1,53,54
 2386 1374 2386 1374 2279 1397 c 1,55,56
 2269 1247 2269 1247 2241.5 1079.5 c 0
 2214 912 2214 912 2178.5 770 c 0
 2143 628 2143 628 2104.5 510.5 c 0
 2066 393 2066 393 2030.5 326 c 0
 1995 259 1995 259 1972 259 c 0,57,58
 1969 259 1969 259 1965 261 c 1,59,60
 1977 249 1977 249 1981 249 c 0,61,62
 2006 249 2006 249 2027 259.5 c 0
 2048 270 2048 270 2079.5 296.5 c 0
 2111 323 2111 323 2118 328 c 1,63,64
 2090 245 2090 245 1993.5 120 c 0
 1897 -5 1897 -5 1857 -5 c 0,65,66
 1821 -5 1821 -5 1806 8 c 0
 1791 21 1791 21 1749 82 c 1,67,68
 1557 543 1557 543 1360 972 c 1,0,1
EndSplineSet
Validated: 1
EndChar

StartChar: X
Encoding: 88 88 56
Width: 1641
Flags: W
HStem: -36 254<1167.5 1344.5> 1438 190<379.669 450.939>
LayerCount: 2
Fore
SplineSet
990 860 m 1,0,1
 1012 813 1012 813 1068.5 681.5 c 0
 1125 550 1125 550 1168.5 459 c 0
 1212 368 1212 368 1256 296 c 0,2,3
 1263 285 1263 285 1274.5 268.5 c 0
 1286 252 1286 252 1293.5 241 c 2
 1301 230 l 2,4,5
 1313 218 1313 218 1317 218 c 0,6,7
 1342 218 1342 218 1363 228.5 c 0
 1384 239 1384 239 1415.5 265.5 c 0
 1447 292 1447 292 1454 297 c 1,8,9
 1426 214 1426 214 1329.5 89 c 0
 1233 -36 1233 -36 1193 -36 c 0,10,11
 1157 -36 1157 -36 1142 -23 c 0
 1127 -10 1127 -10 1085 51 c 0,12,13
 1058 97 1058 97 1022 169 c 0
 986 241 986 241 958.5 301.5 c 0
 931 362 931 362 883.5 467.5 c 0
 836 573 836 573 809 632 c 1,14,15
 639 434 639 434 435 257 c 1,16,17
 470 240 470 240 484.5 233 c 0
 499 226 499 226 527 218 c 0
 555 210 555 210 580 210 c 0,18,19
 637 210 637 210 710 248 c 1,20,-1
 506 -10 l 1,21,22
 434 -9 434 -9 374 10.5 c 0
 314 30 314 30 281 53 c 0
 248 76 248 76 210.5 95 c 0
 173 114 173 114 141 114 c 0,23,24
 90 114 90 114 20 65 c 1,25,-1
 230 314 l 1,26,27
 313 314 313 314 401 274 c 1,28,29
 446 299 446 299 555.5 416 c 0
 665 533 665 533 787 688 c 1,30,31
 643 1092 643 1092 541 1254 c 1,32,33
 449 1438 449 1438 375 1438 c 0,34,35
 345 1438 345 1438 317 1410 c 1,36,37
 303 1410 303 1410 289.5 1396.5 c 0
 276 1383 276 1383 260.5 1361.5 c 0
 245 1340 245 1340 233 1330 c 1,38,39
 248 1403 248 1403 324 1515.5 c 0
 400 1628 400 1628 446 1628 c 2,40,41
 450 1628 l 2,42,43
 487 1628 487 1628 525 1608 c 0
 563 1588 563 1588 597 1556 c 0
 631 1524 631 1524 670 1469.5 c 0
 709 1415 709 1415 741 1361 c 0
 773 1307 773 1307 814 1226 c 0
 855 1145 855 1145 886.5 1078.5 c 0
 918 1012 918 1012 962 915 c 1,44,45
 1093 1097 1093 1097 1151.5 1201.5 c 0
 1210 1306 1210 1306 1244 1418 c 1,46,47
 1219 1432 1219 1432 1162.5 1453 c 0
 1106 1474 1106 1474 1086 1474 c 0,48,49
 1035 1474 1035 1474 965 1425 c 1,50,-1
 1175 1674 l 1,51,52
 1232 1674 1232 1674 1284.5 1658 c 0
 1337 1642 1337 1642 1370 1622 c 0
 1403 1602 1403 1602 1445 1586 c 0
 1487 1570 1487 1570 1525 1570 c 0,53,54
 1582 1570 1582 1570 1655 1608 c 1,55,-1
 1451 1350 l 1,56,57
 1388 1351 1388 1351 1374.5 1353 c 0
 1361 1355 1361 1355 1328 1371 c 1,58,59
 1296 1309 1296 1309 1266 1256.5 c 0
 1236 1204 1236 1204 1197 1147 c 0
 1158 1090 1158 1090 1137.5 1060.5 c 0
 1117 1031 1117 1031 1063.5 959 c 0
 1010 887 1010 887 990 860 c 1,0,1
EndSplineSet
Validated: 1
EndChar

StartChar: Y
Encoding: 89 89 57
Width: 1706
Flags: W
HStem: 1425 203<153.5 390.5>
VStem: 782 95<323.978 706.543>
LayerCount: 2
Fore
SplineSet
1345 1369 m 1,0,1
 1317 1294 1317 1294 1283 1237.5 c 0
 1249 1181 1249 1181 1189 1110 c 0,2,3
 1139 1050 1139 1050 947 858 c 1,4,5
 976 848 976 848 999 848 c 0,6,7
 1036 848 1036 848 1086 895 c 1,8,9
 1048 806 1048 806 877 684 c 1,10,11
 877 679 l 2,12,13
 877 532 877 532 957 135 c 1,14,15
 988 124 988 124 1022 124 c 0,16,17
 1079 124 1079 124 1152 162 c 1,18,-1
 948 -96 l 1,19,20
 876 -95 876 -95 816 -75.5 c 0
 756 -56 756 -56 723 -33 c 0
 690 -10 690 -10 652.5 9 c 0
 615 28 615 28 583 28 c 0,21,22
 532 28 532 28 462 -21 c 1,23,-1
 672 228 l 1,24,25
 706 228 706 228 745 221 c 1,26,27
 744 230 744 230 744 252 c 0,28,29
 744 305 744 305 763 445.5 c 0
 782 586 782 586 782 639 c 2,30,31
 782 670 l 1,32,33
 715 708 715 708 607 907 c 0,34,35
 456 1185 456 1185 410 1251 c 0,36,37
 287 1425 287 1425 173 1425 c 0,38,39
 111 1425 111 1425 -5 1327 c 1,40,-1
 150 1497 l 1,41,42
 287 1628 287 1628 351 1628 c 0,43,44
 408 1628 408 1628 463.5 1586 c 0
 519 1544 519 1544 583 1460 c 0,45,46
 600 1438 600 1438 668 1300.5 c 0
 736 1163 736 1163 808 1031.5 c 0
 880 900 880 900 916 874 c 1,47,48
 1057.42702448 1051.17231638 1057.42702448 1051.17231638 1094.97475893 1107.79023741 c 0
 1169.60340359 1220.32215903 1169.60340359 1220.32215903 1228.7051517 1396.70595334 c 0
 1233.7519937 1411.76779448 1233.7519937 1411.76779448 1239 1428 c 1,49,50
 1188 1458 1188 1458 1151 1458 c 0,51,52
 1100 1458 1100 1458 1030 1409 c 1,53,-1
 1240 1658 l 1,54,55
 1297 1658 1297 1658 1349.5 1642 c 0
 1402 1626 1402 1626 1435 1606 c 0
 1468 1586 1468 1586 1510 1570 c 0
 1552 1554 1552 1554 1590 1554 c 0,56,57
 1649 1554 1649 1554 1720 1591 c 1,58,-1
 1516 1334 l 1,59,60
 1423 1335 1423 1335 1345 1369 c 1,0,1
EndSplineSet
Validated: 1
EndChar

StartChar: Z
Encoding: 90 90 58
Width: 1714
Flags: W
HStem: -49 201<878.145 1319.82> 59 199<361.031 604.974> 1300 238<886.551 1256.09> 1434 198<363.146 539.768>
LayerCount: 2
Fore
SplineSet
1019 -49 m 0,0,1
 908 -49 908 -49 655 5 c 0
 402 59 402 59 292 59 c 2,2,3
 290 59 l 2,4,5
 203 59 203 59 110 -49 c 1,6,7
 268 376 268 376 542 733 c 0,8,9
 738 988 738 988 1148 1384 c 1,10,-1
 1023 1323 l 1,11,12
 964 1300 964 1300 898 1300 c 0,13,14
 835 1300 835 1300 755 1321 c 0
 675 1342 675 1342 611 1367 c 0
 547 1392 547 1392 470 1413 c 0
 393 1434 393 1434 335 1434 c 0,15,16
 293 1434 293 1434 248 1412 c 0
 203 1390 203 1390 158.5 1359 c 0
 114 1328 114 1328 97 1320 c 1,17,-1
 280 1524 l 1,18,19
 394 1632 394 1632 518 1632 c 2,20,-1
 521 1632 l 2,21,22
 625 1632 625 1632 872.5 1585 c 0
 1120 1538 1120 1538 1232 1538 c 0,23,24
 1458 1538 1458 1538 1594 1638 c 1,25,26
 1496 1539 1496 1539 1359.5 1415 c 0
 1223 1291 1223 1291 1116 1199 c 0
 1009 1107 1009 1107 884.5 984 c 0
 760 861 760 861 664 748 c 0
 568 635 568 635 477 487 c 0
 386 339 386 339 325 180 c 1,27,28
 396 258 396 258 480 258 c 0,29,30
 585 258 585 258 832.5 205 c 0
 1080 152 1080 152 1187 152 c 0,31,32
 1486 152 1486 152 1695 289 c 1,33,34
 1499 87 1499 87 1400 31 c 0,35,36
 1257 -49 1257 -49 1019 -49 c 0,0,1
EndSplineSet
Validated: 1
EndChar

StartChar: bracketleft
Encoding: 91 91 59
Width: 596
VWidth: 1319
Flags: W
TeX: 83 0
HStem: -348 62<297 496> 1032 69<297 488>
VStem: 100 197<-286 1032>
LayerCount: 2
Fore
SplineSet
496 -348 m 1,0,-1
 100 -348 l 1,1,-1
 100 1101 l 1,2,-1
 488 1101 l 1,3,-1
 488 1032 l 1,4,-1
 297 1032 l 1,5,-1
 297 -286 l 1,6,-1
 496 -286 l 1,7,-1
 496 -348 l 1,0,-1
EndSplineSet
Validated: 1
EndChar

StartChar: backslash
Encoding: 92 92 60
Width: 718
Flags: W
LayerCount: 2
Fore
SplineSet
662 -16 m 1,0,-1
 559 -18 l 1,1,-1
 12 1180 l 1,2,-1
 117 1184 l 1,3,-1
 662 -16 l 1,0,-1
EndSplineSet
EndChar

StartChar: bracketright
Encoding: 93 93 61
Width: 593
VWidth: 1320
Flags: W
TeX: 83 0
HStem: -346 60<100 297> 1039 62<105 297>
VStem: 297 197<-286 1039>
LayerCount: 2
Fore
SplineSet
494 -346 m 1,0,-1
 100 -346 l 1,1,-1
 100 -286 l 1,2,-1
 297 -286 l 1,3,-1
 297 1039 l 1,4,-1
 105 1039 l 1,5,-1
 105 1101 l 1,6,-1
 494 1101 l 1,7,-1
 494 -346 l 1,0,-1
EndSplineSet
Validated: 1
EndChar

StartChar: asciicircum
Encoding: 94 94 62
Width: 831
Flags: W
LayerCount: 2
Fore
SplineSet
412 1212 m 1,0,-1
 770 782 l 1,1,-1
 717 739 l 1,2,-1
 412 1108 l 1,3,-1
 104 739 l 1,4,-1
 53 782 l 1,5,-1
 412 1212 l 1,0,-1
EndSplineSet
EndChar

StartChar: underscore
Encoding: 95 95 63
Width: 1122
Flags: W
LayerCount: 2
Fore
SplineSet
-35 -276 m 0,0,1
 -35 -247 -35 -247 -33 -244 c 0,2,3
 -27 -232 -27 -232 0 -231 c 2,4,-1
 1133 -229 l 2,5,6
 1160 -229 1160 -229 1161 -240 c 1,7,8
 1159 -232 1159 -232 1159 -272 c 0,9,10
 1159 -299 1159 -299 1155 -303 c 0,11,12
 1149 -313 1149 -313 1122 -313 c 2,13,-1
 0 -313 l 2,14,15
 -27 -313 -27 -313 -31 -308 c 128,-1,16
 -35 -303 -35 -303 -35 -276 c 0,0,1
EndSplineSet
EndChar

StartChar: grave
Encoding: 96 96 64
Width: 20
Flags: W
LayerCount: 2
Fore
SplineSet
-266 987 m 1,0,-1
 -279 977 l 1,1,-1
 -541 1253 l 1,2,3
 -533 1339 -533 1339 -455 1339 c 0,4,5
 -437 1339 -437 1339 -414 1335 c 1,6,-1
 -350 1176 l 1,7,-1
 -266 987 l 1,0,-1
EndSplineSet
EndChar

StartChar: a
Encoding: 97 97 65
Width: 1260
VWidth: 3442
Flags: W
HStem: -48 217<852 1098> -48 144<323 384.392> 770 265<561 737>
LayerCount: 2
Fore
SplineSet
323 96 m 1,0,1
 406 96 406 96 526 189.5 c 0
 646 283 646 283 710 408 c 1,2,-1
 676 573 l 1,3,4
 626 573 626 573 539.5 477.5 c 0
 453 382 453 382 388 266.5 c 0
 323 151 323 151 323 96 c 1,0,1
581 770 m 0,5,6
 561 770 561 770 521 755 c 0
 481 740 481 740 462 740 c 1,7,8
 467 752 467 752 476.5 772 c 0
 486 792 486 792 512.5 842.5 c 0
 539 893 539 893 563.5 932 c 0
 588 971 588 971 617.5 1003 c 0
 647 1035 647 1035 669 1035 c 0,9,10
 691 1035 691 1035 711.5 1024 c 0
 732 1013 732 1013 752 988 c 0
 772 963 772 963 789.5 932.5 c 0
 807 902 807 902 827 853 c 0
 847 804 847 804 865 756 c 0
 883 708 883 708 907.5 637.5 c 0
 932 567 932 567 953.5 502.5 c 0
 975 438 975 438 1006 347 c 0
 1037 256 1037 256 1065 177 c 0,11,12
 1071 169 1071 169 1084 169 c 0,13,14
 1119 169 1119 169 1209 227 c 1,15,16
 1193 198 1193 198 1176.5 171 c 0
 1160 144 1160 144 1127.5 101 c 0
 1095 58 1095 58 1063 28 c 0
 1031 -2 1031 -2 988 -25 c 0
 945 -48 945 -48 903 -48 c 0,17,18
 874 -48 874 -48 852 -25.5 c 0
 830 -3 830 -3 815.5 37.5 c 0
 801 78 801 78 791 118.5 c 0
 781 159 781 159 768.5 212.5 c 0
 756 266 756 266 745 298 c 1,19,20
 720 275 720 275 661.5 214.5 c 0
 603 154 603 154 562.5 118 c 0
 522 82 522 82 461 38.5 c 0
 400 -5 400 -5 332 -26.5 c 0
 264 -48 264 -48 189 -48 c 0,21,22
 150 -48 150 -48 96.5 -4.5 c 0
 43 39 43 39 43 63 c 0,23,24
 43 132 43 132 142.5 257 c 0
 242 382 242 382 380 504 c 0
 518 626 518 626 643 707 c 1,25,26
 635 745 635 745 623.5 757.5 c 0
 612 770 612 770 581 770 c 0,5,6
EndSplineSet
Validated: 1
EndChar

StartChar: b
Encoding: 98 98 66
Width: 1442
VWidth: 3330
Flags: W
HStem: 724 201<744 1141.5>
VStem: 300 237<326.485 654.147 684 1157.02> 1119 231<390 703>
LayerCount: 2
Fore
SplineSet
541 582 m 10,0,-1
 541 410 l 2,1,2
 541 370 541 370 571 336 c 1,3,4
 639 277 639 277 681.5 247.5 c 0
 724 218 724 218 782.5 198 c 0
 841 178 841 178 911 178 c 0,5,6
 1007 178 1007 178 1063 262.5 c 0
 1119 347 1119 347 1119 458 c 0,7,8
 1119 576 1119 576 1019.5 650 c 0
 920 724 920 724 789 724 c 0,9,10
 726 724 726 724 679.5 708.5 c 0
 633 693 633 693 569 656 c 1,11,12
 551 627 551 627 546 613.5 c 0
 541 600 541 600 541 582 c 10,0,-1
537 684 m 17,13,14
 548 692 548 692 601.5 734 c 0
 655 776 655 776 676 791.5 c 0
 697 807 697 807 749 839.5 c 0
 801 872 801 872 837 886 c 0
 873 900 873 900 925.5 912.5 c 0
 978 925 978 925 1029 925 c 0,15,16
 1111 925 1111 925 1171 901.5 c 0
 1231 878 1231 878 1267 834.5 c 0
 1303 791 1303 791 1322.5 738.5 c 0
 1342 686 1342 686 1350 618 c 1,17,18
 1350 542 1350 542 1301 454.5 c 0
 1252 367 1252 367 1173 288.5 c 0
 1094 210 1094 210 1001 141 c 0
 908 72 908 72 813.5 25 c 0
 719 -22 719 -22 645 -39 c 1,19,20
 524 -0 524 -0 437 64 c 0
 350 128 350 128 300 237 c 1,21,-1
 300 966 l 2,22,23
 300 1239 300 1239 45 1317 c 1,24,25
 108 1350 108 1350 195 1414.5 c 0
 282 1479 282 1479 345.5 1519.5 c 0
 409 1560 409 1560 453 1560 c 0,26,27
 518 1560 518 1560 544 1513 c 0
 570 1466 570 1466 570 1380 c 0,28,29
 570 1320 570 1320 553.5 1179.5 c 0
 537 1039 537 1039 537 978 c 2,30,-1
 537 684 l 17,13,14
EndSplineSet
Validated: 1
EndChar

StartChar: c
Encoding: 99 99 67
Width: 1247
VWidth: 3446
Flags: W
HStem: 0 108<424 872.6> 822 103<577.481 848.114>
VStem: 138 298<258.684 608.425>
LayerCount: 2
Fore
SplineSet
712 822 m 0,0,1
 685 822 685 822 667.5 820 c 0
 650 818 650 818 624 808 c 0
 598 798 598 798 572 778 c 0,2,3
 491 699 491 699 463.5 612 c 0
 436 525 436 525 436 393 c 0,4,5
 436 284 436 284 531.5 196 c 0
 627 108 627 108 750 108 c 0,6,7
 800 108 800 108 848 116.5 c 0
 896 125 896 125 927.5 133 c 0
 959 141 959 141 1010.5 166 c 0
 1062 191 1062 191 1083.5 203 c 0
 1105 215 1105 215 1170 252 c 1,8,9
 1121 147 1121 147 957.5 73.5 c 0
 794 0 794 0 546 0 c 0,10,11
 363 0 363 0 250.5 109 c 0
 138 218 138 218 138 392 c 0,12,13
 138 644 138 644 315.5 784.5 c 0
 493 925 493 925 782 925 c 0,14,15
 1110 925 1110 925 1110 769 c 0,16,17
 1110 728 1110 728 1082 706.5 c 0
 1054 685 1054 685 970 685 c 0,18,19
 897 685 897 685 850 777 c 0,20,21
 837 798 837 798 815 808.5 c 0
 793 819 793 819 773.5 820.5 c 0
 754 822 754 822 712 822 c 0,0,1
EndSplineSet
Validated: 1
EndChar

StartChar: d
Encoding: 100 100 68
Width: 1699
VWidth: 3318
Flags: W
HStem: -5 129<410 802.605> 786 120<577.175 1033.49>
VStem: 139 266<294.71 532.423> 1116 252<212.859 713.735 906 1214.87>
LayerCount: 2
Fore
SplineSet
1116 235 m 9,0,-1
 1116 660 l 1,1,2
 1097 696 1097 696 1063.5 721 c 0
 1030 746 1030 746 997 758.5 c 0
 964 771 964 771 913 777.5 c 0
 862 784 862 784 829.5 785 c 0
 797 786 797 786 743 786 c 2,3,4
 653 786 l 2,5,6
 631 786 631 786 590.5 757 c 0
 550 728 550 728 508.5 683.5 c 0
 467 639 467 639 436 577 c 0
 405 515 405 515 405 459 c 0,7,8
 405 322 405 322 498.5 223 c 0
 592 124 592 124 727 124 c 0,9,10
 851 124 851 124 923.5 147 c 0
 996 170 996 170 1116 235 c 9,0,-1
861 1280 m 1,11,12
 883 1302 883 1302 924.5 1348 c 0
 966 1394 966 1394 991 1418 c 0
 1016 1442 1016 1442 1056 1471.5 c 0
 1096 1501 1096 1501 1142 1514 c 0
 1188 1527 1188 1527 1244 1527 c 0,13,14
 1376 1527 1376 1527 1376 1198 c 0,15,16
 1376 1137 1376 1137 1372 1020.5 c 0
 1368 904 1368 904 1368 858 c 2,17,-1
 1368 324 l 2,18,19
 1368 269 1368 269 1385.5 230.5 c 0
 1403 192 1403 192 1428 171.5 c 0
 1453 151 1453 151 1495 139.5 c 0
 1537 128 1537 128 1570.5 125.5 c 0
 1604 123 1604 123 1654 123 c 1,20,21
 1505 -50 1505 -50 1287 -50 c 0,22,23
 1257 -50 1257 -50 1236.5 -42 c 0
 1216 -34 1216 -34 1201 -14.5 c 0
 1186 5 1186 5 1177.5 22 c 0
 1169 39 1169 39 1154.5 74.5 c 0
 1140 110 1140 110 1129 132 c 1,24,25
 1055 116 1055 116 966 89 c 0
 877 62 877 62 818 43 c 0
 759 24 759 24 675.5 9.5 c 0
 592 -5 592 -5 506 -5 c 0,26,27
 358 -5 358 -5 248.5 88.5 c 0
 139 182 139 182 139 322 c 0,28,29
 139 488 139 488 231.5 623.5 c 0
 324 759 324 759 473.5 832.5 c 0
 623 906 623 906 795 906 c 2,30,31
 1129 906 l 1,32,-1
 1129 1088 l 2,33,34
 1129 1136 1129 1136 1115 1167 c 0
 1101 1198 1101 1198 1071.5 1215 c 0
 1042 1232 1042 1232 1014.5 1240.5 c 0
 987 1249 987 1249 939 1259.5 c 0
 891 1270 891 1270 861 1280 c 1,11,12
EndSplineSet
Validated: 1
EndChar

StartChar: e
Encoding: 101 101 69
Width: 1365
VWidth: 3447
Flags: W
HStem: 0 148<529.42 902.507> 446 90<421 832.821> 806 119<523.4 866.759>
VStem: 139 272<266.585 438.031>
LayerCount: 2
Fore
SplineSet
421 536 m 1,0,1
 632 536 632 536 907 592 c 0,2,3
 911 591 911 591 919 591 c 0,4,5
 963 591 963 591 963 642 c 1,6,7
 946 695 946 695 912.5 730 c 0
 879 765 879 765 830 780.5 c 0
 781 796 781 796 736.5 801 c 0
 692 806 692 806 629 806 c 0,8,9
 582 806 582 806 541 778 c 0
 500 750 500 750 474.5 708 c 0
 449 666 449 666 435 620.5 c 0
 421 575 421 575 421 536 c 1,0,1
1255 264 m 1,10,11
 1152 147 1152 147 982.5 73.5 c 0
 813 0 813 0 599 0 c 0,12,13
 502 0 502 0 420.5 21 c 0
 339 42 339 42 275 85 c 0
 211 128 211 128 175 200.5 c 0
 139 273 139 273 139 368 c 0,14,15
 139 479 139 479 173 573.5 c 0
 207 668 207 668 261.5 731.5 c 0
 316 795 316 795 386 840 c 0
 456 885 456 885 527 905 c 0
 598 925 598 925 667 925 c 0,16,17
 1127 925 1127 925 1259 628 c 1,18,19
 1254 609 1254 609 1243 586 c 0
 1232 563 1232 563 1223.5 549.5 c 2
 1215 536 l 1,20,21
 1132 526 1132 526 967.5 500.5 c 0
 803 475 803 475 671.5 460.5 c 0
 540 446 540 446 411 446 c 1,22,23
 411 372 411 372 429.5 317 c 0
 448 262 448 262 477 230.5 c 0
 506 199 506 199 549 180 c 0
 592 161 592 161 633 154.5 c 0
 674 148 674 148 725 148 c 2,24,25
 789 148 l 2,26,27
 871 148 871 148 947.5 164.5 c 0
 1024 181 1024 181 1071.5 201.5 c 0
 1119 222 1119 222 1170 241.5 c 0
 1221 261 1221 261 1255 264 c 1,10,11
EndSplineSet
Validated: 1
EndChar

StartChar: f
Encoding: 102 102 70
Width: 1536
VWidth: 3454
Flags: W
HStem: 771 143<193 406 655 1075> 1410 154<730.639 1101.77>
VStem: 406 249<-221.47 771 914 1282.39> 1178 291<1185.08 1315.16>
LayerCount: 2
Fore
SplineSet
406 913 m 25,0,-1
 406 1136 l 2,1,2
 406 1209 406 1209 451.5 1286.5 c 0
 497 1364 497 1364 570 1425 c 0
 643 1486 643 1486 743 1525 c 0
 843 1564 843 1564 945 1564 c 0,3,4
 1007 1564 1007 1564 1056 1562 c 0
 1105 1560 1105 1560 1161.5 1553.5 c 0
 1218 1547 1218 1547 1260 1535.5 c 0
 1302 1524 1302 1524 1343 1504.5 c 0
 1384 1485 1384 1485 1410.5 1458 c 0
 1437 1431 1437 1431 1453 1392 c 0
 1469 1353 1469 1353 1469 1304 c 0,5,6
 1469 1152 1469 1152 1313 1152 c 0,7,8
 1261 1152 1261 1152 1219.5 1184 c 0
 1178 1216 1178 1216 1178 1266 c 0,9,10
 1178 1291 1178 1291 1189 1316 c 1,11,12
 1139 1357 1139 1357 1053.5 1383.5 c 0
 968 1410 968 1410 884 1410 c 0,13,14
 782 1410 782 1410 717.5 1367 c 0
 653 1324 653 1324 653 1232 c 2,15,-1
 653 914 l 1,16,-1
 1233 914 l 1,17,-1
 1075 771 l 1,18,-1
 655 771 l 1,19,-1
 655 69 l 2,20,21
 655 -139 655 -139 670 -251.5 c 0
 685 -364 685 -364 742 -450 c 1,22,23
 726 -442 726 -442 693 -426.5 c 0
 660 -411 660 -411 643 -403 c 0
 626 -395 626 -395 597 -378.5 c 0
 568 -362 568 -362 552 -349.5 c 0
 536 -337 536 -337 512.5 -315.5 c 0
 489 -294 489 -294 476 -272.5 c 0
 463 -251 463 -251 447.5 -220 c 0
 432 -189 432 -189 424.5 -155 c 0
 417 -121 417 -121 411.5 -77 c 0
 406 -33 406 -33 406 18 c 2,24,-1
 406 771 l 1,25,-1
 73 771 l 1,26,-1
 193 913 l 1,27,-1
 406 913 l 25,0,-1
EndSplineSet
Validated: 1
EndChar

StartChar: g
Encoding: 103 103 71
Width: 1435
Flags: W
HStem: -648 270<592.008 1031.04> 78 162<498.573 772.116> 759 189<473.586 776.216>
VStem: 160 180<389.565 660.164> 880 231<402.785 662.013> 1139 180<-332.449 -101.138>
LayerCount: 2
Fore
SplineSet
619 759 m 24,0,1
 509 759 509 759 424.5 699 c 0
 340 639 340 639 340 540 c 0,2,3
 340 414 340 414 435.5 327 c 0
 531 240 531 240 661 240 c 0,4,5
 730 240 730 240 781 285 c 0
 832 330 832 330 856 396 c 0
 880 462 880 462 880 537 c 0,6,7
 880 634 880 634 802 696.5 c 0
 724 759 724 759 619 759 c 24,0,1
1111 573 m 0,8,9
 1111 528 1111 528 1101.5 489.5 c 0
 1092 451 1092 451 1082 426.5 c 0
 1072 402 1072 402 1046 371.5 c 0
 1020 341 1020 341 1006.5 328.5 c 0
 993 316 993 316 956 285 c 0
 919 254 919 254 907 243 c 1,10,11
 1017 228 1017 228 1090 201 c 0
 1163 174 1163 174 1216.5 124 c 0
 1270 74 1270 74 1294.5 -3.5 c 0
 1319 -81 1319 -81 1319 -193 c 1,12,13
 1301 -366 1301 -366 1067 -593 c 1,14,15
 882 -648 882 -648 707 -648 c 0,16,17
 358 -648 358 -648 28 -419 c 1,18,19
 28 -254 28 -254 164 -87 c 1,20,21
 303 -227 303 -227 501.5 -302.5 c 0
 700 -378 700 -378 880 -378 c 0,22,23
 1056 -378 1056 -378 1139 -309 c 1,24,25
 1139 -198 1139 -198 1107 -120 c 0
 1075 -42 1075 -42 1015.5 0 c 0
 956 42 956 42 884 60 c 0
 812 78 812 78 718 78 c 0,26,27
 429 78 429 78 294.5 182.5 c 0
 160 287 160 287 160 531 c 0,28,29
 160 627 160 627 213.5 709 c 0
 267 791 267 791 349 841.5 c 0
 431 892 431 892 521.5 920 c 0
 612 948 612 948 694 948 c 0,30,31
 889 948 889 948 1000 845 c 0
 1111 742 1111 742 1111 573 c 0,8,9
EndSplineSet
Validated: 1
EndChar

StartChar: h
Encoding: 104 104 72
Width: 1686
VWidth: 3326
Flags: W
HStem: 677 229<791.5 1214.84>
VStem: 311 265<125.529 576.945 661 1132.64> 1289 297<251 478.548>
LayerCount: 2
Fore
SplineSet
575 661 m 17,0,1
 643 721 643 721 688 756 c 0
 733 791 733 791 798.5 830.5 c 0
 864 870 864 870 933.5 888 c 0
 1003 906 1003 906 1082 906 c 0,2,3
 1213 906 1213 906 1327.5 851.5 c 0
 1442 797 1442 797 1514 695 c 0
 1586 593 1586 593 1586 467 c 0,4,5
 1586 411 1586 411 1552.5 348 c 0
 1519 285 1519 285 1465 229.5 c 0
 1411 174 1411 174 1355.5 129.5 c 0
 1300 85 1300 85 1244 50 c 1,6,7
 1289 174 1289 174 1289 288 c 0,8,9
 1289 463 1289 463 1178.5 570 c 0
 1068 677 1068 677 860 677 c 0,10,11
 761 677 761 677 699 642 c 0
 637 607 637 607 576 523 c 1,12,-1
 576 343 l 2,13,14
 576 296 576 296 569.5 253.5 c 0
 563 211 563 211 553.5 178 c 0
 544 145 544 145 526 114 c 0
 508 83 508 83 493.5 61.5 c 0
 479 40 479 40 453 17.5 c 0
 427 -5 427 -5 410.5 -18.5 c 0
 394 -32 394 -32 363 -49.5 c 0
 332 -67 332 -67 317 -74.5 c 0
 302 -82 302 -82 270 -97.5 c 0
 238 -113 238 -113 227 -118 c 1,15,16
 273 -11 273 -11 292 103 c 0
 311 217 311 217 311 404 c 2,17,-1
 311 968 l 2,18,19
 311 1036 311 1036 292.5 1087 c 0
 274 1138 274 1138 239 1169.5 c 0
 204 1201 204 1201 164.5 1219.5 c 0
 125 1238 125 1238 74 1250 c 1,20,21
 165 1358 165 1358 270.5 1434.5 c 0
 376 1511 376 1511 455 1511 c 0,22,23
 494 1511 494 1511 520 1493 c 0
 546 1475 546 1475 559.5 1439.5 c 0
 573 1404 573 1404 578 1363 c 0
 583 1322 583 1322 583 1265 c 0,24,25
 583 1223 583 1223 579 1129.5 c 0
 575 1036 575 1036 575 989 c 2,26,-1
 575 661 l 17,0,1
EndSplineSet
Validated: 1
EndChar

StartChar: i
Encoding: 105 105 73
Width: 826
VWidth: 3384
Flags: W
HStem: 0 154<362 619.239> 682 243<209 422.5>
VStem: 235 246<171.771 419.203> 303 256<455.684 740.622>
LayerCount: 2
Fore
SplineSet
303 530 m 0,0,1
 303 561 303 561 301 583 c 0
 299 605 299 605 293 630 c 0
 287 655 287 655 272.5 668.5 c 0
 258 682 258 682 235 682 c 0,2,3
 212 682 212 682 194.5 670.5 c 0
 177 659 177 659 157 638.5 c 0
 137 618 137 618 121 608 c 1,4,5
 130 645 130 645 134 660 c 0
 138 675 138 675 150.5 716 c 0
 163 757 163 757 173 778.5 c 0
 183 800 183 800 202 832.5 c 0
 221 865 221 865 240.5 882 c 0
 260 899 260 899 288 912 c 0
 316 925 316 925 347 925 c 0,6,7
 453 925 453 925 506 853 c 0
 559 781 559 781 559 673 c 0,8,9
 559 635 559 635 551 592 c 0,10,11
 542 547 542 547 522.5 484 c 0
 503 421 503 421 492 370 c 0
 481 319 481 319 481 260 c 0,12,13
 481 221 481 221 506.5 189.5 c 0
 532 158 532 158 565 154 c 1,14,15
 607 154 607 154 668.5 180.5 c 0
 730 207 730 207 765 207 c 0,16,17
 775 207 775 207 781 206 c 1,18,19
 733 107 733 107 637 53.5 c 0
 541 0 541 0 419 0 c 0,20,21
 335 0 335 0 285 55.5 c 0
 235 111 235 111 235 198 c 0,22,23
 235 265 235 265 269 383 c 0
 303 501 303 501 303 530 c 0,0,1
EndSplineSet
Validated: 1
EndChar

StartChar: j
Encoding: 106 106 74
Width: 839
VWidth: 3522
Flags: W
VStem: 383 252<-215.344 532.097>
LayerCount: 2
Fore
SplineSet
259 1232 m 17,0,1
 311 1302 311 1302 359 1347.5 c 0
 407 1393 407 1393 463 1412 c 1,2,-1
 659 1228 l 1,3,4
 591 1199 591 1199 543 1159.5 c 0
 495 1120 495 1120 463 1052 c 1,5,-1
 259 1232 l 17,0,1
115 684 m 1,6,7
 156 715 156 715 216.5 770 c 0
 277 825 277 825 310.5 852 c 0
 344 879 344 879 401 902 c 0
 458 925 458 925 523 925 c 0,8,9
 562 925 562 925 587.5 907.5 c 0
 613 890 613 890 625.5 857 c 0
 638 824 638 824 642.5 788 c 0
 647 752 647 752 647 703 c 0,10,11
 647 675 647 675 645 621.5 c 0
 643 568 643 568 643 544 c 0,12,13
 643 431 643 431 639 254 c 0
 635 77 635 77 635 -36 c 0,14,15
 635 -102 635 -102 615.5 -162 c 0
 596 -222 596 -222 558 -271 c 0
 520 -320 520 -320 477 -360.5 c 0
 434 -401 434 -401 375 -437.5 c 0
 316 -474 316 -474 266.5 -499 c 0
 217 -524 217 -524 155 -552 c 1,16,17
 175 -522 175 -522 213.5 -473.5 c 0
 252 -425 252 -425 276.5 -388.5 c 0
 301 -352 301 -352 328.5 -300 c 0
 356 -248 356 -248 369.5 -182 c 0
 383 -116 383 -116 383 -36 c 2,18,-1
 383 432 l 2,19,20
 383 500 383 500 301.5 572 c 0
 220 644 220 644 115 684 c 1,6,7
EndSplineSet
Validated: 1
EndChar

StartChar: k
Encoding: 107 107 75
Width: 1448
VWidth: 3322
Flags: W
HStem: 0 21G<948.5 1125>
VStem: 312 253<97.0494 270 380 1089.95> 863 296<664.25 875.672>
LayerCount: 2
Fore
SplineSet
1416 156 m 1,0,1
 1314 58 1314 58 1241.5 29 c 0
 1169 0 1169 0 1047 0 c 0,2,3
 991 0 991 0 945 19 c 0
 899 38 899 38 863 72 c 0
 827 106 827 106 796 142 c 0
 765 178 765 178 722.5 222.5 c 0
 680 267 680 267 639 297 c 0,4,5
 636 298 636 298 629 298 c 2,6,-1
 561 270 l 1,7,8
 561 233 561 233 555.5 200.5 c 0
 550 168 550 168 542.5 143 c 0
 535 118 535 118 519 94 c 0
 503 70 503 70 491 54 c 0
 479 38 479 38 455.5 20.5 c 0
 432 3 432 3 418.5 -6.5 c 0
 405 -16 405 -16 375.5 -30 c 0
 346 -44 346 -44 333.5 -49 c 0
 321 -54 321 -54 289 -67 c 0
 257 -80 257 -80 247 -84 c 1,9,10
 291 8 291 8 301.5 66 c 0
 312 124 312 124 312 218 c 2,11,-1
 312 881 l 2,12,13
 312 942 312 942 305.5 987 c 0
 299 1032 299 1032 283.5 1061.5 c 0
 268 1091 268 1091 250 1109 c 0
 232 1127 232 1127 202 1136 c 0
 172 1145 172 1145 143.5 1148 c 0
 115 1151 115 1151 72 1151 c 1,14,15
 86 1164 86 1164 124 1202.5 c 0
 162 1241 162 1241 181.5 1260 c 0
 201 1279 201 1279 239 1309.5 c 0
 277 1340 277 1340 307 1355 c 0
 337 1370 337 1370 378.5 1382 c 0
 420 1394 420 1394 462 1394 c 0,16,17
 526 1394 526 1394 546 1343 c 0
 566 1292 566 1292 566 1178 c 0,18,19
 566 1156 566 1156 565.5 1101 c 0
 565 1046 565 1046 565 1014 c 2,20,-1
 565 380 l 1,21,-1
 923 644 l 1,22,23
 915 655 915 655 900 673.5 c 0
 885 692 885 692 879.5 701 c 0
 874 710 874 710 868.5 730 c 0
 863 750 863 750 863 776 c 0,24,25
 863 837 863 837 905 881 c 0
 947 925 947 925 1007 925 c 0,26,27
 1071 925 1071 925 1115 877 c 0
 1159 829 1159 829 1159 764 c 0,28,29
 1159 719 1159 719 1140 685.5 c 0
 1121 652 1121 652 1087.5 628 c 0
 1054 604 1054 604 1018 584.5 c 0
 982 565 982 565 937.5 538.5 c 0
 893 512 893 512 863 483 c 1,30,-1
 1218 162 l 2,31,32
 1240 144 1240 144 1307 144 c 0,33,34
 1331 144 1331 144 1357.5 146.5 c 0
 1384 149 1384 149 1399.5 151.5 c 0
 1415 154 1415 154 1416 156 c 1,0,1
EndSplineSet
Validated: 1
EndChar

StartChar: l
Encoding: 108 108 76
Width: 1210
VWidth: 3321
Flags: W
HStem: 0 213<485.5 865.305>
VStem: 282 239<301.025 1251.08>
LayerCount: 2
Fore
SplineSet
62 1307 m 1,0,1
 111 1347 111 1347 156.5 1397 c 0
 202 1447 202 1447 224.5 1472.5 c 0
 247 1498 247 1498 290 1517 c 0
 333 1536 333 1536 398 1536 c 0,2,3
 529 1536 529 1536 529 1364 c 0,4,5
 529 1332 529 1332 525 1268.5 c 0
 521 1205 521 1205 521 1178 c 2,6,-1
 521 496 l 2,7,8
 521 342 521 342 580.5 277.5 c 0
 640 213 640 213 752 213 c 0,9,10
 806 213 806 213 884.5 229 c 0
 963 245 963 245 1013.5 260 c 0
 1064 275 1064 275 1173 308 c 1,11,12
 1064.41937041 186.177830222 1064.41937041 186.177830222 1046.17899334 167.853125795 c 0
 946.564606047 67.7782098024 946.564606047 67.7782098024 833.480944624 31.698989469 c 0
 734.126308923 0 734.126308923 0 589 0 c 0,13,14
 282 0 282 0 282 376 c 2,15,-1
 282 1163 l 2,16,17
 282 1225 282 1225 217.5 1266 c 0
 153 1307 153 1307 62 1307 c 1,0,1
EndSplineSet
Validated: 1
EndChar

StartChar: m
Encoding: 109 109 77
Width: 2587
VWidth: 3441
Flags: W
HStem: 0 21G<343.5 429> 585 340<236.5 514> 729 211<1780.5 2268> 747 193<966.872 1046.03>
VStem: 384 341<151.455 517.486> 1230 344<180.462 537.647> 2167 316<332.036 548.617>
LayerCount: 2
Fore
SplineSet
51 448 m 1,0,1
 219 720 219 720 303.5 822.5 c 0
 388 925 388 925 455 925 c 0,2,3
 477 925 477 925 496 919 c 0
 515 913 515 913 529 903.5 c 0
 543 894 543 894 557 878.5 c 0
 571 863 571 863 580 848.5 c 0
 589 834 589 834 599.5 812.5 c 0
 610 791 610 791 616 775.5 c 0
 622 760 622 760 631.5 736.5 c 0
 641 713 641 713 647 700 c 1,4,5
 659 708 659 708 681.969892414 725.041147811 c 0
 749 773 749 773 783 796.5 c 0
 817 820 817 820 874.5 853.5 c 0
 932 887 932 887 975.5 901.5 c 0
 1019 916 1019 916 1078.5 928 c 0
 1138 940 1138 940 1203 940 c 0,6,7
 1256 940 1256 940 1299 927 c 0
 1342 914 1342 914 1370 897 c 0
 1398 880 1398 880 1427 845 c 0
 1456 810 1456 810 1470.5 786 c 0
 1485 762 1485 762 1511 716 c 1,8,9
 1692 844 1692 844 1828.5 892 c 0
 1965 940 1965 940 2163 940 c 0,10,11
 2239 940 2239 940 2301 902.5 c 0
 2363 865 2363 865 2402 802.5 c 0
 2441 740 2441 740 2462 664 c 0
 2483 588 2483 588 2483 508 c 0,12,13
 2483 427 2483 427 2450 354 c 0
 2417 281 2417 281 2365.5 229.5 c 0
 2314 178 2314 178 2246.5 135.5 c 0
 2179 93 2179 93 2116 68 c 0
 2053 43 2053 43 1991 28 c 1,14,15
 2071 106 2071 106 2119 180.5 c 0
 2167 255 2167 255 2167 340 c 0,16,17
 2167 516 2167 516 2074.5 622.5 c 0
 1982 729 1982 729 1823 729 c 0,18,19
 1687 729 1687 729 1531 648 c 1,20,21
 1574 501 1574 501 1574 383 c 0,22,23
 1574 202 1574 202 1472.5 101 c 0
 1371 0 1371 0 1163 0 c 1,24,25
 1230 175 1230 175 1230 324 c 0,26,27
 1230 616 1230 616 974 747 c 1,28,29
 779 747 779 747 677 597 c 1,30,31
 725 444 725 444 725 333 c 0,32,33
 725 0 725 0 327 0 c 1,34,35
 384 155 384 155 384 312 c 0,36,37
 384 501 384 501 291 580 c 1,38,39
 278 585 278 585 268 585 c 0,40,41
 240 585 240 585 204.5 561.5 c 0
 169 538 169 538 124.5 501 c 0
 80 464 80 464 51 448 c 1,0,1
EndSplineSet
Validated: 1
EndChar

StartChar: n
Encoding: 110 110 78
Width: 1683
VWidth: 3441
Flags: W
HStem: 5 21G<343.5 429 1183.5 1306> 590 340<236.5 514> 752 193<974 1203>
VStem: 384 341<156.455 522.486> 1230 344<185.462 542.865>
LayerCount: 2
Fore
SplineSet
1531 653 m 1,0,1
 1574 553 1574 553 1574 388 c 0,2,3
 1574 207 1574 207 1472.5 106 c 0
 1371 5 1371 5 1163 5 c 1,4,5
 1230 180 1230 180 1230 329 c 0,6,7
 1230 621 1230 621 974 752 c 1,8,9
 779 752 779 752 677 602 c 1,10,11
 725 449 725 449 725 338 c 0,12,13
 725 5 725 5 327 5 c 1,14,15
 384 160 384 160 384 317 c 0,16,17
 384 506 384 506 291 585 c 1,18,19
 278 590 278 590 268 590 c 0,20,21
 240 590 240 590 204.5 566.5 c 0
 169 543 169 543 124.5 506 c 0
 80 469 80 469 51 453 c 1,22,23
 219 725 219 725 303.5 827.5 c 0
 388 930 388 930 455 930 c 0,24,25
 477 930 477 930 496 924 c 0
 515 918 515 918 529 908.5 c 0
 543 899 543 899 557 883.5 c 0
 571 868 571 868 580 853.5 c 0
 589 839 589 839 599.5 817.5 c 0
 610 796 610 796 616 780.5 c 0
 622 765 622 765 631.5 741.5 c 0
 641 718 641 718 647 705 c 1,26,27
 771 823 771 823 925 884 c 0
 1079 945 1079 945 1203 945 c 0,28,29
 1268 945 1268 945 1324 920.5 c 0
 1380 896 1380 896 1419.5 853 c 0
 1459 810 1459 810 1486.5 760.5 c 0
 1514 711 1514 711 1531 653 c 1,0,1
EndSplineSet
Validated: 1
EndChar

StartChar: o
Encoding: 111 111 79
Width: 1540
VWidth: 3442
Flags: W
HStem: -22 184<472 964.5> 804 136<708.939 1134>
VStem: 128 355<343.276 532.275> 1107 343<399.5 613.445>
LayerCount: 2
Fore
SplineSet
758 804 m 24,0,1
 639 804 639 804 561 710.5 c 128,-1,2
 483 617 483 617 483 491 c 0,3,4
 483 428 483 428 508.5 373.5 c 128,-1,5
 534 319 534 319 578 281 c 128,-1,6
 622 243 622 243 679.5 215.5 c 128,-1,7
 737 188 737 188 801 175 c 128,-1,8
 865 162 865 162 931 162 c 0,9,10
 963 162 963 162 1005.5 214.5 c 128,-1,11
 1048 267 1048 267 1077.5 333.5 c 128,-1,12
 1107 400 1107 400 1107 441 c 0,13,14
 1107 589 1107 589 1005.5 696.5 c 128,-1,15
 904 804 904 804 758 804 c 24,0,1
128 368 m 0,16,17
 128 447 128 447 166 523 c 128,-1,18
 204 599 204 599 269 661 c 128,-1,19
 334 723 334 723 422 776 c 128,-1,20
 510 829 510 829 609.5 864.5 c 128,-1,21
 709 900 709 900 817 920 c 128,-1,22
 925 940 925 940 1028 940 c 0,23,24
 1135 940 1135 940 1231 897 c 128,-1,25
 1327 854 1327 854 1388.5 774 c 128,-1,26
 1450 694 1450 694 1450 596 c 0,27,28
 1450 500 1450 500 1373 389.5 c 128,-1,29
 1296 279 1296 279 1176 188.5 c 128,-1,30
 1056 98 1056 98 897.5 38 c 128,-1,31
 739 -22 739 -22 590 -22 c 0,32,33
 471 -22 471 -22 366 25.5 c 128,-1,34
 261 73 261 73 194.5 163.5 c 128,-1,35
 128 254 128 254 128 368 c 0,16,17
EndSplineSet
Validated: 1
EndChar

StartChar: p
Encoding: 112 112 80
Width: 1690
VWidth: 3591
Flags: W
HStem: 0 154<667.127 984.985> 753 172<817 1253>
VStem: 325 252<-359.516 0 226.929 574.977> 1211 382<272 713>
LayerCount: 2
Fore
SplineSet
577 303 m 18,0,1
 577 255 577 255 629 220 c 0
 681 185 681 185 751 169.5 c 0
 821 154 821 154 894 154 c 0,2,3
 952 154 952 154 1005 164 c 0
 1058 174 1058 174 1106 194.5 c 0
 1154 215 1154 215 1182.5 254 c 0
 1211 293 1211 293 1211 344 c 0,4,5
 1211 448 1211 448 1172 540.5 c 0
 1133 633 1133 633 1056 693 c 0
 979 753 979 753 881 753 c 0,6,7
 792 753 792 753 720.5 721 c 0
 649 689 649 689 577 629 c 1,8,-1
 577 303 l 18,0,1
85 674 m 1,9,10
 105 722 105 722 178 782 c 0
 251 842 251 842 335.5 883.5 c 0
 420 925 420 925 471 925 c 0,11,12
 531 925 531 925 562 882.5 c 0
 593 840 593 840 593 780 c 1,13,14
 658 797 658 797 736 826 c 0
 814 855 814 855 865.5 874.5 c 0
 917 894 917 894 990.5 909.5 c 0
 1064 925 1064 925 1141 925 c 0,15,16
 1213 925 1213 925 1274.5 915.5 c 0
 1336 906 1336 906 1396.5 881.5 c 0
 1457 857 1457 857 1499 818.5 c 0
 1541 780 1541 780 1567 717 c 0
 1593 654 1593 654 1593 572 c 0,17,18
 1593 476 1593 476 1554.5 394.5 c 0
 1516 313 1516 313 1452.5 255 c 0
 1389 197 1389 197 1301.5 151.5 c 0
 1214 106 1214 106 1121.5 78.5 c 0
 1029 51 1029 51 926.5 32.5 c 0
 824 14 824 14 737 7 c 0
 650 0 650 0 567 0 c 1,19,-1
 567 -170 l 2,20,21
 567 -318 567 -318 591 -419 c 0
 615 -520 615 -520 663 -622 c 1,22,23
 618 -595 618 -595 589.5 -577 c 0
 561 -559 561 -559 521.5 -530.5 c 0
 482 -502 482 -502 457 -477.5 c 0
 432 -453 432 -453 404.5 -418 c 0
 377 -383 377 -383 361.5 -347 c 0
 346 -311 346 -311 335.5 -264.5 c 0
 325 -218 325 -218 325 -166 c 2,24,-1
 325 470 l 2,25,26
 325 541 325 541 249.5 607.5 c 0
 174 674 174 674 85 674 c 1,9,10
EndSplineSet
Validated: 1
EndChar

StartChar: q
Encoding: 113 113 81
Width: 1362
VWidth: 3568
Flags: W
HStem: 75 179<373.5 777.5> 765 160<549.349 854.251>
VStem: 136 330<395.548 648.294> 922 261<-153.23 224 309.055 705.914>
LayerCount: 2
Fore
SplineSet
922 379 m 10,0,-1
 922 675 l 1,1,2
 814 765 814 765 696 765 c 0,3,4
 583 765 583 765 501 680 c 1,5,6
 466 629 466 629 466 541 c 0,7,8
 466 468 466 468 499 412 c 0,9,10
 596 254 596 254 713 254 c 0,11,12
 802 254 802 254 862 296.5 c 0
 922 339 922 339 922 379 c 10,0,-1
967 -159 m 1,13,14
 931 5 931 5 931 224 c 1,15,16
 869 204 869 204 784 162.5 c 0
 699 121 699 121 628.5 98 c 0
 558 75 558 75 475 75 c 0,17,18
 328 75 328 75 232 194 c 0
 136 313 136 313 136 471 c 0,19,20
 136 578 136 578 189 666 c 0
 242 754 242 754 329 809.5 c 0
 416 865 416 865 522.5 895 c 0
 629 925 629 925 742 925 c 0,21,22
 807 925 807 925 863.5 912 c 0
 920 899 920 899 989 875.5 c 0
 1058 852 1058 852 1108 840 c 1,23,-1
 1195 856 l 1,24,25
 1195 737 1195 737 1189 495 c 0
 1183 253 1183 253 1183 133 c 0,26,27
 1183 -211 1183 -211 1222 -435 c 1,28,29
 1179 -502 1179 -502 1099 -579 c 1,30,31
 1030 -524 1030 -524 990 -493.5 c 0
 950 -463 950 -463 884.5 -418 c 0
 819 -373 819 -373 768.5 -348 c 0
 718 -323 718 -323 653.5 -300.5 c 0
 589 -278 589 -278 526 -270 c 1,32,-1
 706 -30 l 1,33,34
 894 -86 894 -86 967 -159 c 1,13,14
EndSplineSet
Validated: 1
EndChar

StartChar: r
Encoding: 114 114 82
Width: 1453
VWidth: 3452
Flags: W
HStem: 600 200<905 1277> 710 186<607 980>
VStem: 294 266<146.598 602.565>
LayerCount: 2
Fore
SplineSet
568 766 m 9,0,1
 615 784 615 784 680 820 c 0
 745 856 745 856 798.5 876 c 0
 852 896 852 896 916 896 c 0,2,3
 969 896 969 896 1021 872 c 0
 1073 848 1073 848 1125 824 c 0
 1177 800 1177 800 1230 800 c 0,4,5
 1272 800 1272 800 1304.5 818 c 0
 1337 836 1337 836 1375 868 c 0
 1413 900 1413 900 1442 916 c 1,6,7
 1419 872 1419 872 1401 842 c 0
 1383 812 1383 812 1353.5 771 c 0
 1324 730 1324 730 1292.5 703 c 0
 1261 676 1261 676 1220.5 650.5 c 0
 1180 625 1180 625 1128 612.5 c 0
 1076 600 1076 600 1016 600 c 0,8,9
 940 600 940 600 871.5 617 c 0
 803 634 803 634 763.5 655 c 0
 724 676 724 676 686.5 693 c 0
 649 710 649 710 628 710 c 0,10,11
 598 710 598 710 579 691 c 0
 560 672 560 672 560 648 c 2,12,-1
 560 282 l 2,13,14
 560 186 560 186 475 86.5 c 0
 390 -13 390 -13 240 -86 c 1,15,16
 264 -22 264 -22 279 113 c 0
 294 248 294 248 294 384 c 0,17,18
 294 447 294 447 287 493 c 0
 280 539 280 539 260.5 585.5 c 0
 241 632 241 632 200.5 663 c 0
 160 694 160 694 98 710 c 1,19,20
 157 767 157 767 189.5 796.5 c 0
 222 826 222 826 272.5 865.5 c 0
 323 905 323 905 365.5 922.5 c 0
 408 940 408 940 448 940 c 0,21,22
 477 940 477 940 498.5 925 c 0
 520 910 520 910 533.5 880 c 0
 547 850 547 850 553.5 827 c 0
 560 804 560 804 568 766 c 9,0,1
EndSplineSet
Validated: 1
EndChar

StartChar: s
Encoding: 115 115 83
Width: 1137
VWidth: 3440
Flags: W
HStem: 617 107<142.855 298.531> 1212 144<596.926 832.064>
VStem: 299 245<726.346 1156.31> 386 247<82.7259 527.197> 836 213<1012.16 1151.15>
LayerCount: 2
Fore
SplineSet
299 721 m 9,0,-1
 299 1004 l 2,1,2
 299 1157 299 1157 412.5 1256.5 c 0
 526 1356 526 1356 732 1356 c 0,3,4
 893 1356 893 1356 971 1295 c 0
 1049 1234 1049 1234 1049 1106 c 0,5,6
 1049 1046 1049 1046 1019 1022 c 0
 989 998 989 998 935 998 c 0,7,8
 836 998 836 998 836 1089 c 0,9,10
 836 1112 836 1112 845 1152 c 1,11,12
 806 1212 806 1212 714 1212 c 0,13,14
 601 1212 601 1212 563 1110 c 0,15,16
 544 1070 544 1070 544 998 c 0,17,18
 544 988 544 988 544.5 967 c 0
 545 946 545 946 545 936 c 0,19,20
 550 902 550 902 573.5 767.5 c 0
 597 633 597 633 605 575 c 0
 613 517 613 517 623 408.5 c 0
 633 300 633 300 633 202 c 1,21,22
 627 153 627 153 605.5 112 c 0
 584 71 584 71 559.5 44.5 c 0
 535 18 535 18 491 -9.5 c 0
 447 -37 447 -37 417 -51.5 c 0
 387 -66 387 -66 331.5 -90 c 0
 276 -114 276 -114 251 -126 c 1,23,24
 347 8 347 8 375 138 c 1,25,26
 386 212 386 212 386 298 c 0,27,28
 386 514 386 514 303 583 c 0,29,30
 288 593 288 593 263.5 599.5 c 0
 239 606 239 606 220.5 608 c 0
 202 610 202 610 167 612.5 c 0
 132 615 132 615 117 617 c 1,31,32
 116 622 116 622 116 626 c 0
 116 630 116 630 116.5 634 c 0
 117 638 117 638 118 641 c 0
 119 644 119 644 121 648.5 c 0
 123 653 123 653 124.5 655.5 c 0
 126 658 126 658 129.5 664 c 0
 133 670 133 670 135 673 c 0,33,34
 191 724 191 724 268 724 c 0,35,36
 284 724 284 724 299 721 c 9,0,-1
EndSplineSet
Validated: 1
EndChar

StartChar: t
Encoding: 116 116 84
Width: 1487
VWidth: 3446
Flags: W
HStem: -49 123<741.673 1015.37> 686 195<786.455 1154.42> 707 227<744.047 904.762 909.077 998.375> 759 175<375.614 756.5>
VStem: 320 310<189.57 519.324>
LayerCount: 2
Fore
SplineSet
744 707 m 1,0,1
 676 633 676 633 653 550 c 0
 630 467 630 467 630 343 c 0,2,3
 630 234 630 234 699.5 154 c 0
 769 74 769 74 872 74 c 0,4,5
 924 74 924 74 969 86.5 c 0
 1014 99 1014 99 1039 112.5 c 0
 1064 126 1064 126 1121 162 c 0
 1178 198 1178 198 1214 218 c 1,6,7
 1188 170 1188 170 1170.5 142 c 0
 1153 114 1153 114 1116.5 72.5 c 0
 1080 31 1080 31 1041.5 8.5 c 0
 1003 -14 1003 -14 940.5 -31.5 c 0
 878 -49 878 -49 802 -49 c 0,8,9
 679 -49 679 -49 569.5 -1.5 c 0
 460 46 460 46 390 136 c 0
 320 226 320 226 320 338 c 0,10,11
 320 551 320 551 546 725 c 0,12,13
 559 735 559 735 559 742 c 0,14,15
 559 759 559 759 488 759 c 0,16,17
 420 759 420 759 314.5 746 c 0
 209 733 209 733 137.5 720 c 2
 66 707 l 1,18,19
 117 744 117 744 128 751.5 c 0
 139 759 139 759 185.5 790.5 c 0
 232 822 232 822 250.5 831 c 0
 269 840 269 840 312.5 863 c 0
 356 886 356 886 386.5 894 c 0
 417 902 417 902 461 914 c 0
 505 926 505 926 549.5 930 c 0
 594 934 594 934 644 934 c 0,20,21
 762 934 762 934 897 907.5 c 0
 1032 881 1032 881 1117 881 c 0,22,23
 1256 881 1256 881 1468 925 c 1,24,25
 1435 903 1435 903 1385.5 864.5 c 0
 1336 826 1336 826 1305 805 c 0
 1274 784 1274 784 1225 759 c 0
 1176 734 1176 734 1114.5 718.5 c 0
 1053 703 1053 703 972 694 c 1,26,27
 947 686 947 686 908 686 c 0,28,29
 867 686 867 686 808.5 696.5 c 0
 750 707 750 707 748 707 c 2,30,31
 744 707 l 1,0,1
EndSplineSet
Validated: 1
EndChar

StartChar: u
Encoding: 117 117 85
Width: 1752
VWidth: 3441
Flags: W
HStem: 0 174<452.5 738.928 1229.5 1556.5> 646 274<1063.5 1316> 675 219<181 408.5>
VStem: 280 226<255.062 672.662> 1105 276<315.034 645.993>
LayerCount: 2
Fore
SplineSet
94 646 m 1,0,1
 134 726 134 726 214.5 810 c 0
 295 894 295 894 352 894 c 0,2,3
 434 894 434 894 470 841 c 0
 506 788 506 788 506 680 c 2,4,-1
 506 388 l 1,5,6
 521 281 521 281 573 227.5 c 0
 625 174 625 174 723 174 c 0,7,8
 753 174 753 174 780 178 c 0,9,10
 968 232 968 232 1105 348 c 1,11,-1
 1105 607 l 2,12,13
 1105 646 1105 646 1078 646 c 0,14,15
 1064 646 1064 646 1025.5 630.5 c 0
 987 615 987 615 971 615 c 1,16,17
 1002 681 1002 681 1028.5 727.5 c 0
 1055 774 1055 774 1092 822 c 0
 1129 870 1129 870 1173.5 895 c 0
 1218 920 1218 920 1267 920 c 0,18,19
 1302 920 1302 920 1325.5 899.5 c 0
 1349 879 1349 879 1360.5 839 c 0
 1372 799 1372 799 1376.5 755.5 c 0
 1381 712 1381 712 1381 651 c 2,20,-1
 1381 320 l 2,21,22
 1381 244 1381 244 1421 209 c 0
 1461 174 1461 174 1527 174 c 0,23,24
 1608 174 1608 174 1722 224 c 1,25,26
 1512 0 1512 0 1296 0 c 0,27,28
 1112 0 1112 0 1112 188 c 1,29,-1
 660 14 l 1,30,31
 608 0 608 0 512 0 c 0,32,33
 427 0 427 0 353.5 68.5 c 0
 280 137 280 137 280 200 c 2,34,-1
 280 638 l 2,35,36
 280 675 280 675 197 675 c 0,37,38
 152 675 152 675 94 646 c 1,0,1
EndSplineSet
Validated: 1
EndChar

StartChar: v
Encoding: 118 118 86
Width: 1336
VWidth: 3447
Flags: W
HStem: 712 213<1024.16 1164.5>
VStem: 1107 154<626.709 819.5>
LayerCount: 2
Fore
SplineSet
103 348 m 17,0,1
 102 364 102 364 102 391 c 0,2,3
 102 433 102 433 104.5 477.5 c 0
 107 522 107 522 113.5 587.5 c 0
 120 653 120 653 135.5 708.5 c 0
 151 764 151 764 173.5 815 c 0
 196 866 196 866 233.5 895.5 c 0
 271 925 271 925 319 925 c 0,4,5
 372 925 372 925 425 890.5 c 0
 478 856 478 856 519 806 c 0
 560 756 560 756 604.5 681 c 0
 649 606 649 606 677.5 546 c 0
 706 486 706 486 742.5 408 c 0
 779 330 779 330 797 296 c 1,6,7
 900 368 900 368 1003.5 480.5 c 0
 1107 593 1107 593 1107 636 c 0,8,9
 1107 712 1107 712 1049 712 c 0,10,11
 994 712 994 712 879 640 c 1,12,13
 890 678 890 678 912 723 c 0
 934 768 934 768 965.5 815 c 0
 997 862 997 862 1040 893.5 c 0
 1083 925 1083 925 1127 925 c 0,14,15
 1183 925 1183 925 1222 882.5 c 0
 1261 840 1261 840 1261 779 c 0,16,17
 1261 748 1261 748 1256 726.5 c 0
 1251 705 1251 705 1233 662 c 0,18,19
 1152 476 1152 476 993 281.5 c 0
 834 87 834 87 647 -60 c 1,20,21
 563 278 563 278 325 574 c 0,22,23
 316 579 316 579 303 579 c 0,24,25
 270 579 270 579 243 544 c 2,26,-1
 103 348 l 17,0,1
EndSplineSet
Validated: 1
EndChar

StartChar: w
Encoding: 119 119 87
Width: 1998
VWidth: 3447
Flags: W
HStem: 752 213<1692.16 1832.5>
VStem: 1775 154<666.709 859.5>
LayerCount: 2
Fore
SplineSet
1049 925 m 0,0,1
 1102 925 1102 925 1150 894 c 0
 1198 863 1198 863 1233 816 c 0
 1268 769 1268 769 1303 701.5 c 0
 1338 634 1338 634 1362 575 c 0
 1386 516 1386 516 1415 445.5 c 0
 1444 375 1444 375 1465 336 c 1,2,3
 1568 408 1568 408 1671.5 520.5 c 0
 1775 633 1775 633 1775 676 c 0,4,5
 1775 752 1775 752 1717 752 c 0,6,7
 1662 752 1662 752 1547 680 c 1,8,9
 1558 718 1558 718 1580 763 c 0
 1602 808 1602 808 1633.5 855 c 0
 1665 902 1665 902 1708 933.5 c 0
 1751 965 1751 965 1795 965 c 0,10,11
 1851 965 1851 965 1890 922.5 c 0
 1929 880 1929 880 1929 819 c 0,12,13
 1929 788 1929 788 1924 766.5 c 0
 1919 745 1919 745 1901 702 c 0,14,15
 1820 516 1820 516 1661 321.5 c 0
 1502 127 1502 127 1315 -20 c 1,16,17
 1298 49 1298 49 1287 89 c 0
 1276 129 1276 129 1254.5 178.5 c 0
 1233 228 1233 228 1224.5 245 c 0
 1216 262 1216 262 1173.5 340.5 c 0
 1131 419 1131 419 1109 460 c 1,18,19
 1017 322 1017 322 896 190.5 c 0
 775 59 775 59 643 -44 c 1,20,21
 559 294 559 294 321 590 c 0,22,23
 312 595 312 595 299 595 c 0,24,25
 266 595 266 595 239 560 c 2,26,-1
 99 364 l 1,27,28
 98 380 98 380 98 407 c 0,29,30
 98 449 98 449 100.5 493.5 c 0
 103 538 103 538 109.5 603.5 c 0
 116 669 116 669 131.5 724.5 c 0
 147 780 147 780 169.5 831 c 0
 192 882 192 882 229.5 911.5 c 0
 267 941 267 941 315 941 c 0,31,32
 368 941 368 941 421 906.5 c 0
 474 872 474 872 515 822 c 0
 556 772 556 772 600.5 697 c 0
 645 622 645 622 673.5 562 c 0
 702 502 702 502 738.5 424 c 0
 775 346 775 346 793 312 c 1,33,34
 863 361 863 361 940 435.5 c 0
 1017 510 1017 510 1062 572 c 1,35,36
 1001 666 1001 666 931.5 717 c 0
 862 768 862 768 773 768 c 1,37,38
 783 782 783 782 798.5 805.5 c 0
 814 829 814 829 822.5 840 c 0
 831 851 831 851 846.5 868 c 0
 862 885 862 885 878 893 c 0
 894 901 894 901 918 909.5 c 0
 942 918 942 918 974.5 921.5 c 0
 1007 925 1007 925 1049 925 c 0,0,1
EndSplineSet
Validated: 1
EndChar

StartChar: x
Encoding: 120 120 88
Width: 2020
VWidth: 3505
Flags: W
HStem: -450 336<-132.538 85.097> -15 198<1222.5 1692.5> 677 248<473 766 1433.38 1637.58>
LayerCount: 2
Fore
SplineSet
376 639 m 1,0,1
 448.227848719 764.729958881 448.227848719 764.729958881 477.808046012 803.497613432 c 0,2,3
 566.47176105 919.699822691 566.47176105 919.699822691 684.919703344 924.74520451 c 0,4,5
 690.901411472 925 690.901411472 925 697 925 c 0,6,7
 745 925 745 925 795.5 890.5 c 128,-1,8
 846 856 846 856 884.5 810.5 c 128,-1,9
 923 765 923 765 980.5 700.5 c 128,-1,10
 1038 636 1038 636 1084 597 c 1,11,-1
 1393 852 l 1,12,13
 1429 892 1429 892 1464 908.5 c 128,-1,14
 1499 925 1499 925 1549 925 c 0,15,16
 1601 925 1601 925 1635 884.5 c 128,-1,17
 1669 844 1669 844 1669 789 c 0,18,19
 1669 737 1669 737 1634 700 c 128,-1,20
 1599 663 1599 663 1549 663 c 0,21,22
 1524 663 1524 663 1504 673 c 128,-1,23
 1484 683 1484 683 1460.5 701.5 c 128,-1,24
 1437 720 1437 720 1420 729 c 1,25,-1
 1165 510 l 1,26,-1
 1429 252 l 1,27,28
 1509 183 1509 183 1648 183 c 0,29,30
 1796 183 1796 183 1990 267 c 1,31,32
 1907 198 1907 198 1838.5 151 c 128,-1,33
 1770 104 1770 104 1688 64 c 128,-1,34
 1606 24 1606 24 1515 4.5 c 128,-1,35
 1424 -15 1424 -15 1321 -15 c 0,36,37
 1273 -15 1273 -15 1233 -4.5 c 128,-1,38
 1193 6 1193 6 1165.5 19.5 c 128,-1,39
 1138 33 1138 33 1104 65 c 128,-1,40
 1070 97 1070 97 1049 121.5 c 128,-1,41
 1028 146 1028 146 985.5 197 c 128,-1,42
 943 248 943 248 913 282 c 1,43,-1
 250 -345 l 1,44,45
 183 -402 183 -402 133.5 -426 c 128,-1,46
 84 -450 84 -450 13 -450 c 0,47,48
 -72 -450 -72 -450 -136 -404 c 128,-1,49
 -200 -358 -200 -358 -200 -282 c 0,50,51
 -200 -212 -200 -212 -148.5 -163 c 128,-1,52
 -97 -114 -97 -114 -26 -114 c 0,53,54
 14 -114 14 -114 47.5 -132.5 c 128,-1,55
 81 -151 81 -151 121 -184.5 c 128,-1,56
 161 -218 161 -218 190 -234 c 1,57,-1
 838 366 l 1,58,-1
 562 651 l 2,59,60
 532 677 532 677 493 677 c 128,-1,61
 454 677 454 677 376 639 c 1,0,1
EndSplineSet
Validated: 1
EndChar

StartChar: y
Encoding: 121 121 89
Width: 1693
VWidth: 3577
Flags: W
HStem: 546 379<230.868 492.789>
VStem: 603 273<-129.797 282.161>
LayerCount: 2
Fore
SplineSet
603 229 m 0,0,1
 603 300 603 300 591 342.5 c 0
 579 385 579 385 540 453 c 0,2,3
 509 500 509 500 460 523 c 0
 411 546 411 546 318 546 c 1,4,5
 289 542 289 542 255.5 520 c 0
 222 498 222 498 195.5 469.5 c 0
 169 441 169 441 147 413.5 c 0
 125 386 125 386 112.5 367 c 2
 100 348 l 1,6,7
 100 466 100 466 109 559 c 0
 118 652 118 652 140.5 740 c 0
 163 828 163 828 208.5 876.5 c 0
 254 925 254 925 321 925 c 0,8,9
 475 925 475 925 604.5 857 c 0
 734 789 734 789 806.5 676.5 c 0
 879 564 879 564 879 435 c 1,10,11
 913 475 913 475 968 543.5 c 0
 1023 612 1023 612 1056.5 653.5 c 0
 1090 695 1090 695 1142.5 747.5 c 0
 1195 800 1195 800 1240 829 c 0
 1285 858 1285 858 1346 879 c 0
 1407 900 1407 900 1473 900 c 0,12,13
 1541 900 1541 900 1580.5 861 c 0
 1620 822 1620 822 1620 759 c 0,14,15
 1620 704 1620 704 1587.5 652 c 0
 1555 600 1555 600 1491 600 c 0,16,17
 1482 597 1482 597 1467 597 c 0,18,19
 1428 597 1428 597 1395 617 c 0
 1362 637 1362 637 1362 681 c 1,20,21
 1223 681 1223 681 1091.5 546.5 c 0
 960 412 960 412 888 210 c 1,22,23
 876 124.5 876 124.5 876 48 c 0,24,25
 876 -24 876 -24 888 -87 c 1,26,27
 910 -275 910 -275 929 -373 c 0
 948 -471 948 -471 984 -558 c 1,28,29
 940 -550 940 -550 893 -522 c 0
 846 -494 846 -494 793 -433 c 0
 740 -372 740 -372 699 -287 c 0
 658 -202 658 -202 630.5 -67.5 c 0
 603 67 603 67 603 229 c 0,0,1
EndSplineSet
Validated: 1
EndChar

StartChar: z
Encoding: 122 122 90
Width: 1848
VWidth: 3446
Flags: W
HStem: -52 220<702.182 1313.94> 0 21G<138.235 169.5> 740 185<480.554 980.319>
LayerCount: 2
Fore
SplineSet
88 584 m 1,0,1
 130 634 130 634 156.5 663.5 c 0
 183 693 183 693 226 734 c 0
 269 775 269 775 306.5 799 c 0
 344 823 344 823 399 850 c 0
 454 877 454 877 513 891.5 c 0
 572 906 572 906 650.5 915.5 c 0
 729 925 729 925 820 925 c 0,2,3
 936 925 936 925 1073 904.5 c 0
 1210 884 1210 884 1300 884 c 0,4,5
 1364 884 1364 884 1419 894.5 c 0
 1474 905 1474 905 1543 924 c 0
 1612 943 1612 943 1660 952 c 1,6,-1
 608 224 l 1,7,8
 670 216 670 216 773 200.5 c 0
 876 185 876 185 946.5 176.5 c 0
 1017 168 1017 168 1068 168 c 0,9,10
 1475 168 1475 168 1804 344 c 1,11,12
 1771 316 1771 316 1724 273 c 0
 1677 230 1677 230 1646 201 c 0
 1615 172 1615 172 1569 135 c 0
 1523 98 1523 98 1485 73.5 c 0
 1447 49 1447 49 1394 23.5 c 0
 1341 -2 1341 -2 1287.5 -17.5 c 0
 1234 -33 1234 -33 1165.5 -42.5 c 0
 1097 -52 1097 -52 1020 -52 c 0,13,14
 932 -52 932 -52 733 -14 c 0
 534 24 534 24 408 24 c 0,15,16
 350 24 350 24 259.5 12 c 0
 169 0 169 0 112 0 c 1,17,-1
 1004 680 l 1,18,19
 997 685 997 685 981.5 696.5 c 0
 966 708 966 708 960 712 c 0
 954 716 954 716 935.5 723 c 0
 917 730 917 730 897.5 732.5 c 0
 878 735 878 735 844 737.5 c 0
 810 740 810 740 764 740 c 0,20,21
 689 740 689 740 643 739 c 0
 597 738 597 738 513 729.5 c 0
 429 721 429 721 366.5 706 c 0
 304 691 304 691 227.5 659.5 c 0
 151 628 151 628 88 584 c 1,0,1
EndSplineSet
Validated: 1
EndChar

StartChar: braceleft
Encoding: 123 123 91
Width: 665
Flags: W
LayerCount: 2
Fore
SplineSet
571 67 m 1,0,-1
 571 -125 l 1,1,2
 505 -130 505 -130 465 -130 c 0,3,4
 402 -130 402 -130 346.5 -102 c 128,-1,5
 291 -74 291 -74 262 -27 c 0,6,7
 217 41 217 41 217 182 c 2,8,-1
 217 679 l 2,9,10
 217 748 217 748 182 784.5 c 128,-1,11
 147 821 147 821 68 834 c 1,12,-1
 68 1021 l 1,13,14
 147 1034 147 1034 182 1070.5 c 128,-1,15
 217 1107 217 1107 217 1176 c 2,16,-1
 217 1671 l 2,17,18
 217 1812 217 1812 262 1880 c 0,19,20
 326 1983 326 1983 473 1983 c 0,21,22
 518 1983 518 1983 571 1978 c 1,23,-1
 571 1788 l 1,24,25
 489 1777 489 1777 453.5 1743 c 128,-1,26
 418 1709 418 1709 418 1642 c 2,27,-1
 418 1202 l 2,28,29
 418 1087 418 1087 385 1026.5 c 128,-1,30
 352 966 352 966 270 927 c 1,31,32
 352 889 352 889 385 828 c 128,-1,33
 418 767 418 767 418 651 c 2,34,-1
 418 212 l 2,35,36
 418 145 418 145 453.5 111 c 128,-1,37
 489 77 489 77 571 67 c 1,0,-1
EndSplineSet
EndChar

StartChar: bar
Encoding: 124 124 92
Width: 397
Flags: W
HStem: 4 21G<100 297>
VStem: 100 197<4 1536>
LayerCount: 2
Fore
SplineSet
297 4 m 1,0,-1
 100 4 l 1,1,-1
 100 1536 l 1,2,-1
 297 1536 l 1,3,-1
 297 4 l 1,0,-1
EndSplineSet
Validated: 1
EndChar

StartChar: braceright
Encoding: 125 125 93
Width: 612
Flags: W
LayerCount: 2
Fore
SplineSet
541 1021 m 1,0,-1
 541 834 l 1,1,2
 463 819 463 819 428 783 c 128,-1,3
 393 747 393 747 393 679 c 2,4,-1
 393 182 l 2,5,6
 393 20 393 20 327.5 -55 c 128,-1,7
 262 -130 262 -130 121 -130 c 0,8,9
 94 -130 94 -130 39 -125 c 1,10,-1
 39 67 l 1,11,12
 125 81 125 81 159 113 c 128,-1,13
 193 145 193 145 193 212 c 2,14,-1
 193 651 l 2,15,16
 193 767 193 767 225.5 828 c 128,-1,17
 258 889 258 889 340 927 c 1,18,19
 258 966 258 966 225.5 1026 c 128,-1,20
 193 1086 193 1086 193 1202 c 2,21,-1
 193 1642 l 2,22,23
 193 1709 193 1709 159 1741 c 128,-1,24
 125 1773 125 1773 39 1788 c 1,25,-1
 39 1978 l 1,26,27
 90 1983 90 1983 137 1983 c 0,28,29
 284 1983 284 1983 348 1880 c 0,30,31
 393 1812 393 1812 393 1671 c 2,32,-1
 393 1176 l 2,33,34
 393 1107 393 1107 428 1071 c 128,-1,35
 463 1035 463 1035 541 1021 c 1,0,-1
EndSplineSet
EndChar

StartChar: asciitilde
Encoding: 126 126 94
Width: 1146
Flags: W
HStem: 962 197<648.55 897.035> 1101 197<249.778 497.65>
LayerCount: 2
Fore
SplineSet
1046 1138 m 1,0,1
 1016 1083 1016 1083 987.5 1048 c 0
 959 1013 959 1013 908 987.5 c 0
 857 962 857 962 790 962 c 0,2,3
 749 962 749 962 715.5 968.5 c 0
 682 975 682 975 664.5 981.5 c 0
 647 988 647 988 606.5 1007.5 c 0
 566 1027 566 1027 541 1037 c 0,4,5
 512 1049 512 1049 483.5 1064 c 0
 455 1079 455 1079 442.5 1085.5 c 0
 430 1092 430 1092 407.5 1096.5 c 0
 385 1101 385 1101 354 1101 c 0,6,7
 331 1101 331 1101 310.5 1094 c 0
 290 1087 290 1087 276.5 1079.5 c 0
 263 1072 263 1072 246.5 1053.5 c 0
 230 1035 230 1035 222.5 1024.5 c 0
 215 1014 215 1014 198 988 c 0
 181 962 181 962 174 952 c 1,8,-1
 100 1122 l 1,9,10
 122 1163 122 1163 143 1191 c 0
 164 1219 164 1219 194.5 1245.5 c 0
 225 1272 225 1272 265 1285 c 0
 305 1298 305 1298 356 1298 c 0,11,12
 398 1298 398 1298 431.5 1291.5 c 0
 465 1285 465 1285 481.5 1279 c 0
 498 1273 498 1273 540 1253 c 0
 582 1233 582 1233 605 1223 c 0,13,14
 633 1211 633 1211 662 1196 c 0
 691 1181 691 1181 704 1174.5 c 0
 717 1168 717 1168 739.5 1163.5 c 0
 762 1159 762 1159 793 1159 c 0,15,16
 816 1159 816 1159 836.5 1165.5 c 0
 857 1172 857 1172 870.5 1180.5 c 0
 884 1189 884 1189 900 1207 c 0
 916 1225 916 1225 924.5 1237 c 0
 933 1249 933 1249 949 1273 c 0
 965 1297 965 1297 973 1308 c 1,17,-1
 1046 1138 l 1,0,1
EndSplineSet
Validated: 1
EndChar

StartChar: uni05D0
Encoding: 1488 1488 95
Width: 1158
VWidth: 1314
Flags: W
TeX: 82 0
HStem: 0 347<960.804 1107.19>
AnchorPoint: "puncta" 493 0 basechar 0
LayerCount: 2
Fore
SplineSet
72 1149 m 1,0,1
 131 1101 131 1101 268 1002.5 c 0
 405 904 405 904 507.5 816.5 c 0
 610 729 610 729 698 622 c 1,2,3
 828 654 828 654 828 702 c 0,4,5
 828 706 828 706 824 718 c 0,6,7
 806 755 806 755 768 785.5 c 0
 730 816 730 816 695.5 831.5 c 0
 661 847 661 847 629 859.5 c 0
 597 872 597 872 592 876 c 1,8,9
 612 897 612 897 654 932.5 c 0
 696 968 696 968 721 991.5 c 0
 746 1015 746 1015 767.5 1054 c 0
 789 1093 789 1093 789 1135 c 0,10,11
 789 1162 789 1162 782 1190 c 1,12,13
 821 1130 821 1130 877.5 1072.5 c 0
 934 1015 934 1015 975 981.5 c 0
 1016 948 1016 948 1046 910 c 0
 1076 872 1076 872 1076 839 c 0,14,15
 1076 824 1076 824 1070 808 c 0,16,17
 1067 789 1067 789 1060 772 c 0
 1053 755 1053 755 1045.5 741 c 0
 1038 727 1038 727 1022.5 712 c 0
 1007 697 1007 697 996.5 687 c 0
 986 677 986 677 963.5 663 c 0
 941 649 941 649 929.5 642 c 0
 918 635 918 635 890.5 622 c 0
 863 609 863 609 852 603.5 c 0
 841 598 841 598 809.5 584 c 0
 778 570 778 570 768 566 c 1,18,19
 799 536 799 536 836.5 494 c 0
 874 452 874 452 894 430.5 c 0
 914 409 914 409 950.5 386 c 0
 987 363 987 363 1034 350 c 0,20,21
 1042 347 1042 347 1047 347 c 0,22,23
 1060 347 1060 347 1073 357.5 c 0
 1086 368 1086 368 1103.5 387.5 c 0
 1121 407 1121 407 1129 414 c 1,24,25
 1113 317 1113 317 1113 174 c 0,26,27
 1113 99 1113 99 1127 32 c 1,28,29
 1113 0 1113 0 1052 0 c 1,30,31
 969 29 969 29 893 78.5 c 0
 817 128 817 128 749 194 c 0
 681 260 681 260 623 323.5 c 0
 565 387 565 387 490 470 c 0
 415 553 415 553 354 610 c 1,32,-1
 288 356 l 1,33,34
 309 350 309 350 349.5 340.5 c 0
 390 331 390 331 412.5 325 c 0
 435 319 435 319 468 306.5 c 0
 501 294 501 294 521.5 280 c 0
 542 266 542 266 562.5 242 c 0
 583 218 583 218 596 188 c 0,35,36
 613 147 613 147 613 103 c 0,37,38
 613 74 613 74 604.5 42 c 0
 596 10 596 10 589 -10 c 0
 582 -30 582 -30 560.5 -67 c 0
 539 -104 539 -104 534 -112 c 0
 529 -120 529 -120 504 -158 c 1,39,40
 497 -140 497 -140 490 -115 c 0
 483 -90 483 -90 475.5 -70 c 0
 468 -50 468 -50 456 -30 c 0,41,42
 451 -22 451 -22 443.5 -17 c 0
 436 -12 436 -12 425.5 -8 c 0
 415 -4 415 -4 408 0 c 1,43,-1
 102 0 l 1,44,-1
 256 682 l 1,45,-1
 102 777 l 1,46,47
 109 819 109 819 109 866 c 0,48,49
 109 908 109 908 103.5 953 c 0
 98 998 98 998 87 1061.5 c 0
 76 1125 76 1125 72 1149 c 1,0,1
EndSplineSet
Validated: 1
EndChar

StartChar: uni05D1
Encoding: 1489 1489 96
Width: 1193
VWidth: 1308
Flags: W
TeX: 82 0
HStem: 0 350<121 954> 700 351<143 182 219 954> 1390 20G<184 215.5>
VStem: 143 905<701.784 1046.88> 143 113<1265.53 1408.11> 182 37<1051 1278.03> 954 94<350 700>
AnchorPoint: "puncta" 580 0 basechar 0
LayerCount: 2
Fore
SplineSet
182 1051 m 1,0,-1
 182 1265 l 1,1,2
 165 1273 165 1273 154 1292.5 c 0
 143 1312 143 1312 143 1336 c 0,3,4
 143 1367 143 1367 159.5 1388.5 c 0
 176 1410 176 1410 200 1410 c 0,5,6
 223 1410 223 1410 239.5 1388.5 c 0
 256 1367 256 1367 256 1336 c 0,7,8
 256 1284 256 1284 219 1265 c 1,9,-1
 219 1051 l 1,10,-1
 1022 1051 l 1,11,-1
 1106 1105 l 1,12,13
 1101 1097 1101 1097 1089.5 1077 c 0
 1078 1057 1078 1057 1072 1046 c 0
 1066 1035 1066 1035 1058.5 1014 c 0
 1051 993 1051 993 1048 970 c 2,14,-1
 1048 350 l 1,15,16
 1074 355 1074 355 1090 362.5 c 0
 1106 370 1106 370 1122 382 c 0
 1138 394 1138 394 1144 398 c 2,17,-1
 1161 400 l 1,18,19
 1144 360 1144 360 1144 332 c 0,20,21
 1132 222 1132 222 1132 147 c 0,22,23
 1132 65 1132 65 1144 0 c 1,24,-1
 91 0 l 1,25,26
 121 47 121 47 121 147 c 2,27,28
 121 185 l 2,29,30
 121 207 121 207 115.5 233.5 c 0
 110 260 110 260 100 296.5 c 0
 90 333 90 333 86 350 c 1,31,-1
 954 350 l 1,32,-1
 954 700 l 1,33,-1
 136 700 l 1,34,35
 143 766 143 766 143 816 c 0,36,37
 143 887 143 887 132.5 936.5 c 0
 122 986 122 986 97 1051 c 1,38,-1
 182 1051 l 1,0,-1
EndSplineSet
Validated: 1
EndChar

StartChar: uni05D2
Encoding: 1490 1490 97
Width: 704
VWidth: 1290
Flags: W
TeX: 82 0
HStem: 3 324<120.87 379.889> 700 350<229 250 279.938 380 455 520.707 548 558> 1388 20G<387 418.5>
VStem: 92 319<41.8421 266.697> 171 114<1198.57 1341.62> 229 329<702.438 1046.95> 346 113<1264.48 1406.16> 385 37<1050 1277.3> 506 114<1190.48 1332.06>
AnchorPoint: "puncta" 373 50 basechar 0
LayerCount: 2
Fore
SplineSet
548 1050 m 1,0,-1
 570 1050 l 1,1,2
 558 995 558 995 558 916 c 0,3,4
 558 878 558 878 561.5 806 c 0
 565 734 565 734 565 700 c 1,5,-1
 455 700 l 1,6,-1
 667 160 l 1,7,-1
 601 -60 l 1,8,-1
 506 255 l 2,9,10
 499 274 499 274 483 274 c 0,11,12
 480 274 480 274 479 273 c 0,13,14
 450 273 450 273 430.5 240.5 c 0
 411 208 411 208 411 153 c 0,15,16
 411 91 411 91 381 47 c 0
 351 3 351 3 289 3 c 2,17,-1
 37 3 l 1,18,19
 92 196 92 196 92 385 c 1,20,21
 208 327 208 327 329 327 c 0,22,23
 401 327 401 327 464 350 c 1,24,-1
 380 700 l 1,25,-1
 217 700 l 1,26,27
 229 778 229 778 229 856 c 0,28,29
 229 955 229 955 210 1050 c 1,30,-1
 250 1050 l 1,31,-1
 210 1198 l 1,32,33
 171 1215 171 1215 171 1270 c 0,34,35
 171 1300 171 1300 188.5 1322 c 0
 206 1344 206 1344 229 1344 c 0,36,37
 252 1344 252 1344 268.5 1322 c 0
 285 1300 285 1300 285 1270 c 0,38,39
 285 1219 285 1219 248 1198 c 0,40,41
 247 1198 247 1198 247 1194 c 0,42,43
 247 1176 247 1176 266.5 1125 c 0
 286 1074 286 1074 302 1050 c 1,44,-1
 385 1050 l 1,45,-1
 385 1264 l 1,46,47
 368 1272 368 1272 357 1291 c 0
 346 1310 346 1310 346 1334 c 0,48,49
 346 1365 346 1365 362.5 1386.5 c 0
 379 1408 379 1408 403 1408 c 0,50,51
 426 1408 426 1408 442.5 1386.5 c 0
 459 1365 459 1365 459 1334 c 0,52,53
 459 1281 459 1281 422 1264 c 1,54,-1
 422 1050 l 1,55,-1
 501 1050 l 1,56,57
 515 1078 515 1078 523 1100 c 0
 531 1122 531 1122 537 1151.5 c 0
 543 1181 543 1181 545 1188 c 1,58,59
 506 1205 506 1205 506 1260 c 0,60,61
 506 1290 506 1290 523 1312 c 0
 540 1334 540 1334 563 1334 c 0,62,63
 586 1334 586 1334 603 1312 c 0
 620 1290 620 1290 620 1260 c 0,64,65
 620 1236 620 1236 609.5 1217 c 0
 599 1198 599 1198 583 1190 c 1,66,-1
 548 1050 l 1,0,-1
EndSplineSet
Validated: 1
EndChar

StartChar: uni05D4
Encoding: 1492 1492 98
Width: 1222
VWidth: 1324
Flags: W
TeX: 82 0
HStem: 0 352<206 390> 700 349<256 886 1015 1144> 1389 20G<221 252.5>
VStem: 95 295<29.2224 348.223> 180 113<1264.53 1407.11> 219 37<1050 1277.03>
AnchorPoint: "puncta" 584 0 basechar 0
LayerCount: 2
Fore
SplineSet
256 1049 m 1,0,-1
 1144 1049 l 1,1,-1
 1144 700 l 1,2,-1
 1015 700 l 1,3,4
 1036 647 1036 647 1086.5 562 c 0
 1137 477 1137 477 1166 403.5 c 0
 1195 330 1195 330 1195 248 c 0,5,6
 1195 183 1195 183 1133.5 107.5 c 0
 1072 32 1072 32 985 -24 c 1,7,-1
 886 700 l 1,8,-1
 95 700 l 1,9,10
 114 848 114 848 114 944 c 0,11,12
 114 1039 114 1039 102 1119 c 1,13,14
 148 1058 148 1058 219 1050 c 1,15,-1
 219 1264 l 1,16,17
 202 1272 202 1272 191 1291.5 c 0
 180 1311 180 1311 180 1335 c 0,18,19
 180 1366 180 1366 196.5 1387.5 c 0
 213 1409 213 1409 237 1409 c 0,20,21
 260 1409 260 1409 276.5 1387.5 c 0
 293 1366 293 1366 293 1335 c 0,22,23
 293 1311 293 1311 283 1291.5 c 0
 273 1272 273 1272 256 1264 c 1,24,-1
 256 1049 l 1,0,-1
206 530 m 9,25,-1
 206 352 l 1,26,-1
 403 352 l 1,27,28
 390 276 390 276 390 211 c 0,29,30
 390 107 390 107 416 0 c 1,31,-1
 194 0 l 1,32,33
 163 5 163 5 142.5 23 c 0
 122 41 122 41 112 71 c 0
 102 101 102 101 98.5 132 c 0
 95 163 95 163 95 206 c 0,34,35
 95 264 95 264 101 309 c 0
 107 354 107 354 113.5 381 c 0
 120 408 120 408 138.5 439 c 0
 157 470 157 470 167 483 c 0
 177 496 177 496 206 530 c 9,25,-1
EndSplineSet
Validated: 1
EndChar

StartChar: uni05D3
Encoding: 1491 1491 99
Width: 1215
VWidth: 1324
Flags: W
TeX: 82 0
HStem: 700 350<120.715 220 258 844 972 1106.12> 1389 20G<222 254>
VStem: 90 14<1108.65 1149.16> 104 1032<703.658 1049.9> 182 112<1264.53 1407.5> 220 38<1050 1277.95>
AnchorPoint: "puncta" 613 0 basechar 0
LayerCount: 2
Fore
SplineSet
258 1050 m 9,0,-1
 1088 1050 l 1,1,2
 1095 1056 1095 1056 1103.5 1086.5 c 0
 1112 1117 1112 1117 1119 1144.5 c 0
 1126 1172 1126 1172 1130 1172 c 0,3,4
 1132 1172 1132 1172 1132 1169 c 0,5,6
 1132 1167 1132 1167 1134 1150.5 c 0
 1136 1134 1136 1134 1137.5 1110 c 0
 1139 1086 1139 1086 1139 1066 c 0,7,8
 1139 1042 1139 1042 1136 1023 c 2,9,-1
 1136 700 l 1,10,-1
 972 700 l 1,11,12
 992 650 992 650 1042.5 560 c 0
 1093 470 1093 470 1121.5 394.5 c 0
 1150 319 1150 319 1150 236 c 0,13,14
 1150 172 1150 172 1094 104.5 c 0
 1038 37 1038 37 950 -20 c 1,15,-1
 844 700 l 1,16,-1
 86 700 l 1,17,18
 104 840 104 840 104 943 c 0,19,20
 104 1059 104 1059 90 1152 c 1,21,22
 107 1098 107 1098 142.5 1074 c 0
 178 1050 178 1050 220 1050 c 1,23,-1
 220 1264 l 1,24,25
 203 1272 203 1272 192.5 1291.5 c 0
 182 1311 182 1311 182 1335 c 0,26,27
 182 1366 182 1366 198 1387.5 c 0
 214 1409 214 1409 238 1409 c 0,28,29
 262 1409 262 1409 278 1387.5 c 0
 294 1366 294 1366 294 1335 c 0,30,31
 294 1282 294 1282 258 1264 c 1,32,-1
 258 1050 l 9,0,-1
EndSplineSet
Validated: 1
EndChar

StartChar: uni05D5
Encoding: 1493 1493 100
Width: 497
VWidth: 1232
Flags: W
TeX: 82 0
VStem: 103 333<702.284 1044.1> 307 133<141.016 699> 307 90<103.21 549.502>
AnchorPoint: "puncta" 246 0 basechar 0
LayerCount: 2
Fore
SplineSet
89 1151 m 1,0,1
 133 1080 133 1080 181 1050 c 1,2,-1
 369 1050 l 2,3,4
 436 1050 436 1050 436 952 c 0,5,6
 436 872 436 872 438 752.5 c 0
 440 633 440 633 440 557 c 0,7,8
 440 428 440 428 431.5 343.5 c 0
 423 259 423 259 397 147 c 0,9,10
 385 98 385 98 360.5 58 c 0
 336 18 336 18 307 0 c 1,11,-1
 307 699 l 1,12,-1
 86 699 l 1,13,14
 103 798 103 798 103 920 c 0,15,16
 103 1027 103 1027 89 1151 c 1,0,1
EndSplineSet
Validated: 1
EndChar

StartChar: uni05D6
Encoding: 1494 1494 101
Width: 550
VWidth: 1290
Flags: W
TeX: 82 0
HStem: 701 349<107 122 153.917 240 303 392.707 422 437> 1390 20G<259 290.5>
VStem: 43 114<1200.48 1342.16> 107 330<703.952 1047.47> 201 142<88.6399 695.806> 218 113<1264.57 1408.06> 257 37<1050 1277.35> 378 114<1190.57 1332.16>
AnchorPoint: "puncta" 268 0 basechar 0
LayerCount: 2
Fore
SplineSet
422 1050 m 1,0,-1
 448 1050 l 1,1,2
 437 942 437 942 437 885 c 0,3,4
 437 791 437 791 447 701 c 1,5,-1
 303 701 l 1,6,7
 343 553 343 553 343 394 c 0,8,9
 343 216 343 216 272 0 c 1,10,11
 201 216 201 216 201 394 c 0,12,13
 201 552 201 552 240 701 c 1,14,-1
 97 701 l 1,15,16
 107 791 107 791 107 884 c 0,17,18
 107 973 107 973 97 1050 c 1,19,-1
 122 1050 l 1,20,-1
 82 1200 l 1,21,22
 65 1208 65 1208 54 1227 c 0
 43 1246 43 1246 43 1270 c 0,23,24
 43 1301 43 1301 60 1322.5 c 0
 77 1344 77 1344 100 1344 c 0,25,26
 123 1344 123 1344 140 1322.5 c 0
 157 1301 157 1301 157 1270 c 0,27,28
 157 1217 157 1217 122 1200 c 1,29,30
 119 1194 l 1,31,32
 119 1178 119 1178 139.5 1127.5 c 0
 160 1077 160 1077 176 1050 c 1,33,-1
 257 1050 l 1,34,-1
 257 1264 l 1,35,36
 240 1272 240 1272 229 1291.5 c 0
 218 1311 218 1311 218 1336 c 0,37,38
 218 1366 218 1366 234.5 1388 c 0
 251 1410 251 1410 275 1410 c 0,39,40
 298 1410 298 1410 314.5 1388 c 0
 331 1366 331 1366 331 1336 c 0,41,42
 331 1284 331 1284 294 1264 c 1,43,-1
 294 1050 l 1,44,-1
 373 1050 l 1,45,46
 384 1072 384 1072 392 1092.5 c 0
 400 1113 400 1113 403 1126 c 0
 406 1139 406 1139 410 1159.5 c 0
 414 1180 414 1180 417 1190 c 1,47,48
 400 1198 400 1198 389 1217 c 0
 378 1236 378 1236 378 1260 c 0,49,50
 378 1291 378 1291 395 1312.5 c 0
 412 1334 412 1334 435 1334 c 0,51,52
 458 1334 458 1334 475 1312.5 c 0
 492 1291 492 1291 492 1260 c 0,53,54
 492 1211 492 1211 455 1190 c 1,55,-1
 422 1050 l 1,0,-1
EndSplineSet
Validated: 1
EndChar

StartChar: uni05D7
Encoding: 1495 1495 102
Width: 1188
VWidth: 1290
Flags: W
TeX: 82 0
HStem: 700 350<143.886 231 294 377 849 931 994 1128.23>
VStem: 98 330<702.952 918.976> 192 142<88.5009 694.807> 788 350<700 919> 891 143<94.6094 694.807>
AnchorPoint: "puncta" 596 4 basechar 0
LayerCount: 2
Fore
SplineSet
792 919 m 1,0,-1
 616 1102 l 1,1,-1
 433 919 l 1,2,3
 428 886 428 886 428 884 c 0,4,5
 428 790 428 790 438 700 c 1,6,-1
 294 700 l 1,7,8
 334 552 334 552 334 393 c 0,9,10
 334 216 334 216 263 0 c 1,11,12
 192 216 192 216 192 393 c 0,13,14
 192 551 192 551 231 700 c 1,15,-1
 88 700 l 1,16,17
 98 790 98 790 98 883 c 0,18,19
 98 996 98 996 91 1049 c 1,20,-1
 91 1206 l 1,21,22
 97 1169 97 1169 127.5 1118 c 0
 158 1067 158 1067 181 1050 c 1,23,-1
 377 1050 l 1,24,-1
 617 1264 l 1,25,-1
 849 1050 l 1,26,-1
 1043 1050 l 2,27,28
 1089 1050 1089 1050 1114 1025.5 c 0
 1139 1001 1139 1001 1139 958 c 2,29,30
 1138 706 l 1,31,-1
 1138 700 l 1,32,-1
 994 700 l 1,33,34
 1034 552 1034 552 1034 394 c 0,35,36
 1034 216 1034 216 963 0 c 1,37,38
 891 220 891 220 891 394 c 0,39,40
 891 547 891 547 931 700 c 1,41,-1
 788 700 l 1,42,43
 788 732 788 732 793 793 c 0
 798 854 798 854 798 884 c 1,44,-1
 792 919 l 1,0,-1
EndSplineSet
Validated: 1
EndChar

StartChar: uni05D8
Encoding: 1496 1496 103
Width: 1192
VWidth: 1290
Flags: W
TeX: 82 0
HStem: 0 358<326 973.405> 758 294<696.529 931.225> 1380 20G<261 292.5>
VStem: 45 114<1190.53 1333.11> 109 330<701 1047.47> 121 50<1051 1101.64> 230 96<358 699 1255.53 1399.79> 259 37<1051 1268.03> 380 114<1181.53 1323.11> 1022 118<406.903 769.153>
AnchorPoint: "puncta" 632 0 basechar 0
LayerCount: 2
Fore
SplineSet
449 1050 m 1,0,1
 439 942 439 942 439 885 c 0,2,3
 439 855 439 855 443.5 794 c 0
 448 733 448 733 448 701 c 1,4,-1
 326 701 l 1,5,-1
 326 358 l 1,6,-1
 912 358 l 1,7,8
 974 394 974 394 998 430.5 c 0
 1022 467 1022 467 1022 532 c 0,9,10
 1022 630 1022 630 958 694 c 0
 894 758 894 758 798 758 c 0,11,12
 766 758 766 758 740 746.5 c 0
 714 735 714 735 692.5 711.5 c 0
 671 688 671 688 656.5 666.5 c 0
 642 645 642 645 621 610.5 c 0
 600 576 600 576 586 556 c 1,13,-1
 586 796 l 2,14,15
 586 931 586 931 649.5 991.5 c 0
 713 1052 713 1052 854 1052 c 0,16,17
 927 1052 927 1052 980 1030.5 c 0
 1033 1009 1033 1009 1063 975.5 c 0
 1093 942 1093 942 1111 889.5 c 0
 1129 837 1129 837 1134.5 786.5 c 0
 1140 736 1140 736 1140 670 c 0,18,19
 1140 569 1140 569 1131 489.5 c 0
 1122 410 1122 410 1098.5 333.5 c 0
 1075 257 1075 257 1056.5 210.5 c 0
 1038 164 1038 164 998 74 c 0,20,21
 972 23 972 23 880 0 c 1,22,-1
 230 0 l 1,23,-1
 230 699 l 1,24,-1
 99 699 l 1,25,26
 99 731 99 731 104 793 c 0
 109 855 109 855 109 884 c 0,27,28
 109 960 109 960 99 1050 c 1,29,-1
 121 1050 l 1,30,-1
 84 1190 l 1,31,32
 67 1198 67 1198 56 1217 c 0
 45 1236 45 1236 45 1261 c 0,33,34
 45 1292 45 1292 62 1313.5 c 0
 79 1335 79 1335 102 1335 c 0,35,36
 125 1335 125 1335 142 1313.5 c 0
 159 1292 159 1292 159 1261 c 0,37,38
 159 1238 159 1238 148 1218.5 c 0
 137 1199 137 1199 121 1190 c 1,39,40
 121 1185 l 2,41,42
 121 1170 121 1170 138 1124.5 c 0
 155 1079 155 1079 171 1051 c 1,43,-1
 259 1051 l 1,44,-1
 259 1255 l 1,45,46
 242 1263 242 1263 231 1282.5 c 0
 220 1302 220 1302 220 1326 c 0,47,48
 220 1357 220 1357 236.5 1378.5 c 0
 253 1400 253 1400 277 1400 c 0,49,50
 300 1400 300 1400 316.5 1378.5 c 0
 333 1357 333 1357 333 1326 c 0,51,52
 333 1274 333 1274 296 1255 c 1,53,-1
 296 1050 l 1,54,-1
 380 1050 l 1,55,56
 389 1070 389 1070 396 1089 c 0
 403 1108 403 1108 406 1120 c 0
 409 1132 409 1132 413 1151 c 0
 417 1170 417 1170 419 1180 c 1,57,58
 402 1188 402 1188 391 1207 c 0
 380 1226 380 1226 380 1251 c 0,59,60
 380 1282 380 1282 397 1303.5 c 0
 414 1325 414 1325 437 1325 c 0,61,62
 460 1325 460 1325 477 1303.5 c 0
 494 1282 494 1282 494 1251 c 0,63,64
 494 1200 494 1200 457 1181 c 1,65,-1
 426 1050 l 1,66,-1
 449 1050 l 1,0,1
EndSplineSet
Validated: 1
EndChar

StartChar: uni05D9
Encoding: 1497 1497 104
Width: 492
VWidth: 1408
Flags: W
TeX: 82 0
HStem: 700 350<130.552 340.988>
VStem: 61 27<1148.61 1193> 128 323<701.122 1020.93> 341 110<597.984 895>
AnchorPoint: "puncta" 243 0 basechar 0
LayerCount: 2
Fore
SplineSet
262 393 m 1,0,1
 272 419 272 419 289.5 458 c 0
 307 497 307 497 316 520 c 0
 325 543 325 543 333 579.5 c 0
 341 616 341 616 341 656 c 0,2,3
 341 673 341 673 330 686.5 c 0
 319 700 319 700 303 700 c 2,4,-1
 181 700 l 2,5,6
 172 700 172 700 162.5 693.5 c 0
 153 687 153 687 143.5 674 c 0
 134 661 134 661 126.5 649.5 c 0
 119 638 119 638 108.5 620 c 0
 98 602 98 602 93 595 c 1,7,-1
 115 700 l 2,8,9
 128 768 128 768 128 839 c 0,10,11
 128 944 128 944 102 1050 c 2,12,-1
 61 1197 l 1,13,-1
 88 1193 l 1,14,15
 114 1085 114 1085 156 1050 c 1,16,-1
 352 1050 l 1,17,18
 383 1045 383 1045 403.5 1027 c 0
 424 1009 424 1009 434 979 c 0
 444 949 444 949 447.5 918 c 0
 451 887 451 887 451 844 c 0,19,20
 451 684 451 684 392.5 562 c 0
 334 440 334 440 262 393 c 1,0,1
EndSplineSet
Validated: 1
EndChar

StartChar: uni05DB
Encoding: 1499 1499 105
Width: 1175
VWidth: 1206
Flags: W
TeX: 82 0
HStem: 0 350<148 901.933> 700 350<147 906.393>
VStem: 1013 106<407.072 635.761>
AnchorPoint: "puncta" 539 0 basechar 0
LayerCount: 2
Fore
SplineSet
103 1050 m 9,0,-1
 777 1050 l 2,1,2
 820 1050 820 1050 878 1021.5 c 0
 936 993 936 993 990 947.5 c 0
 1044 902 1044 902 1081.5 835 c 0
 1119 768 1119 768 1119 700 c 2,3,-1
 1119 348 l 2,4,5
 1119 294 1119 294 1093 239.5 c 0
 1067 185 1067 185 1027.5 143 c 0
 988 101 988 101 942 68 c 0
 896 35 896 35 853 17.5 c 0
 810 0 810 0 781 0 c 2,6,-1
 55 0 l 1,7,8
 148 133.5 148 133.5 148 291 c 0,9,10
 148 300 148 300 146.5 320 c 0
 145 340 145 340 145 350 c 1,11,-1
 859 350 l 1,12,13
 921 358 921 358 967 404 c 0
 1013 450 1013 450 1013 522 c 0,14,15
 1013 653 1013 653 859 700 c 1,16,-1
 115 700 l 1,17,18
 147 787 147 787 147 860 c 0,19,20
 147 950 147 950 103 1050 c 9,0,-1
EndSplineSet
Validated: 1
EndChar

StartChar: uni05DD
Encoding: 1501 1501 106
Width: 1200
VWidth: 1206
Flags: W
TeX: 82 0
HStem: 0 350<313 1002> 700 350<110 217 313 983.81>
VStem: 217 96<350 700> 1002 130<350 678.745>
AnchorPoint: "puncta" 589 0 basechar 0
LayerCount: 2
Fore
SplineSet
814 700 m 2,0,1
 313 700 l 1,2,-1
 313 350 l 1,3,-1
 1002 350 l 1,4,-1
 1002 590 l 2,5,6
 1002 626 1002 626 990.5 648.5 c 0
 979 671 979 671 952.5 682 c 0
 926 693 926 693 895.5 696.5 c 0
 865 700 865 700 814 700 c 2,0,1
81 1050 m 25,7,-1
 962 1050 l 2,8,9
 1017 1050 1017 1050 1057.5 1014 c 0
 1098 978 1098 978 1118 931 c 1,10,-1
 1132 838 l 1,11,-1
 1132 0 l 1,12,-1
 217 0 l 1,13,-1
 217 700 l 1,14,-1
 81 700 l 1,15,16
 85 725 85 725 93 763 c 0
 101 801 101 801 105.5 830.5 c 0
 110 860 110 860 110 894 c 0,17,18
 110 922 110 922 105.5 945.5 c 0
 101 969 101 969 93 999.5 c 0
 85 1030 85 1030 81 1050 c 25,7,-1
EndSplineSet
Validated: 1
EndChar

StartChar: uni05DE
Encoding: 1502 1502 107
Width: 1244
VWidth: 1206
Flags: W
TeX: 82 0
HStem: 0 350<478 1070> 700 350<551 963.836> 700 107<452.568 549.109>
VStem: 151 306<842.516 980.029> 478 698<85.7812 349.062> 1070 106<350 635.761>
AnchorPoint: "puncta" 634 0 basechar 0
LayerCount: 2
Fore
SplineSet
1070 522 m 2,0,1
 1070 654 1070 654 916 700 c 1,2,-1
 430 700 l 1,3,4
 416 583 416 583 403 527 c 0,5,6
 387 457 387 457 369.5 396 c 0
 352 335 352 335 329 260 c 0
 306 185 306 185 290 130 c 1,7,8
 266 79 266 79 229 29.5 c 0
 192 -20 192 -20 162 -32 c 1,9,-1
 297 689 l 1,10,-1
 79 728 l 1,11,12
 114 824 114 824 134 943 c 0,13,14
 137 962 137 962 141.5 983.5 c 0
 146 1005 146 1005 147.5 1013 c 0
 149 1021 149 1021 150 1039 c 0
 151 1057 151 1057 151 1086 c 1,15,16
 176 1078 176 1078 194 1071 c 0
 212 1064 212 1064 234 1057 c 2,17,-1
 370 1010 l 2,18,19
 410 992 410 992 433.5 954 c 0
 457 916 457 916 457 875 c 0,20,21
 457 860 457 860 452 842 c 1,22,23
 470 807 470 807 501 807 c 0,24,25
 518 807 518 807 532 820.5 c 0
 546 834 546 834 551 860 c 1,26,27
 551 950 551 950 507 1050 c 1,28,-1
 834 1050 l 2,29,30
 877 1050 877 1050 935.5 1021.5 c 0
 994 993 994 993 1047.5 947.5 c 0
 1101 902 1101 902 1138.5 835 c 0
 1176 768 1176 768 1176 700 c 2,31,-1
 1176 0 l 1,32,-1
 384 0 l 1,33,34
 478 135 478 135 478 291 c 0,35,36
 478 323 478 323 474 350 c 1,37,-1
 1070 350 l 1,38,39
 1070 522 l 2,0,1
EndSplineSet
Validated: 1
EndChar

StartChar: uni05DF
Encoding: 1503 1503 108
Width: 550
VWidth: 1290
Flags: W
TeX: 82 0
HStem: 700 350<108 126 155.938 241 304 396.707 425 438> 1388 20G<263 294.5>
VStem: 47 114<1198.57 1342.06> 108 330<702.952 1047.47> 202 142<-68.7366 694.807> 222 113<1264.48 1406.16> 261 37<1050 1277.3> 382 114<1190.48 1332.06>
AnchorPoint: "puncta" 273 0 basechar 0
LayerCount: 2
Fore
SplineSet
126 1050 m 1,0,-1
 86 1198 l 1,1,2
 47 1215 47 1215 47 1270 c 0,3,4
 47 1300 47 1300 64 1322 c 0
 81 1344 81 1344 104 1344 c 0,5,6
 127 1344 127 1344 144 1322 c 0
 161 1300 161 1300 161 1270 c 0,7,8
 161 1219 161 1219 124 1198 c 0,9,10
 123 1198 123 1198 123 1194 c 0,11,12
 123 1176 123 1176 142.5 1125 c 0
 162 1074 162 1074 178 1050 c 1,13,-1
 261 1050 l 1,14,-1
 261 1264 l 1,15,16
 244 1272 244 1272 233 1291 c 0
 222 1310 222 1310 222 1334 c 0,17,18
 222 1365 222 1365 238.5 1386.5 c 0
 255 1408 255 1408 279 1408 c 0,19,20
 302 1408 302 1408 318.5 1386.5 c 0
 335 1365 335 1365 335 1334 c 0,21,22
 335 1281 335 1281 298 1264 c 1,23,-1
 298 1050 l 1,24,-1
 377 1050 l 1,25,26
 391 1078 391 1078 399 1100 c 0
 407 1122 407 1122 413 1151.5 c 0
 419 1181 419 1181 421 1188 c 1,27,28
 382 1205 382 1205 382 1260 c 0,29,30
 382 1290 382 1290 399 1312 c 0
 416 1334 416 1334 439 1334 c 0,31,32
 462 1334 462 1334 479 1312 c 0
 496 1290 496 1290 496 1260 c 0,33,34
 496 1236 496 1236 485.5 1217 c 0
 475 1198 475 1198 459 1190 c 1,35,-1
 425 1050 l 1,36,-1
 449 1050 l 1,37,38
 438 942 438 942 438 885 c 0,39,40
 438 790 438 790 448 700 c 1,41,-1
 304 700 l 1,42,43
 344 552 344 552 344 394 c 0,44,45
 344 228 344 228 321 -195 c 0
 298 -618 298 -618 271 -700 c 1,46,47
 244 -619 244 -619 223 -199 c 0
 202 221 202 221 202 394 c 0,48,49
 202 551 202 551 241 700 c 1,50,-1
 98 700 l 1,51,52
 108 790 108 790 108 884 c 0,53,54
 108 973 108 973 98 1050 c 1,55,-1
 126 1050 l 1,0,-1
EndSplineSet
Validated: 1
EndChar

StartChar: uni05E0
Encoding: 1504 1504 109
Width: 679
VWidth: 1303
Flags: W
TeX: 82 0
HStem: 0 350<144.357 410> 1388 20G<352 383.5>
VStem: 136 114<1198.48 1341.11> 215 303<703.026 1046.69> 311 113<1263.53 1406.11> 350 37<1051 1276.03> 471 114<1189.53 1331.11>
AnchorPoint: "puncta" 356 0 basechar 0
LayerCount: 2
Fore
SplineSet
515 1050 m 1,0,-1
 540 1050 l 1,1,2
 537 1026 537 1026 531 990.5 c 0
 525 955 525 955 521.5 927 c 0
 518 899 518 899 518 867 c 0,3,4
 518 838 518 838 521.5 812 c 0
 525 786 525 786 530.5 754.5 c 0
 536 723 536 723 539 700 c 1,5,-1
 429 700 l 1,6,7
 452 651 452 651 483 578 c 0
 514 505 514 505 540.5 449 c 0
 567 393 567 393 602 331 c 0,8,9
 639 267 639 267 639 186 c 0,10,11
 639 89 639 89 587 36 c 0,12,13
 578 27 578 27 568.5 21.5 c 0
 559 16 559 16 546 10.5 c 0
 533 5 533 5 524 0 c 1,14,-1
 20 0 l 1,15,16
 27 13 27 13 61 70.5 c 0
 95 128 95 128 111 169 c 0,17,18
 123 199 123 199 129.5 226.5 c 0
 136 254 136 254 142 290 c 0
 148 326 148 326 153 350 c 1,19,-1
 410 350 l 1,20,21
 383 490 383 490 380 508 c 0,22,23
 358 646 358 646 350 700 c 1,24,-1
 194 700 l 1,25,26
 197 723 197 723 202.5 754.5 c 0
 208 786 208 786 211.5 812 c 0
 215 838 215 838 215 867 c 0,27,28
 215 899 215 899 211.5 927 c 0
 208 955 208 955 202 990.5 c 0
 196 1026 196 1026 193 1050 c 1,29,-1
 215 1050 l 1,30,-1
 175 1198 l 1,31,32
 158 1206 158 1206 147 1225 c 0
 136 1244 136 1244 136 1269 c 0,33,34
 136 1300 136 1300 153 1321.5 c 0
 170 1343 170 1343 193 1343 c 0,35,36
 216 1343 216 1343 233 1321.5 c 0
 250 1300 250 1300 250 1269 c 0,37,38
 250 1216 250 1216 215 1198 c 0,39,40
 212 1195 212 1195 212 1193 c 0,41,42
 212 1176 212 1176 231.5 1125.5 c 0
 251 1075 251 1075 267 1050 c 1,43,-1
 350 1050 l 1,44,-1
 350 1263 l 1,45,46
 333 1271 333 1271 322 1290.5 c 0
 311 1310 311 1310 311 1334 c 0,47,48
 311 1365 311 1365 327.5 1386.5 c 0
 344 1408 344 1408 368 1408 c 0,49,50
 391 1408 391 1408 407.5 1386.5 c 0
 424 1365 424 1365 424 1334 c 0,51,52
 424 1282 424 1282 387 1263 c 1,53,-1
 387 1051 l 1,54,-1
 466 1051 l 1,55,56
 477 1073 477 1073 485 1093.5 c 0
 493 1114 493 1114 496 1126 c 0
 499 1138 499 1138 503 1158 c 0
 507 1178 507 1178 510 1188 c 1,57,58
 493 1196 493 1196 482 1215 c 0
 471 1234 471 1234 471 1259 c 0,59,60
 471 1290 471 1290 488 1311.5 c 0
 505 1333 505 1333 528 1333 c 0,61,62
 551 1333 551 1333 568 1311.5 c 0
 585 1290 585 1290 585 1259 c 0,63,64
 585 1208 585 1208 548 1189 c 1,65,-1
 515 1050 l 1,0,-1
EndSplineSet
Validated: 1
EndChar

StartChar: uni05E1
Encoding: 1505 1505 110
Width: 1180
VWidth: 1206
Flags: W
TeX: 82 0
HStem: 0 330<423.645 816.732> 700 350<101 179 319 952.035>
VStem: 179 140<429.929 700> 971 162<453.357 850>
AnchorPoint: "puncta" 577 0 basechar 0
LayerCount: 2
Fore
SplineSet
319 700 m 17,0,1
 319 671 l 2,2,3
 319 631 319 631 320 606 c 0
 321 581 321 581 325 545 c 0
 329 509 329 509 337.5 486.5 c 0
 346 464 346 464 360 436.5 c 0
 374 409 374 409 397 392 c 0
 420 375 420 375 450.5 359.5 c 0
 481 344 481 344 525 337 c 0
 569 330 569 330 623 330 c 0,4,5
 707 330 707 330 772 349 c 0
 837 368 837 368 873 395.5 c 0
 909 423 909 423 932.5 459 c 0
 956 495 956 495 963.5 523.5 c 0
 971 552 971 552 971 578 c 0,6,7
 971 634 971 634 951.5 664 c 0
 932 694 932 694 901 700 c 1,8,-1
 319 700 l 17,0,1
81 1050 m 9,9,-1
 887 1050 l 2,10,11
 918 1050 918 1050 945 1044.5 c 0
 972 1039 972 1039 1001 1026 c 0
 1030 1013 1030 1013 1053 987.5 c 0
 1076 962 1076 962 1094.5 924.5 c 0
 1113 887 1113 887 1123 830 c 0
 1133 773 1133 773 1133 700 c 0,12,13
 1133 642 1133 642 1126.5 581.5 c 0
 1120 521 1120 521 1103.5 451 c 0
 1087 381 1087 381 1061.5 318.5 c 0
 1036 256 1036 256 994.5 196.5 c 0
 953 137 953 137 900 94.5 c 0
 847 52 847 52 771.5 26 c 0
 696 0 696 0 607 0 c 0,14,15
 539 0 539 0 482.5 14.5 c 0
 426 29 426 29 385 52 c 0
 344 75 344 75 311 112.5 c 0
 278 150 278 150 257 186.5 c 0
 236 223 236 223 220.5 275.5 c 0
 205 328 205 328 197 369.5 c 0
 189 411 189 411 185 469 c 0
 181 527 181 527 180 565 c 0
 179 603 179 603 179 658 c 2,16,17
 179 700 l 1,18,-1
 81 700 l 1,19,20
 101 807 101 807 101 888 c 0,21,22
 101 969 101 969 81 1050 c 9,9,-1
EndSplineSet
Validated: 1
EndChar

StartChar: uni05E2
Encoding: 1506 1506 111
Width: 1201
VWidth: 1290
Flags: W
TeX: 82 0
HStem: 700 350<208 227 256.938 349.084 404 497.707 526 538> 1389 20G<364 395.5>
VStem: 148 114<1199.53 1342.11> 208 330<702.952 1046.47> 323 113<1264.53 1407.11> 362 37<1050 1277.03> 483 114<1190.53 1332.11>
AnchorPoint: "puncta" 724 0 basechar 0
LayerCount: 2
Fore
SplineSet
526 1049 m 1,0,-1
 549 1049 l 1,1,2
 538 941 538 941 538 884 c 0,3,4
 538 790 538 790 548 700 c 1,5,-1
 404 700 l 1,6,-1
 563 267 l 1,7,8
 722.57095608 322.317931441 722.57095608 322.317931441 782.364021421 356.332746693 c 0
 892.074598219 418.744415665 892.074598219 418.744415665 959.652735082 540.11852112 c 0
 991.522374745 597.358172653 991.522374745 597.358172653 1020 675 c 1,9,-1
 725 766 l 1,10,11
 773 803 773 803 823 929 c 0
 873 1055 873 1055 873 1092 c 1,12,-1
 1068 1020 l 2,13,14
 1161 986 1161 986 1161 876 c 0,15,16
 1161 741 1161 741 1127 621 c 0
 1093 501 1093 501 1036 406 c 0
 979 311 979 311 890.5 224.5 c 0
 802 138 802 138 708 73 c 0
 614 8 614 8 490.5 -54 c 0
 367 -116 367 -116 255.5 -161.5 c 0
 144 -207 144 -207 5 -255 c 1,17,18
 7 -247 7 -247 14.5 -215.5 c 0
 22 -184 22 -184 24.5 -173 c 0
 27 -162 27 -162 32.5 -135 c 0
 38 -108 38 -108 40 -91 c 0
 42 -74 42 -74 44 -50 c 0
 46 -26 46 -26 46 -4 c 0,19,20
 46 48 46 48 38 93 c 1,21,-1
 426 222 l 1,22,23
 345 696 345 696 341 700 c 1,24,-1
 198 700 l 1,25,26
 198 732 198 732 203 792.5 c 0
 208 853 208 853 208 883 c 0,27,28
 208 972 208 972 198 1049 c 1,29,-1
 227 1049 l 1,30,-1
 187 1199 l 1,31,32
 170 1207 170 1207 159 1226 c 0
 148 1245 148 1245 148 1270 c 0,33,34
 148 1301 148 1301 165 1322.5 c 0
 182 1344 182 1344 205 1344 c 0,35,36
 228 1344 228 1344 245 1322.5 c 0
 262 1301 262 1301 262 1270 c 0,37,38
 262 1246 262 1246 251.5 1226.5 c 0
 241 1207 241 1207 225 1199 c 0,39,40
 224 1198 224 1198 224 1194 c 0,41,42
 224 1177 224 1177 243.5 1126 c 0
 263 1075 263 1075 279 1050 c 1,43,-1
 362 1050 l 1,44,-1
 362 1264 l 1,45,46
 345 1272 345 1272 334 1291.5 c 0
 323 1311 323 1311 323 1335 c 0,47,48
 323 1366 323 1366 339.5 1387.5 c 0
 356 1409 356 1409 380 1409 c 0,49,50
 403 1409 403 1409 419.5 1387.5 c 0
 436 1366 436 1366 436 1335 c 0,51,52
 436 1311 436 1311 426 1291.5 c 0
 416 1272 416 1272 399 1264 c 1,53,-1
 399 1050 l 1,54,-1
 478 1050 l 1,55,56
 489 1072 489 1072 497 1092.5 c 0
 505 1113 505 1113 508 1126 c 0
 511 1139 511 1139 515 1159 c 0
 519 1179 519 1179 522 1189 c 1,57,58
 505 1197 505 1197 494 1216 c 0
 483 1235 483 1235 483 1260 c 0,59,60
 483 1291 483 1291 500 1312.5 c 0
 517 1334 517 1334 540 1334 c 0,61,62
 563 1334 563 1334 580 1312.5 c 0
 597 1291 597 1291 597 1260 c 0,63,64
 597 1209 597 1209 560 1190 c 1,65,-1
 526 1049 l 1,0,-1
EndSplineSet
Validated: 1
EndChar

StartChar: uni05E3
Encoding: 1507 1507 112
Width: 1195
VWidth: 1066
Flags: W
TeX: 82 0
HStem: 87 351<236.015 496> 705 345<228.666 986>
VStem: 94 118<455.531 888.868> 119 377<91.4921 434.716> 119 26<1144.88 1187.06> 986 142<229.483 705>
AnchorPoint: "puncta" 575 0 basechar 0
LayerCount: 2
Fore
SplineSet
986 705 m 9,0,-1
 297 705 l 2,1,2
 255 705 255 705 233.5 669.5 c 0
 212 634 212 634 212 583 c 0,3,4
 212 527 212 527 235.5 482.5 c 0
 259 438 259 438 297 438 c 2,5,-1
 513 438 l 1,6,7
 496 339 496 339 496 217 c 0,8,9
 496 169 496 169 507 142 c 0
 518 115 518 115 540 87 c 1,10,11
 418 87 l 1,12,-1
 185 87 l 2,13,14
 157 87 157 87 142.5 110 c 0
 128 133 128 133 119 184 c 1,15,16
 119 268 119 268 106.5 414.5 c 0
 94 561 94 561 94 626 c 0,17,18
 94 838 94 838 119 1052 c 0,19,20
 119 1075 119 1075 120.5 1096 c 0
 122 1117 122 1117 125.5 1139.5 c 0
 129 1162 129 1162 131 1175.5 c 0
 133 1189 133 1189 138 1214 c 0
 143 1239 143 1239 145 1248 c 1,21,22
 161 1106 161 1106 176 1050 c 1,23,-1
 1051 1050 l 1,24,25
 1067 1046 1067 1046 1079 1021.5 c 0
 1091 997 1091 997 1098 955.5 c 0
 1105 914 1105 914 1109 875.5 c 0
 1113 837 1113 837 1117.5 782.5 c 0
 1122 728 1122 728 1125 701 c 0,26,27
 1125 616 1125 616 1126.5 448 c 0
 1128 280 1128 280 1128 199 c 0,28,29
 1128 -99 1128 -99 1106 -316.5 c 0
 1084 -534 1084 -534 1020 -700 c 1,30,31
 1020 -461 1020 -461 1003 9.5 c 0
 986 480 986 480 986 705 c 9,0,-1
EndSplineSet
Validated: 1
EndChar

StartChar: uni05E4
Encoding: 1508 1508 113
Width: 1206
VWidth: 1166
Flags: W
TeX: 82 0
HStem: -350 350<135.102 906.561> 175 350<225.206 606> 700 350<217.885 885>
VStem: 99 507<281.159 522.703> 99 114<531.118 698.629> 123 42<1050.47 1117.93> 885 261<177.899 696.282> 997 149<36.8193 175>
CounterMasks: 1 e0
AnchorPoint: "puncta" 591 0 basechar 0
LayerCount: 2
Fore
SplineSet
643 175 m 1,0,1
 320 175 l 2,2,3
 225 175 225 175 162 255 c 0
 99 335 99 335 99 442 c 2,4,-1
 99 700 l 2,5,6
 99 842 99 842 111 1011.5 c 0
 123 1181 123 1181 123 1249 c 1,7,-1
 165 1050 l 1,8,-1
 1063 1050 l 1,9,-1
 1084 981 l 2,10,11
 1114 882 1114 882 1126 798.5 c 0
 1138 715 1138 715 1138 606 c 0,12,13
 1138 528 1138 528 1142 404 c 0
 1146 280 1146 280 1146 224 c 0,14,15
 1146 109 1146 109 1135 52 c 0
 1124 -5 1124 -5 1084 -87 c 0,16,17
 1064 -129 1064 -129 1037 -165 c 0
 1010 -201 1010 -201 986.5 -224.5 c 0
 963 -248 963 -248 928.5 -283.5 c 0
 894 -319 894 -319 868 -350 c 1,18,-1
 34 -350 l 1,19,20
 44 -326 44 -326 60 -294.5 c 0
 76 -263 76 -263 87.5 -236.5 c 0
 99 -210 99 -210 109 -179 c 0,21,22
 118 -149 118 -149 123 -121.5 c 0
 128 -94 128 -94 132.5 -59.5 c 0
 137 -25 137 -25 142 0 c 1,23,-1
 874 0 l 2,24,25
 918 0 918 0 947.5 30.5 c 0
 977 61 977 61 987 98 c 0
 997 135 997 135 997 175 c 1,26,-1
 885 175 l 1,27,-1
 885 700 l 1,28,-1
 269 700 l 2,29,30
 247 700 247 700 230 680.5 c 0
 213 661 213 661 213 616 c 0,31,32
 213 570 213 570 235.5 547.5 c 0
 258 525 258 525 284 525 c 2,33,34
 628 525 l 1,35,36
 606 448 606 448 606 375 c 0,37,38
 606 277 606 277 643 175 c 1,0,1
EndSplineSet
Validated: 1
EndChar

StartChar: uni05E5
Encoding: 1509 1509 114
Width: 1160
VWidth: 1290
Flags: W
TeX: 82 0
HStem: 240 127<349 470.105> 701 349<110 122 151.938 243 306 392.707 421 440> 1389 20G<259 290.5>
VStem: 43 114<1199.53 1342.11> 110 330<703.952 1047.47> 203 143<-68.7366 249.86 367 695.787> 218 113<1264.53 1407.11> 257 37<1050 1277.03> 378 114<1190.53 1332.11>
AnchorPoint: "puncta" 615 0 basechar 0
LayerCount: 2
Fore
SplineSet
122 1050 m 1,0,-1
 82 1199 l 1,1,2
 65 1207 65 1207 54 1226 c 0
 43 1245 43 1245 43 1270 c 0,3,4
 43 1301 43 1301 60 1322.5 c 0
 77 1344 77 1344 100 1344 c 0,5,6
 123 1344 123 1344 140 1322.5 c 0
 157 1301 157 1301 157 1270 c 0,7,8
 157 1246 157 1246 146.5 1226.5 c 0
 136 1207 136 1207 120 1199 c 0,9,10
 119 1198 119 1198 119 1194 c 0,11,12
 119 1177 119 1177 138.5 1126 c 0
 158 1075 158 1075 174 1050 c 1,13,-1
 257 1050 l 1,14,-1
 257 1264 l 1,15,16
 240 1272 240 1272 229 1291.5 c 0
 218 1311 218 1311 218 1335 c 0,17,18
 218 1366 218 1366 234.5 1387.5 c 0
 251 1409 251 1409 275 1409 c 0,19,20
 298 1409 298 1409 314.5 1387.5 c 0
 331 1366 331 1366 331 1335 c 0,21,22
 331 1311 331 1311 321 1291.5 c 0
 311 1272 311 1272 294 1264 c 1,23,-1
 294 1050 l 1,24,-1
 373 1050 l 1,25,26
 384 1072 384 1072 392 1092.5 c 0
 400 1113 400 1113 403 1126 c 0
 406 1139 406 1139 410 1159 c 0
 414 1179 414 1179 417 1189 c 1,27,28
 400 1197 400 1197 389 1216 c 0
 378 1235 378 1235 378 1260 c 0,29,30
 378 1291 378 1291 395 1312.5 c 0
 412 1334 412 1334 435 1334 c 0,31,32
 458 1334 458 1334 475 1312.5 c 0
 492 1291 492 1291 492 1260 c 0,33,34
 492 1209 492 1209 455 1190 c 1,35,-1
 421 1050 l 1,36,-1
 451 1050 l 1,37,38
 440 942 440 942 440 885 c 0,39,40
 440 791 440 791 450 701 c 1,41,-1
 306 701 l 1,42,43
 349 542 349 542 349 367 c 1,44,45
 405 367 405 367 511.5 422.5 c 0
 618 478 618 478 706.5 546.5 c 0
 795 615 795 615 811 651 c 0,46,47
 817 667 817 667 817 691 c 0,48,49
 817 707 817 707 815 716 c 0,50,51
 815 758 815 758 767 776.5 c 0
 719 795 719 795 658 795 c 1,52,53
 664 803 664 803 685.5 831.5 c 0
 707 860 707 860 719.5 879 c 0
 732 898 732 898 741 917 c 0,54,55
 761 962 761 962 780 1072.5 c 0
 799 1183 799 1183 799 1239 c 1,56,57
 806 1223 806 1223 809.5 1185.5 c 0
 813 1148 813 1148 823 1124 c 0
 833 1100 833 1100 859 1096 c 1,58,-1
 1076 999 l 1,59,60
 1124 956 1124 956 1124 900 c 0,61,62
 1124 862 1124 862 1093 771 c 0,63,64
 1071 702 1071 702 996 624 c 0
 921 546 921 546 826 481.5 c 0
 731 417 731 417 631.5 362.5 c 0
 532 308 532 308 455 275.5 c 0
 378 243 378 243 346 240 c 1,65,66
 346 23 346 23 321.5 -301 c 0
 297 -625 297 -625 272 -700 c 1,67,68
 246 -619 246 -619 224.5 -197.5 c 0
 203 224 203 224 203 394 c 0,69,70
 203 548 203 548 243 701 c 1,71,-1
 100 701 l 1,72,73
 100 733 100 733 105 793.5 c 0
 110 854 110 854 110 884 c 0,74,75
 110 973 110 973 100 1050 c 1,76,-1
 122 1050 l 1,0,-1
EndSplineSet
Validated: 1
EndChar

StartChar: uni05E6
Encoding: 1510 1510 115
Width: 1148
VWidth: 1290
Flags: W
TeX: 82 0
HStem: 0 350<153 623> 700 350<116 135 162.938 260.219 324 403.707 432 446> 708 21G<618.5 627.205> 1390 20G<270 301.5>
VStem: 54 114<1200.48 1342.16> 116 330<702.953 1047.51> 135 50<1050 1099.33> 153 896<50.2174 273.872> 229 113<1264.57 1408.06> 268 37<1050 1277.35> 389 114<1190.57 1332.16>
AnchorPoint: "puncta" 599 0 basechar 0
LayerCount: 2
Fore
SplineSet
432 1050 m 1,0,-1
 457 1050 l 1,1,2
 446 942 446 942 446 885 c 0,3,4
 446 781 446 781 455 700 c 1,5,-1
 324 700 l 1,6,7
 624 477 l 1,8,9
 760 578 760 578 820 646 c 1,10,11
 829 668 829 668 829 677 c 0,12,13
 829 687 829 687 821 708 c 0,14,15
 793 755 793 755 730 755 c 0,16,17
 696 755 696 755 661.5 739.5 c 0
 627 724 627 724 609 708 c 1,18,-1
 680 786 l 2,19,20
 720 834 720 834 774 924 c 0,21,22
 787 944 787 944 798.5 970.5 c 0
 810 997 810 997 820 1032.5 c 0
 830 1068 830 1068 835 1087 c 0
 840 1106 840 1106 848.5 1147 c 0
 857 1188 857 1188 857 1190 c 1,23,24
 860 1178 860 1178 863 1150.5 c 0
 866 1123 866 1123 872 1104.5 c 0
 878 1086 878 1086 893 1078 c 2,25,-1
 1047 982 l 1,26,27
 1098 926 1098 926 1098 867 c 0,28,29
 1098 818 1098 818 1065 764 c 1,30,31
 1035 727 1035 727 972.5 670.5 c 0
 910 614 910 614 823.5 540.5 c 0
 737 467 737 467 706 440 c 1,32,33
 740 422 740 422 790 399.5 c 0
 840 377 840 377 872 363 c 0
 904 349 904 349 941 326 c 0
 978 303 978 303 999 280 c 0
 1020 257 1020 257 1034.5 221 c 0
 1049 185 1049 185 1049 140 c 0,34,35
 1049 104 1049 104 1023 69 c 0
 997 34 997 34 971 17 c 2
 945 0 l 1,36,37
 89 0 l 1,38,39
 128 71 128 71 140.5 153.5 c 0
 153 236 153 236 153 350 c 1,40,-1
 623 350 l 1,41,42
 556 366 556 366 425.5 481.5 c 0
 295 597 295 597 233 700 c 1,43,-1
 106 700 l 1,44,45
 116 790 116 790 116 884 c 0,46,47
 116 970 116 970 107 1050 c 1,48,-1
 135 1050 l 1,49,-1
 93 1200 l 1,50,51
 76 1208 76 1208 65 1227 c 0
 54 1246 54 1246 54 1270 c 0,52,53
 54 1301 54 1301 71 1322.5 c 0
 88 1344 88 1344 111 1344 c 0,54,55
 134 1344 134 1344 151 1322.5 c 0
 168 1301 168 1301 168 1270 c 0,56,57
 168 1216 168 1216 135 1200 c 0,58,59
 135 1199 135 1199 132.5 1197 c 0
 130 1195 130 1195 130 1194 c 0,60,61
 130 1178 130 1178 149.5 1127 c 0
 169 1076 169 1076 185 1050 c 1,62,-1
 268 1050 l 1,63,-1
 268 1264 l 1,64,65
 251 1272 251 1272 240 1291.5 c 0
 229 1311 229 1311 229 1336 c 0,66,67
 229 1366 229 1366 245.5 1388 c 0
 262 1410 262 1410 286 1410 c 0,68,69
 309 1410 309 1410 325.5 1388 c 0
 342 1366 342 1366 342 1336 c 0,70,71
 342 1284 342 1284 305 1264 c 1,72,-1
 305 1050 l 1,73,-1
 384 1050 l 1,74,75
 395 1072 395 1072 403 1092.5 c 0
 411 1113 411 1113 414 1126 c 0
 417 1139 417 1139 421 1159.5 c 0
 425 1180 425 1180 428 1190 c 1,76,77
 411 1198 411 1198 400 1217 c 0
 389 1236 389 1236 389 1260 c 0,78,79
 389 1291 389 1291 406 1312.5 c 0
 423 1334 423 1334 446 1334 c 0,80,81
 469 1334 469 1334 486 1312.5 c 0
 503 1291 503 1291 503 1260 c 0,82,83
 503 1211 503 1211 466 1190 c 1,84,-1
 432 1050 l 1,0,-1
EndSplineSet
Validated: 1
EndChar

StartChar: uni05E7
Encoding: 1511 1511 116
Width: 1152
VWidth: 1206
Flags: W
TeX: 82 0
HStem: 0 350<647 878.933> 160 350<165 299 362 495> 700 350<128 175 212 883.393> 1389 20G<177 208.5>
VStem: 136 113<1264.53 1407.11> 165 330<162.952 507.468> 175 37<1050 1277.03> 284 188<-334.538 -98.6853> 447 25<-688.172 -586> 990 106<407.072 636.098>
AnchorPoint: "puncta" 522 0 basechar 0
LayerCount: 2
Fore
SplineSet
212 1050 m 1,0,-1
 754 1050 l 2,1,2
 797 1050 797 1050 855 1021.5 c 0
 913 993 913 993 967 947.5 c 0
 1021 902 1021 902 1058.5 835 c 0
 1096 768 1096 768 1096 700 c 2,3,-1
 1096 348 l 2,4,5
 1096 294 1096 294 1070 239.5 c 0
 1044 185 1044 185 1004.5 143 c 0
 965 101 965 101 919 68 c 0
 873 35 873 35 830 17.5 c 0
 787 0 787 0 758 0 c 2,6,-1
 554 0 l 1,7,8
 647 134 647 134 647 288 c 0,9,10
 647 298 647 298 645.5 319 c 0
 644 340 644 340 644 350 c 1,11,-1
 836 350 l 1,12,13
 898 358 898 358 944 404 c 0
 990 450 990 450 990 522 c 0,14,15
 990 596 990 596 945 639 c 0
 900 682 900 682 836 700 c 1,16,-1
 92 700 l 1,17,18
 124 787 124 787 124 860 c 0,19,20
 124 904 124 904 107.5 982 c 0
 91 1060 91 1060 68 1112 c 1,21,-1
 128 1050 l 1,22,-1
 175 1050 l 1,23,-1
 175 1264 l 1,24,25
 158 1272 158 1272 147 1291.5 c 0
 136 1311 136 1311 136 1335 c 0,26,27
 136 1366 136 1366 152.5 1387.5 c 0
 169 1409 169 1409 193 1409 c 0,28,29
 216 1409 216 1409 232.5 1387.5 c 0
 249 1366 249 1366 249 1335 c 0,30,31
 249 1311 249 1311 239 1291.5 c 0
 229 1272 229 1272 212 1264 c 1,32,-1
 212 1050 l 1,0,-1
495 345 m 0,33,34
 495 315 495 315 500 253.5 c 0
 505 192 505 192 505 160 c 1,35,-1
 362 160 l 1,36,37
 437 -129 437 -129 451 -210 c 0,38,39
 472 -333 472 -333 472 -483 c 0,40,41
 472 -640 472 -640 447 -746 c 1,42,43
 370 -537 370 -537 310 -252 c 0,44,45
 284 -126 284 -126 284 15 c 0,46,47
 284 105 284 105 299 160 c 1,48,-1
 155 160 l 1,49,50
 165 250 165 250 165 344 c 0,51,52
 165 433 165 433 155 510 c 1,53,-1
 506 510 l 1,54,55
 495 402 495 402 495 345 c 0,33,34
EndSplineSet
Validated: 1
EndChar

StartChar: uni05E8
Encoding: 1512 1512 117
Width: 1260
VWidth: 1211
Flags: W
TeX: 82 0
HStem: 707 350<97 1033.76>
VStem: 1079 127<233.984 674.871>
AnchorPoint: "puncta" 569 0 basechar 0
LayerCount: 2
Fore
SplineSet
1206 599 m 0,0,1
 1206 591 1206 591 1205.5 572 c 0
 1205 553 1205 553 1205 542 c 0,2,3
 1205 449 1205 449 1194.5 380.5 c 0
 1184 312 1184 312 1157 217 c 0,4,5
 1143 169 1143 169 1123.5 128 c 0
 1104 87 1104 87 1077 37.5 c 0
 1050 -12 1050 -12 1033 -48 c 1,6,7
 1039 12 1039 12 1051.5 92 c 0
 1064 172 1064 172 1071.5 238.5 c 0
 1079 305 1079 305 1079 379 c 2,8,9
 1079 449 l 2,10,11
 1079 555 1079 555 1065 613 c 0
 1051 671 1051 671 1028.5 689 c 0
 1006 707 1006 707 968 707 c 2,12,13
 937 707 l 1,14,-1
 82 707 l 1,15,16
 82 746 82 746 89.5 807 c 0
 97 868 97 868 97 908 c 0,17,18
 97 937 97 937 89.5 982.5 c 0
 82 1028 82 1028 82 1057 c 1,19,-1
 874 1057 l 2,20,21
 941 1057 941 1057 998.5 1032.5 c 0
 1056 1008 1056 1008 1103.5 956.5 c 0
 1151 905 1151 905 1178.5 813.5 c 0
 1206 722 1206 722 1206 599 c 0,0,1
EndSplineSet
Validated: 1
EndChar

StartChar: uni05E9
Encoding: 1513 1513 118
Width: 1241
VWidth: 1290
Flags: W
TeX: 82 0
HStem: 700 350<106 132 161.263 240.484 316 401.862 431 436> 1390 20G<268 300>
VStem: 52 114<1200.48 1342.16> 106 330<702.952 1047.47> 228 112<1264.57 1408.46> 232 84<647.564 700> 266 38<1050 1278.28> 388 114<1190.57 1332.16> 631 18<1167.7 1224>
AnchorPoint: "puncta" 647 0 basechar 0
LayerCount: 2
Fore
SplineSet
132 1050 m 1,0,-1
 92 1200 l 1,1,2
 52 1217 52 1217 52 1270 c 0,3,4
 52 1301 52 1301 69 1322.5 c 0
 86 1344 86 1344 110 1344 c 0,5,6
 133 1344 133 1344 149.5 1322.5 c 0
 166 1301 166 1301 166 1270 c 0,7,8
 166 1247 166 1247 155.5 1227.5 c 0
 145 1208 145 1208 130 1200 c 0,9,10
 128 1198 128 1198 128 1194 c 0,11,12
 128 1177 128 1177 148 1126 c 0
 168 1075 168 1075 184 1050 c 1,13,-1
 266 1050 l 1,14,-1
 266 1264 l 1,15,16
 249 1272 249 1272 238.5 1291.5 c 0
 228 1311 228 1311 228 1336 c 0,17,18
 228 1366 228 1366 244 1388 c 0
 260 1410 260 1410 284 1410 c 0,19,20
 308 1410 308 1410 324 1388 c 0
 340 1366 340 1366 340 1336 c 0,21,22
 340 1284 340 1284 304 1264 c 1,23,-1
 304 1050 l 1,24,-1
 382 1050 l 1,25,26
 393 1072 393 1072 401 1093.5 c 0
 409 1115 409 1115 412 1125.5 c 0
 415 1136 415 1136 419.5 1159.5 c 0
 424 1183 424 1183 426 1190 c 1,27,28
 409 1198 409 1198 398.5 1217 c 0
 388 1236 388 1236 388 1260 c 0,29,30
 388 1291 388 1291 404.5 1312.5 c 0
 421 1334 421 1334 444 1334 c 0,31,32
 468 1334 468 1334 485 1312.5 c 0
 502 1291 502 1291 502 1260 c 0,33,34
 502 1211 502 1211 464 1190 c 1,35,-1
 431 1050 l 1,36,-1
 447 1050 l 1,37,38
 436 942 436 942 436 885 c 0,39,40
 436 790 436 790 446 700 c 1,41,-1
 316 700 l 1,42,43
 427 294 427 294 427 294 c 1,44,45
 485 368 485 368 522.5 422.5 c 0
 560 477 560 477 602 563 c 0
 644 649 644 649 664 734 c 1,46,-1
 480 840 l 1,47,48
 533 902 533 902 587 996 c 0,49,50
 605 1026 605 1026 612.5 1064 c 0
 620 1102 620 1102 623 1151 c 0
 626 1200 626 1200 631 1224 c 1,51,52
 647 1226 647 1226 649 1212 c 0,53,54
 649 1204 649 1204 648.5 1189 c 0
 648 1174 648 1174 648 1167 c 0,55,56
 648 1099 648 1099 701 1059 c 2,57,-1
 818 968 l 1,58,59
 849 923 849 923 849 895 c 0,60,61
 849 884 849 884 848 878 c 0,62,63
 823 728 823 728 767 636 c 0,64,65
 743 595 743 595 716 555.5 c 0
 689 516 689 516 656 473 c 0
 623 430 623 430 601 403 c 0
 579 376 579 376 537.5 325.5 c 0
 496 275 496 275 480 255 c 1,66,67
 633 255 633 255 768 337.5 c 0
 903 420 903 420 985 549 c 1,68,69
 1041 649 1041 649 1041 690 c 0,70,71
 1041 695 1041 695 1039 711 c 1,72,-1
 858 778 l 1,73,74
 901 852 901 852 937 950 c 0,75,76
 958 1011 958 1011 971 1064 c 1,77,-1
 1037 1032 l 1,78,-1
 1176 962 l 1,79,80
 1205 934 1205 934 1205 889 c 0,81,82
 1205 864 1205 864 1194 820 c 0,83,84
 1178 751 1178 751 1091 596 c 1,85,86
 1054 494 1054 494 1005 414 c 0
 956 334 956 334 896.5 272.5 c 0
 837 211 837 211 758 161 c 0
 679 111 679 111 591.5 73.5 c 0
 504 36 504 36 388 0 c 1,87,88
 261 554 261 554 232 700 c 1,89,-1
 96 700 l 1,90,91
 106 790 106 790 106 884 c 0,92,93
 106 973 106 973 96 1050 c 1,94,-1
 132 1050 l 1,0,-1
EndSplineSet
Validated: 1
EndChar

StartChar: uni05EA
Encoding: 1514 1514 119
Width: 1210
VWidth: 1324
Flags: W
TeX: 82 0
HStem: 0 350<124 385.41> 700 350<118 240 362 890 1019 1148>
VStem: 118 1030<702.118 1048.37>
AnchorPoint: "puncta" 579 0 basechar 0
LayerCount: 2
Fore
SplineSet
240 700 m 1,0,-1
 101 700 l 1,1,2
 118 764 118 764 118 858 c 0,3,4
 118 982 118 982 98 1050 c 1,5,-1
 1148 1050 l 1,6,-1
 1148 700 l 1,7,-1
 1019 700 l 1,8,9
 1025 685 1025 685 1049.5 626.5 c 0
 1074 568 1074 568 1080.5 549.5 c 0
 1087 531 1087 531 1104 482.5 c 0
 1121 434 1121 434 1126.5 404 c 0
 1132 374 1132 374 1137.5 329.5 c 0
 1143 285 1143 285 1143 240 c 0,10,11
 1143 167 1143 167 1104.5 96.5 c 0
 1066 26 1066 26 989 -24 c 1,12,-1
 890 700 l 1,13,-1
 362 700 l 1,14,15
 383 651 383 651 432.5 550 c 0
 482 449 482 449 505.5 382 c 0
 529 315 529 315 544 224 c 0,16,17
 548 212 548 212 548 198 c 0,18,19
 548 151 548 151 511 102.5 c 0
 474 54 474 54 433.5 27 c 0
 393 0 393 0 373 0 c 2,20,-1
 79 0 l 1,21,-1
 124 350 l 1,22,-1
 387 350 l 1,23,-1
 240 700 l 1,0,-1
EndSplineSet
Validated: 1
EndChar

StartChar: uni20AA
Encoding: 8362 8362 120
Width: 1483
GlyphClass: 2
Flags: W
HStem: 956 284<351.324 435 451 738.313>
VStem: 125 206<420.726 948.883> 190 212<171.317 479.939> 732 197<624.095 960.757> 1183 131<421 705.969> 1183 114<421.062 876.192>
LayerCount: 2
Fore
SplineSet
872 278 m 1,0,1
 886 279 886 279 898 280 c 0
 910 281 910 281 917 281.5 c 0
 924 282 924 282 929.5 282 c 0
 935 282 935 282 938 282.5 c 0
 941 283 941 283 943 283 c 0
 945 283 945 283 946 284 c 0
 947 285 947 285 948 286 c 2,2,-1
 961 286 l 2,3,4
 983 286 983 286 1004 292 c 1,5,6
 1032 311 1032 311 1054 326.5 c 0
 1076 342 1076 342 1092.5 356.5 c 0
 1109 371 1109 371 1119.5 379.5 c 0
 1130 388 1130 388 1140.5 401 c 0
 1151 414 1151 414 1155 418.5 c 0
 1159 423 1159 423 1169.5 437.5 c 0
 1180 452 1180 452 1183 456 c 2,7,-1
 1183 925 l 1,8,-1
 1029 986 l 1,9,10
 1026 1012 1026 1012 1026 1029 c 2,11,-1
 1026 1031 l 2,12,13
 1026 1072 1026 1072 1050 1114 c 1,14,15
 1038 1142 1038 1142 1038 1172 c 0,16,17
 1038 1236 1038 1236 1096 1314 c 2,18,-1
 1118 1344 l 1,19,-1
 1138 1312 l 2,20,21
 1159 1274 1159 1274 1258 1227 c 2,22,-1
 1385 1166 l 1,23,-1
 1385 926 l 1,24,25
 1375 918 1375 918 1359.5 907 c 0
 1344 896 1344 896 1338 890 c 0
 1332 884 1332 884 1330 879 c 0,26,27
 1297 800 1297 800 1297 710 c 0,28,29
 1297 670 1297 670 1305.5 578 c 0
 1314 486 1314 486 1314 425 c 2,30,-1
 1314 421 l 1,31,-1
 1277 317 l 1,32,33
 1203 189 1203 189 1143 107 c 0
 1083 25 1083 25 1000 -52 c 0,34,35
 999 -53 999 -53 989.5 -62 c 0
 980 -71 980 -71 976.5 -74 c 0
 973 -77 973 -77 963 -85 c 0
 953 -93 953 -93 945.5 -96.5 c 0
 938 -100 938 -100 928 -105 c 0
 918 -110 918 -110 907.5 -112 c 0
 897 -114 897 -114 886 -114 c 0,36,37
 842 -114 842 -114 806 -74 c 1,38,39
 770 -12 770 -12 726 44 c 0
 682 100 682 100 651.5 132 c 0
 621 164 621 164 588.5 215 c 0
 556 266 556 266 534 329 c 1,40,41
 524 373 524 373 517.5 429 c 0
 511 485 511 485 502.5 526 c 0
 494 567 494 567 473 608 c 1,42,43
 464 611 464 611 434.5 618.5 c 0
 405 626 405 626 360 645 c 1,44,-1
 360 661 l 2,45,46
 360 724 360 724 388 763 c 1,47,48
 386 783 386 783 386 793 c 0,49,50
 386 858 386 858 422 929 c 2,51,-1
 435 956 l 1,52,-1
 373 956 l 1,53,54
 331 898 331 898 331 762 c 0,55,56
 331 650 331 650 366.5 463.5 c 0
 402 277 402 277 402 251 c 2,57,-1
 402 245 l 1,58,59
 341 132 341 132 235 -3 c 2,60,-1
 190 -60 l 1,61,-1
 190 12 l 2,62,63
 190 130 190 130 157.5 385 c 0
 125 640 125 640 125 745 c 0,64,65
 125 876 125 876 158 951 c 1,66,-1
 40 951 l 1,67,-1
 40 976 l 2,68,69
 40 1066 40 1066 62 1101 c 1,70,71
 58 1120 58 1120 58 1140 c 0,72,73
 58 1166 58 1166 65.5 1192 c 0
 73 1218 73 1218 91 1257 c 2
 109 1296 l 1,74,-1
 125 1330 l 1,75,-1
 150 1304 l 2,76,77
 214 1240 214 1240 286 1240 c 0,78,79
 322 1240 322 1240 457 1237 c 0
 592 1234 592 1234 627 1234 c 0,80,81
 801 1234 801 1234 966 1261 c 2,82,-1
 992 1265 l 1,83,-1
 1021 1006 l 2,84,85
 1019 1005 1019 1005 1015.41556626 1003.18084153 c 0
 998 994 998 994 987.5 986.5 c 0
 977 979 977 979 961 960 c 0
 945 941 945 941 937 907.5 c 0
 929 874 929 874 929 828 c 0,86,87
 929 736 929 736 965.5 642.5 c 0
 1002 549 1002 549 1009 503 c 1,88,-1
 872 278 l 1,0,1
451 956 m 1,89,-1
 466 930 l 2,90,91
 505 862 505 862 560 845 c 0,92,93
 582 836 582 836 615 821.5 c 0
 648 807 648 807 673 798 c 2,94,-1
 692 791 l 1,95,-1
 664 613 l 1,96,97
 627 593 627 593 627 586 c 0,98,99
 627 530 627 530 645 454 c 1,100,101
 714 297 714 297 808 275 c 1,102,103
 806 399 806 399 769 567 c 0
 732 735 732 735 732 851 c 0,104,105
 732 917 732 917 740 962 c 1,106,107
 686 956 686 956 635 956 c 2,108,-1
 451 956 l 1,89,-1
EndSplineSet
Validated: 1
EndChar

StartChar: uni05DA
Encoding: 1498 1498 121
Width: 1083
GlyphClass: 2
Flags: W
LayerCount: 2
Fore
SplineSet
90 1050 m 1,0,-1
 843 1050 l 2,1,2
 894 1050 894 1050 929 1029 c 128,-1,3
 964 1008 964 1008 981 972.5 c 128,-1,4
 998 937 998 937 1004.5 903 c 128,-1,5
 1011 869 1011 869 1011 830 c 2,6,-1
 1011 -826 l 1,7,8
 965 -721 965 -721 934.5 -543 c 128,-1,9
 904 -365 904 -365 892 -200 c 128,-1,10
 880 -35 880 -35 862.5 188.5 c 128,-1,11
 845 412 845 412 826 550 c 0,12,13
 822 562 822 562 817.5 586 c 128,-1,14
 813 610 813 610 808 624.5 c 128,-1,15
 803 639 803 639 792 656.5 c 128,-1,16
 781 674 781 674 759 684.5 c 128,-1,17
 737 695 737 695 703 700 c 1,18,-1
 79 700 l 1,19,20
 101 817 101 817 101 912 c 0,21,22
 101 985 101 985 90 1050 c 1,0,-1
EndSplineSet
LCarets2: 1 0
EndChar

StartChar: uni05DC
Encoding: 1500 1500 122
Width: 1165
GlyphClass: 2
Flags: W
LayerCount: 2
Fore
SplineSet
188 1051 m 1,0,-1
 773 1051 l 2,1,2
 816 1051 816 1051 874.5 1022.5 c 128,-1,3
 933 994 933 994 986.5 948.5 c 128,-1,4
 1040 903 1040 903 1077.5 836 c 128,-1,5
 1115 769 1115 769 1115 701 c 2,6,-1
 1115 349 l 2,7,8
 1115 295 1115 295 1089 240.5 c 128,-1,9
 1063 186 1063 186 1023.5 144 c 128,-1,10
 984 102 984 102 938 68.5 c 128,-1,11
 892 35 892 35 849 17.5 c 128,-1,12
 806 0 806 0 777 0 c 2,13,-1
 390 0 l 1,14,15
 483 136 483 136 483 291 c 0,16,17
 483 300 483 300 481.5 320.5 c 128,-1,18
 480 341 480 341 480 351 c 1,19,-1
 855 351 l 1,20,21
 917 358 917 358 963 404.5 c 128,-1,22
 1009 451 1009 451 1009 523 c 0,23,24
 1009 655 1009 655 855 701 c 1,25,-1
 111 701 l 1,26,27
 144 791 144 791 144 860 c 0,28,29
 144 910 144 910 134 983 c 128,-1,30
 124 1056 124 1056 105 1113 c 2,31,-1
 -51 1609 l 1,32,-1
 -234 1609 l 1,33,-1
 -279 1486 l 1,34,35
 -270 1536 -270 1536 -262.5 1652 c 128,-1,36
 -255 1768 -255 1768 -255 1830 c 128,-1,37
 -255 1892 -255 1892 -300 2092 c 1,38,39
 -298 2089 -298 2089 -287 2069 c 128,-1,40
 -276 2049 -276 2049 -270.5 2040 c 128,-1,41
 -265 2031 -265 2031 -251.5 2014 c 128,-1,42
 -238 1997 -238 1997 -226.5 1988.5 c 128,-1,43
 -215 1980 -215 1980 -197 1973 c 128,-1,44
 -179 1966 -179 1966 -159 1966 c 1,45,46
 -136 1986 -136 1986 -136 2021 c 0,47,48
 -136 2039 -136 2039 -141.5 2067.5 c 128,-1,49
 -147 2096 -147 2096 -159 2149.5 c 128,-1,50
 -171 2203 -171 2203 -180 2252 c 1,51,52
 -168 2254 -168 2254 -164 2254 c 0,53,54
 -148 2254 -148 2254 -136 2244 c 1,55,56
 -76 2067 -76 2067 -76 1962 c 1,57,58
 27 1962 27 1962 53 1876 c 1,59,60
 113 1536 113 1536 122 1468 c 0,61,62
 135 1370 135 1370 155.5 1265 c 128,-1,63
 176 1160 176 1160 188 1051 c 1,0,-1
EndSplineSet
LCarets2: 1 0
EndChar

StartChar: Alpha
Encoding: 913 913 123
Width: 1936
VWidth: 0
Flags: W
HStem: 0 21G<87.5 147>
VStem: 620 285<1340.95 1500.75>
LayerCount: 2
Fore
SplineSet
1916 66 m 1,0,1
 1826 66 1826 66 1753.5 91 c 128,-1,2
 1681 116 1681 116 1599 183 c 128,-1,3
 1517 250 1517 250 1430 353.5 c 128,-1,4
 1343 457 1343 457 1220 627 c 1,5,-1
 497 309 l 1,6,7
 412 205 412 205 352 142 c 128,-1,8
 292 79 292 79 246.5 48.5 c 128,-1,9
 201 18 201 18 170.5 9 c 128,-1,10
 140 0 140 0 99 0 c 0,11,12
 88 0 88 0 62 3 c 128,-1,13
 36 6 36 6 20 6 c 1,14,15
 632 732 632 732 746 1206 c 1,16,17
 732 1228 732 1228 714 1256 c 128,-1,18
 696 1284 696 1284 690 1293.5 c 128,-1,19
 684 1303 684 1303 674 1320 c 128,-1,20
 664 1337 664 1337 658 1353 c 128,-1,21
 652 1369 652 1369 643 1391.5 c 128,-1,22
 634 1414 634 1414 620 1452 c 1,23,24
 620 1473 620 1473 634.5 1486.5 c 128,-1,25
 649 1500 649 1500 679 1505.5 c 128,-1,26
 709 1511 709 1511 735.5 1512.5 c 128,-1,27
 762 1514 762 1514 804 1514 c 2,28,-1
 837 1514 l 2,29,30
 904 1514 904 1514 929 1518 c 1,31,32
 905 1498.5 905 1498.5 905 1458 c 0,33,34
 905 1396.5 905 1396.5 983 1290 c 2,35,-1
 1916 66 l 1,0,1
884 1039 m 25,36,-1
 638 525 l 1,37,-1
 1124 741 l 1,38,-1
 884 1039 l 25,36,-1
EndSplineSet
EndChar

StartChar: Beta
Encoding: 914 914 124
Width: 1315
VWidth: 0
Flags: W
HStem: 25 63<512.542 1083.11> 1414 76<547.911 799.053>
VStem: 92 323<129.886 722 862 1362.04> 878 234<1130.14 1347.49>
LayerCount: 2
Fore
SplineSet
1295 127 m 0,0,1
 1295 83 1295 83 1167 57.5 c 128,-1,2
 1039 32 1039 32 910.5 28.5 c 2,3,-1
 782 25 l 1,4,5
 459.5 25 459.5 25 92 118 c 1,6,-1
 92 1252 l 2,7,8
 92 1335 92 1335 20 1384 c 1,9,10
 102 1441 102 1441 182 1456 c 128,-1,11
 262 1471 262 1471 407 1471 c 1,12,-1
 407 1399 l 1,13,-1
 627 1482 l 1,14,15
 669 1490 669 1490 712 1490 c 0,16,17
 780 1490 780 1490 849.5 1474 c 128,-1,18
 919 1458 919 1458 978 1428.5 c 128,-1,19
 1037 1399 1037 1399 1074.5 1350.5 c 128,-1,20
 1112 1302 1112 1302 1112 1243 c 0,21,22
 1112 1172 1112 1172 1063 1109.5 c 128,-1,23
 1014 1047 1014 1047 929 1006 c 2,24,-1
 503 805 l 1,25,-1
 1262 184 l 2,26,27
 1295 155.5 1295 155.5 1295 127 c 0,0,1
878 1260 m 0,28,29
 878 1311 878 1311 820 1362.5 c 128,-1,30
 762 1414 762 1414 698 1414 c 0,31,32
 626 1414 626 1414 413 1363 c 1,33,-1
 413 862 l 1,34,35
 716 965 716 965 799 1073 c 0,36,37
 826 1109 826 1109 845.5 1155.5 c 128,-1,38
 865 1202 865 1202 871.5 1228 c 128,-1,39
 878 1254 878 1254 878 1260 c 0,28,29
839 88 m 2,40,-1
 908 88 l 2,41,42
 1025 88 1025 88 1085 100 c 1,43,-1
 1097 156 l 1,44,-1
 415 722 l 1,45,-1
 415 139 l 1,46,47
 633 88 633 88 839 88 c 2,40,-1
EndSplineSet
EndChar

StartChar: Gamma
Encoding: 915 915 125
Width: 1167
VWidth: 0
Flags: W
HStem: 4 1526<71.6464 359.578> 1432 98<374.01 1146.06>
VStem: 20 354<52.8091 1432>
LayerCount: 2
Fore
SplineSet
1136 1530 m 1,0,1
 1147 1511 1147 1511 1147 1490 c 0,2,3
 1147 1469 1147 1469 1134 1432 c 1,4,-1
 413 1432 l 2,5,6
 374 1432 374 1432 374 1386 c 2,7,-1
 374 60 l 1,8,9
 312 4 312 4 226 4 c 0,10,11
 119 4 119 4 20 82 c 1,12,-1
 20 1450 l 2,13,14
 20 1530 20 1530 92 1530 c 2,15,-1
 1136 1530 l 1,0,1
EndSplineSet
EndChar

StartChar: Delta
Encoding: 916 916 126
Width: 1926
VWidth: 0
Flags: W
HStem: 21 168<302 1550.91>
LayerCount: 2
Fore
SplineSet
886 1567 m 1,0,1
 918 1444 918 1444 946 1419 c 1,2,-1
 1898 195 l 1,3,4
 1906 166 1906 166 1906 148 c 0,5,6
 1906 113 1906 113 1885 87 c 128,-1,7
 1864 61 1864 61 1814 21 c 1,8,-1
 20 21 l 1,9,10
 83 121.5 83 121.5 194 255 c 2,11,-1
 614 741 l 2,12,13
 632 764 632 764 642 777 c 128,-1,14
 652 790 652 790 693 850 c 128,-1,15
 734 910 734 910 759 957.5 c 128,-1,16
 784 1005 784 1005 807 1069.5 c 128,-1,17
 830 1134 830 1134 830 1184 c 0,18,19
 830 1236 830 1236 812 1287 c 1,20,-1
 656 1548 l 1,21,22
 674 1562 674 1562 709.5 1571 c 128,-1,23
 745 1580 745 1580 777 1580 c 0,24,25
 804 1580 804 1580 835.5 1573.5 c 128,-1,26
 867 1567 867 1567 886 1567 c 1,0,1
1497 189 m 1,27,28
 1498 190 1498 190 1519.5 206.5 c 128,-1,29
 1541 223 1541 223 1556.5 239.5 c 128,-1,30
 1572 256 1572 256 1572 267 c 1,31,-1
 1012 915 l 1,32,33
 952 831 952 831 884 750.5 c 128,-1,34
 816 670 816 670 757.5 608 c 128,-1,35
 699 546 699 546 613.5 466.5 c 128,-1,36
 528 387 528 387 468 334 c 128,-1,37
 408 281 408 281 302 189 c 1,38,-1
 1497 189 l 1,27,28
EndSplineSet
EndChar

StartChar: Epsilon
Encoding: 917 917 127
Width: 1938
VWidth: 0
Flags: W
HStem: 498 252<1403.32 1533.88> 1419 153<916.691 1431.31>
VStem: 20 344<432.708 789.696>
LayerCount: 2
Fore
SplineSet
1580 627 m 0,0,1
 1580 590 1580 590 1545 544 c 128,-1,2
 1510 498 1510 498 1474 498 c 0,3,4
 1451 498 1451 498 1382 548.5 c 128,-1,5
 1313 599 1313 599 1310 600 c 0,6,7
 1123 673 1123 673 993 710.5 c 128,-1,8
 863 748 863 748 668 777 c 1,9,-1
 442 816 l 1,10,11
 411 784 411 784 387.5 691 c 128,-1,12
 364 598 364 598 364 506 c 0,13,14
 364 363 364 363 422 324 c 1,15,16
 506 174 506 174 685 104 c 128,-1,17
 864 34 864 34 1108 34 c 0,18,19
 1149 34 1149 34 1242.5 24 c 128,-1,20
 1336 14 1336 14 1387 14 c 0,21,22
 1490 14 1490 14 1640 -36 c 1,23,24
 1037 -36 1037 -36 782 0 c 0,25,26
 643 19 643 19 530.5 53.5 c 128,-1,27
 418 88 418 88 340 130.5 c 128,-1,28
 262 173 262 173 203.5 228 c 128,-1,29
 145 283 145 283 110.5 338 c 128,-1,30
 76 393 76 393 55 458.5 c 128,-1,31
 34 524 34 524 27 581.5 c 128,-1,32
 20 639 20 639 20 705 c 0,33,34
 20 711 20 711 23 752 c 128,-1,35
 26 793 26 793 26 828 c 0,36,37
 26 990 26 990 83 1117.5 c 128,-1,38
 140 1245 140 1245 238.5 1329.5 c 128,-1,39
 337 1414 337 1414 476.5 1469.5 c 128,-1,40
 616 1525 616 1525 772.5 1548.5 c 128,-1,41
 929 1572 929 1572 1112 1572 c 0,42,43
 1305 1572 1305 1572 1468 1526 c 128,-1,44
 1631 1480 1631 1480 1750.5 1386 c 128,-1,45
 1870 1292 1870 1292 1918 1161 c 1,46,47
 1829 1027 1829 1027 1722 1027 c 0,48,49
 1683 1027 1683 1027 1640 1044 c 1,50,51
 1605 1231 1605 1231 1505.5 1325 c 128,-1,52
 1406 1419 1406 1419 1214 1419 c 0,53,54
 1029 1419 1029 1419 888 1368.5 c 128,-1,55
 747 1318 747 1318 644 1205 c 1,56,57
 508 1069 508 1069 508 981 c 0,58,59
 508 966 508 966 518 951 c 1,60,61
 951 951 951 951 1450 750 c 1,62,63
 1580 702 1580 702 1580 627 c 0,0,1
EndSplineSet
EndChar

StartChar: Zeta
Encoding: 918 918 128
Width: 2009
VWidth: 0
Flags: W
HStem: 0 21G<1767.25 1867.5> 197 255<593.089 1396.41> 1308 263<462.096 740.229>
LayerCount: 2
Fore
SplineSet
1121 452 m 0,0,1
 1337 452 1337 452 1630 384 c 0,2,3
 1716 364 1716 364 1771.5 344.5 c 128,-1,4
 1827 325 1827 325 1883.5 300 c 128,-1,5
 1940 275 1940 275 1989 258 c 1,6,7
 1974 211 1974 211 1962.5 182 c 128,-1,8
 1951 153 1951 153 1930.5 115 c 128,-1,9
 1910 77 1910 77 1881 49 c 128,-1,10
 1852 21 1852 21 1813 0 c 1,11,-1
 1630 80 l 2,12,13
 1565 106 1565 106 1516 121.5 c 128,-1,14
 1467 137 1467 137 1379 157 c 128,-1,15
 1291 177 1291 177 1171 187 c 128,-1,16
 1051 197 1051 197 899 197 c 0,17,18
 665 197 665 197 499.5 162.5 c 128,-1,19
 334 128 334 128 20 23 c 1,20,21
 440 366.5 440 366.5 1442 1253 c 1,22,23
 1170 1308 1170 1308 855 1308 c 0,24,25
 568 1308 568 1308 290 1355 c 1,26,27
 433 1519 433 1519 461 1542 c 0,28,29
 498 1571 498 1571 602 1571 c 1,30,-1
 1518 1476 l 1,31,32
 1731 1476 1731 1476 1871 1571 c 1,33,-1
 641 400 l 1,34,35
 1066 452 1066 452 1121 452 c 0,0,1
EndSplineSet
EndChar

StartChar: Eta
Encoding: 919 919 129
Width: 1590
VWidth: 0
Flags: W
HStem: 21 21G<97 160> 804 93<790.699 1273.7> 900 93<368 725.98>
VStem: 20 348<77.8199 900 993 1443> 1274 296<903 1513.83> 1318 252<158.111 643.125>
LayerCount: 2
Fore
SplineSet
368 99 m 1,0,1
 217 21 217 21 114 21 c 0,2,3
 58 21 58 21 20 45 c 1,4,-1
 20 1443 l 1,5,6
 25 1443 l 2,7,8
 49 1443 49 1443 146 1477.5 c 128,-1,9
 243 1512 243 1512 271 1512 c 2,10,-1
 278 1512 l 2,11,12
 330.5 1512 330.5 1512 368 1479 c 1,13,-1
 368 993 l 1,14,15
 444 993 444 993 761 945 c 128,-1,16
 1078 897 1078 897 1154 897 c 0,17,18
 1165 897 1165 897 1205 900 c 128,-1,19
 1245 903 1245 903 1274 903 c 1,20,21
 1274 921 1274 921 1267 1011 c 128,-1,22
 1260 1101 1260 1101 1260 1173 c 0,23,24
 1260 1244 1260 1244 1253 1333 c 128,-1,25
 1246 1422 1246 1422 1246 1440 c 2,26,-1
 1246 1515 l 1,27,-1
 1338 1515 l 1,28,29
 1354 1519 1354 1519 1383.5 1527.5 c 128,-1,30
 1413 1536 1413 1536 1427.5 1540 c 128,-1,31
 1442 1544 1442 1544 1467.5 1547.5 c 128,-1,32
 1493 1551 1493 1551 1520 1551 c 0,33,34
 1552 1551 1552 1551 1570 1548 c 1,35,-1
 1570 201 l 1,36,37
 1550 188 1550 188 1518.5 147.5 c 128,-1,38
 1487 107 1487 107 1451.5 79 c 128,-1,39
 1416 51 1416 51 1372 51 c 0,40,41
 1360 51 1360 51 1318 57 c 1,42,43
 1318 486 1318 486 1282 813 c 1,44,45
 1216 804 1216 804 1142 804 c 0,46,47
 1069 804 1069 804 755.5 852 c 128,-1,48
 442 900 442 900 368 900 c 1,49,-1
 368 99 l 1,0,1
EndSplineSet
EndChar

StartChar: Theta
Encoding: 920 920 130
Width: 1924
VWidth: 0
Flags: W
HStem: 19 114<737.125 1127.73> 802 135<386 1526> 1476 108<769.945 1151.84>
VStem: 20 366<573.687 802 937 1048.04> 1526 378<601.693 802 937 1064.02>
LayerCount: 2
Fore
SplineSet
20 817 m 0,0,1
 20 953 20 953 74 1076 c 128,-1,2
 128 1199 128 1199 220 1290 c 128,-1,3
 312 1381 312 1381 431.5 1448.5 c 128,-1,4
 551 1516 551 1516 686.5 1550 c 128,-1,5
 822 1584 822 1584 958 1584 c 0,6,7
 1095 1584 1095 1584 1230.5 1551.5 c 128,-1,8
 1366 1519 1366 1519 1487 1455 c 128,-1,9
 1608 1391 1608 1391 1701.5 1303 c 128,-1,10
 1795 1215 1795 1215 1849.5 1096 c 128,-1,11
 1904 977 1904 977 1904 844 c 0,12,13
 1904 721 1904 721 1864 608 c 128,-1,14
 1824 495 1824 495 1753.5 405.5 c 128,-1,15
 1683 316 1683 316 1587.5 242.5 c 128,-1,16
 1492 169 1492 169 1381 120.5 c 128,-1,17
 1270 72 1270 72 1147.5 45.5 c 128,-1,18
 1025 19 1025 19 903 19 c 0,19,20
 718 19 718 19 552.5 84 c 128,-1,21
 387 149 387 149 271 258 c 128,-1,22
 155 367 155 367 87.5 513 c 128,-1,23
 20 659 20 659 20 817 c 0,0,1
922 133 m 0,24,25
 1016 133 1016 133 1102 164.5 c 128,-1,26
 1188 196 1188 196 1252.5 248.5 c 128,-1,27
 1317 301 1317 301 1370 367.5 c 128,-1,28
 1423 434 1423 434 1456.5 505.5 c 128,-1,29
 1490 577 1490 577 1508 644.5 c 128,-1,30
 1526 712 1526 712 1526 769 c 2,31,-1
 1526 802 l 1,32,-1
 386 802 l 1,33,34
 386 654 386 654 430.5 527 c 128,-1,35
 475 400 475 400 549 315 c 128,-1,36
 623 230 623 230 720 181.5 c 128,-1,37
 817 133 817 133 922 133 c 0,24,25
951 1476 m 0,38,39
 865 1476 865 1476 777 1436 c 128,-1,40
 689 1396 689 1396 620.5 1334.5 c 128,-1,41
 552 1273 552 1273 497.5 1203 c 128,-1,42
 443 1133 443 1133 413.5 1069.5 c 128,-1,43
 384 1006 384 1006 384 966 c 0,44,45
 384 947 384 947 386 937 c 1,46,-1
 1532 937 l 1,47,48
 1532 1093 1532 1093 1370 1278 c 0,49,50
 1305 1357 1305 1357 1189 1416.5 c 128,-1,51
 1073 1476 1073 1476 951 1476 c 0,38,39
EndSplineSet
EndChar

StartChar: Iota
Encoding: 921 921 131
Width: 491
VWidth: 0
Flags: W
VStem: 150 321<105.02 1396.21>
LayerCount: 2
Fore
SplineSet
471 331 m 2,0,1
 471 249 471 249 456.5 186.5 c 128,-1,2
 442 124 442 124 420 88 c 128,-1,3
 398 52 398 52 368 29.5 c 128,-1,4
 338 7 338 7 311 -0.5 c 128,-1,5
 284 -8 284 -8 255 -8 c 0,6,7
 232.5 -8 232.5 -8 225 4 c 1,8,9
 150 4 150 4 150 646 c 0,10,11
 150 747 150 747 153 981 c 128,-1,12
 156 1215 156 1215 156 1348 c 0,13,14
 155 1353 155 1353 87.5 1411 c 128,-1,15
 20 1469 20 1469 20 1489 c 0,16,17
 20.2587890625 1490.33300781 20.2587890625 1490.33300781 21 1492 c 0,18,19
 21 1505.5 21 1505.5 36 1516 c 1,20,21
 62 1550 62 1550 124 1568.5 c 128,-1,22
 186 1587 186 1587 266 1587 c 0,23,24
 289 1587 289 1587 319 1583.5 c 128,-1,25
 349 1580 349 1580 382 1574.5 c 128,-1,26
 415 1569 415 1569 429 1567 c 0,27,28
 453 1567 453 1567 471 1555 c 1,29,-1
 471 331 l 2,0,1
EndSplineSet
EndChar

StartChar: Kappa
Encoding: 922 922 132
Width: 1526
VWidth: 0
Flags: W
HStem: -20 228<1250 1466>
VStem: 38 280<39.4068 584.1> 60 274<79.1201 678.789> 80 270<178.691 704.96 897 1484.17> 1218 270<1410.06 1536.82>
LayerCount: 2
Fore
SplineSet
1194 1536 m 1,0,1
 1236 1564 1236 1564 1325 1564 c 0,2,3
 1392 1564 1392 1564 1440 1541.5 c 128,-1,4
 1488 1519 1488 1519 1488 1476 c 0,5,6
 1488 1444 1488 1444 1442 1376 c 128,-1,7
 1396 1308 1396 1308 1340 1248 c 0,8,9
 1328 1235 1328 1235 1303.5 1208 c 128,-1,10
 1279 1181 1279 1181 1264 1165 c 128,-1,11
 1249 1149 1249 1149 1225.5 1130 c 128,-1,12
 1202 1111 1202 1111 1180 1100 c 2,13,-1
 627 820 l 1,14,15
 720 791 720 791 846.5 723.5 c 128,-1,16
 973 656 973 656 1013 612 c 2,17,-1
 1406 177 l 1,18,19
 1448 208 1448 208 1466 208 c 0,20,21
 1489 208 1489 208 1506 180 c 1,22,23
 1487 84 1487 84 1420.5 32 c 128,-1,24
 1354 -20 1354 -20 1250 -20 c 1,25,-1
 864 471 l 1,26,27
 806 534 806 534 700 615 c 128,-1,28
 594 696 594 696 482 742 c 1,29,30
 441.5 730 441.5 730 350 682 c 1,31,32
 350 656 350 656 342 555 c 128,-1,33
 334 454 334 454 334 378 c 128,-1,34
 334 302 334 302 326 201 c 128,-1,35
 318 100 318 100 318 76 c 1,36,37
 279 35 279 35 202.5 -0.5 c 128,-1,38
 126 -36 126 -36 60 -36 c 1,39,-1
 38 -32 l 1,40,41
 38 -1 38 -1 49 133 c 128,-1,42
 60 267 60 267 60 370 c 0,43,44
 60 472 60 472 70 610.5 c 128,-1,45
 80 749 80 749 80 786 c 0,46,47
 80 812 80 812 73 918 c 128,-1,48
 66 1024 66 1024 66 1104 c 128,-1,49
 66 1184 66 1184 58 1293 c 128,-1,50
 50 1402 50 1402 50 1432 c 0,51,52
 50 1442 50 1442 35 1489 c 128,-1,53
 20 1536 20 1536 20 1542 c 1,54,55
 91 1582 91 1582 164 1582 c 0,56,57
 252 1582 252 1582 312 1528 c 1,58,59
 356 1180 356 1180 356 972 c 0,60,61
 356 970 356 970 355.5 956 c 128,-1,62
 355 942 355 942 355 930 c 0,63,64
 355 920 355 920 352.5 910.5 c 128,-1,65
 350 901 350 901 350 897 c 1,66,-1
 830 1139 l 2,67,68
 936 1194 936 1194 1030.5 1271.5 c 128,-1,69
 1125 1349 1125 1349 1171.5 1405 c 128,-1,70
 1218 1461 1218 1461 1218 1481 c 0,71,72
 1218 1504 1218 1504 1194 1536 c 1,0,1
EndSplineSet
EndChar

StartChar: Lambda
Encoding: 923 923 133
Width: 1800
VWidth: 0
Flags: W
HStem: 0 21G<1552.5 1620>
LayerCount: 2
Fore
SplineSet
1780 145 m 1,0,1
 1741 71 1741 71 1692 35.5 c 128,-1,2
 1643 0 1643 0 1566 0 c 0,3,4
 1524 0 1524 0 1475 10 c 1,5,-1
 791 772 l 1,6,7
 754 642 754 642 691.5 531.5 c 128,-1,8
 629 421 629 421 557 340 c 128,-1,9
 485 259 485 259 392.5 190 c 128,-1,10
 300 121 300 121 212 74.5 c 128,-1,11
 124 28 124 28 20 -14 c 1,12,-1
 326 356 l 2,13,14
 340 376 340 376 361 409 c 128,-1,15
 382 442 382 442 420 513 c 128,-1,16
 458 584 458 584 490 659 c 128,-1,17
 522 734 522 734 551 834.5 c 128,-1,18
 580 935 580 935 590 1030 c 1,19,20
 534 1089 534 1089 485 1202 c 1,21,22
 366 1392 366 1392 320 1498 c 1,23,24
 390 1556 390 1556 515 1556 c 0,25,26
 618.5 1556 618.5 1556 701 1520 c 1,27,28
 697 1513 697 1513 697 1498 c 0,29,30
 697 1489 697 1489 699 1468.5 c 128,-1,31
 701 1448 701 1448 701 1440 c 2,32,-1
 746 1210 l 1,33,-1
 777 1106 l 1,34,35
 868 999 868 999 1087 775.5 c 128,-1,36
 1306 552 1306 552 1377 491 c 2,37,-1
 1780 145 l 1,0,1
EndSplineSet
EndChar

StartChar: Mu
Encoding: 924 924 134
Width: 2296
VWidth: 0
Flags: W
HStem: 10 21G<65 149.5>
VStem: 20 402<1131.5 1535.86> 62 360<178 860.107 1131.5 1521.38> 1898 378<93.8037 1183.98> 1898 330<70.4629 550.188 853.376 1198>
LayerCount: 2
Fore
SplineSet
62 1336 m 0,0,1
 62 1417 62 1417 20 1524 c 1,2,3
 111 1560 111 1560 210 1560 c 0,4,5
 305 1560 305 1560 422 1524 c 1,6,-1
 422 1360 l 2,7,8
 422 1245 422 1245 462.5 1137.5 c 128,-1,9
 503 1030 503 1030 564 957 c 0,10,11
 574 944 574 944 600 907 c 128,-1,12
 626 870 626 870 649 845 c 128,-1,13
 672 820 672 820 700 803 c 2,14,-1
 1107 564 l 1,15,16
 1206 653 1206 653 1294.5 745 c 128,-1,17
 1383 837 1383 837 1450 914 c 128,-1,18
 1517 991 1517 991 1601.5 1103 c 128,-1,19
 1686 1215 1686 1215 1744 1296 c 128,-1,20
 1802 1377 1802 1377 1904 1524 c 1,21,22
 1970 1548 1970 1548 2050 1548 c 0,23,24
 2126 1548 2126 1548 2216 1524 c 1,25,26
 2216 1435 2216 1435 2246 1126.5 c 128,-1,27
 2276 818 2276 818 2276 730 c 0,28,29
 2276 359.5 2276 359.5 2228 76 c 1,30,31
 2058.5 -14 2058.5 -14 1898 -14 c 1,32,-1
 1898 1198 l 1,33,-1
 1526 764 l 2,34,35
 1445 672 1445 672 1330.5 575.5 c 128,-1,36
 1216 479 1216 479 1118 432 c 1,37,38
 766 572 766 572 374 886 c 1,39,40
 410 612 410 612 410 264 c 2,41,-1
 410 178 l 1,42,43
 318.594726562 97.1416015625 318.594726562 97.1416015625 287.985351562 76.119140625 c 0,44,45
 191.711914062 10 191.711914062 10 65 10 c 1,46,47
 65 54 65 54 63.5 622 c 128,-1,48
 62 1190 62 1190 62 1336 c 0,0,1
EndSplineSet
EndChar

StartChar: Nu
Encoding: 925 925 135
Width: 2062
VWidth: 0
Flags: W
VStem: 20 309<33.1635 1017.36> 1664 339<870.661 1390> 1673 350<350.69 1390>
LayerCount: 2
Fore
SplineSet
329 109 m 1,0,1
 323 73 323 73 303.5 49 c 128,-1,2
 284 25 284 25 251.5 13.5 c 128,-1,3
 219 2 219 2 185 -2 c 128,-1,4
 151 -6 151 -6 104 -6 c 0,5,6
 76 -6 76 -6 23 -14 c 1,7,8
 23 3 23 3 21.5 68.5 c 128,-1,9
 20 134 20 134 20 183 c 2,10,-1
 20 379 l 2,11,12
 20 941.5 20 941.5 71 1420 c 1,13,14
 136 1452 136 1452 212 1452 c 0,15,16
 289 1452 289 1452 368 1420 c 1,17,18
 458 1299 458 1299 588.5 1172.5 c 128,-1,19
 719 1046 719 1046 808.5 974 c 128,-1,20
 898 902 898 902 977 847 c 2,21,-1
 1316 602 l 2,22,23
 1509 459 1509 459 1631 346 c 1,24,25
 1673 529 1673 529 1673 654 c 2,26,-1
 1673 1059 l 2,27,28
 1673 1155 1673 1155 1668.5 1265.5 c 128,-1,29
 1664 1376 1664 1376 1664 1390 c 1,30,-1
 1598 1536 l 1,31,32
 1691 1581 1691 1581 1801 1581 c 0,33,34
 1907 1581 1907 1581 2003 1542 c 1,35,36
 2003 1482 2003 1482 2013 1248.5 c 128,-1,37
 2023 1015 2023 1015 2023 842 c 0,38,39
 2023 668 2023 668 2032.5 440 c 128,-1,40
 2042 212 2042 212 2042 157 c 2,41,-1
 2042 130 l 1,42,43
 2036 123 2036 123 2021.5 116 c 128,-1,44
 2007 109 2007 109 2002 103 c 0,45,46
 1996 94 1996 94 1980 76 c 2,47,-1
 1954 49 l 2,48,49
 1928 23 1928 23 1886 -5 c 1,50,51
 1741 76 1741 76 1522.5 214.5 c 128,-1,52
 1304 353 1304 353 1228 417 c 2,53,-1
 416 1101 l 1,54,55
 383 1093 383 1093 356 1059.5 c 128,-1,56
 329 1026 329 1026 329 988 c 2,57,-1
 329 109 l 1,0,1
EndSplineSet
EndChar

StartChar: Xi
Encoding: 926 926 136
Width: 1894
VWidth: 0
Flags: W
HStem: 11 210<812 1360.29> 11 192<817.104 1841.61> 11 174<1309.07 1850> 1332 185<661.174 1053.06> 1391 185<33.2722 366.046> 1448 69<1625.71 1710.89>
LayerCount: 2
Fore
SplineSet
73 1576 m 0,0,1
 76 1576 76 1576 122 1570 c 128,-1,2
 168 1564 168 1564 256 1555 c 128,-1,3
 344 1546 344 1546 464.5 1537.5 c 128,-1,4
 585 1529 585 1529 774 1523 c 128,-1,5
 963 1517 963 1517 1175 1517 c 2,6,-1
 1673 1517 l 2,7,8
 1690 1517 1690 1517 1700.5 1505.5 c 128,-1,9
 1711 1494 1711 1494 1711 1480 c 0,10,11
 1711 1458 1711 1458 1691 1448 c 0,12,13
 1612 1407 1612 1407 1454 1341 c 128,-1,14
 1296 1275 1296 1275 1163 1211 c 128,-1,15
 1030 1147 1030 1147 944 1082 c 1,16,17
 1244 965 1244 965 1448 842 c 0,18,19
 1526 796 1526 796 1526 719 c 0,20,21
 1526 644 1526 644 1448 599 c 1,22,23
 1411 573 1411 573 1266.5 495.5 c 128,-1,24
 1122 418 1122 418 987 340 c 128,-1,25
 852 262 852 262 812 221 c 1,26,27
 851 221 851 221 1017 212 c 128,-1,28
 1183 203 1183 203 1309 203 c 0,29,30
 1434 203 1434 203 1603.5 194 c 128,-1,31
 1773 185 1773 185 1817 185 c 0,32,33
 1847 185 1847 185 1860.5 156 c 128,-1,34
 1874 127 1874 127 1874 92 c 0,35,36
 1874 74 1874 74 1862 50.5 c 128,-1,37
 1850 27 1850 27 1850 11 c 1,38,-1
 263 11 l 2,39,40
 246 11 246 11 235.5 22.5 c 128,-1,41
 225 34 225 34 225 49 c 0,42,43
 225 66 225 66 239 77 c 0,44,45
 668 413 668 413 1130 680 c 1,46,47
 1139 695 1139 695 1139 709 c 0,48,49
 1136 710 1136 710 1136 713 c 0,50,51
 1127 720 1127 720 1101 743 c 128,-1,52
 1075 766 1075 766 1053 780.5 c 128,-1,53
 1031 795 1031 795 1007 803 c 2,54,-1
 522 950 l 1,55,56
 514 988 514 988 514 1012 c 0,57,58
 514 1060 514 1060 551 1094 c 0,59,60
 701 1223 701 1223 1061 1364 c 1,61,62
 814 1332 814 1332 632 1332 c 0,63,64
 413 1332 413 1332 83 1391 c 0,65,66
 54 1396 54 1396 37 1427 c 128,-1,67
 20 1458 20 1458 20 1493 c 0,68,69
 20 1515 20 1515 36 1545.5 c 128,-1,70
 52 1576 52 1576 73 1576 c 0,0,1
EndSplineSet
EndChar

